<svg xmlns="http://www.w3.org/2000/svg" width="819.999" height="196.521" viewBox="0 0 819.999 196.521">
  <g id="Grupo_137595" data-name="Grupo 137595" transform="translate(-390.001 -690)">
    <g id="Trazado_203657" data-name="Trazado 203657" transform="translate(390.001 836.783)" fill="#dee4f0">
      <path d="M 818.4988403320312 48.23754119873047 L 1.500056266784668 48.23754119873047 L 1.500056266784668 1.499985218048096 L 818.4988403320312 1.499985218048096 L 818.4988403320312 48.23754119873047 Z" stroke="none"/>
      <path d="M 2.99993896484375 2.999984741210938 L 2.99993896484375 46.73754119873047 L 816.9987182617188 46.73754119873047 L 816.9987182617188 2.999984741210938 L 2.99993896484375 2.999984741210938 M -6.103515625e-05 -1.52587890625e-05 L 819.9987182617188 -1.52587890625e-05 L 819.9987182617188 49.73754119873047 L -6.103515625e-05 49.73754119873047 L -6.103515625e-05 -1.52587890625e-05 Z" stroke="none" fill="#00a4b8"/>
    </g>
    <path id="Trazado_203658" data-name="Trazado 203658" d="M-71.619-7.765V0H-76.16V-22.039h8.6a9.947,9.947,0,0,1,4.367.908,6.693,6.693,0,0,1,2.9,2.581,7.2,7.2,0,0,1,1.014,3.807A6.328,6.328,0,0,1-61.5-9.635a9.236,9.236,0,0,1-6.138,1.869Zm0-3.678h4.057a3.989,3.989,0,0,0,2.747-.848,3.083,3.083,0,0,0,.946-2.422,3.635,3.635,0,0,0-.954-2.619,3.562,3.562,0,0,0-2.634-1.029h-4.163Zm24.37-.833a11.885,11.885,0,0,0-1.574-.121q-2.482,0-3.254,1.68V0h-4.375V-16.378h4.132l.121,1.953a4.053,4.053,0,0,1,3.648-2.255,4.584,4.584,0,0,1,1.362.2ZM-40.529,0h-4.39V-16.378h4.39Zm-4.647-20.616a2.154,2.154,0,0,1,.658-1.62,2.474,2.474,0,0,1,1.794-.636,2.479,2.479,0,0,1,1.786.636,2.142,2.142,0,0,1,.666,1.62,2.148,2.148,0,0,1-.674,1.635,2.485,2.485,0,0,1-1.779.636,2.485,2.485,0,0,1-1.779-.636A2.148,2.148,0,0,1-45.176-20.616ZM-32.9-16.378l.136,1.892a5.718,5.718,0,0,1,4.708-2.195,4.752,4.752,0,0,1,3.875,1.529,7.133,7.133,0,0,1,1.3,4.571V0h-4.375V-10.5a2.849,2.849,0,0,0-.605-2.025,2.707,2.707,0,0,0-2.013-.63,3.008,3.008,0,0,0-2.77,1.578V0h-4.375V-16.378ZM-12.753-3.224a2.869,2.869,0,0,0,1.968-.666A2.334,2.334,0,0,0-10-5.661h4.1A5.611,5.611,0,0,1-6.8-2.611,5.993,5.993,0,0,1-9.249-.462,7.651,7.651,0,0,1-12.677.3a7.11,7.11,0,0,1-5.54-2.233A8.835,8.835,0,0,1-20.245-8.1v-.288a8.734,8.734,0,0,1,2.013-6.04,7.027,7.027,0,0,1,5.525-2.255A6.889,6.889,0,0,1-7.78-14.932,6.19,6.19,0,0,1-5.9-10.278H-10a3.006,3.006,0,0,0-.787-2.077,2.624,2.624,0,0,0-2-.8,2.635,2.635,0,0,0-2.308,1.114,6.457,6.457,0,0,0-.78,3.616v.455A6.539,6.539,0,0,0-15.1-4.331,2.668,2.668,0,0,0-12.753-3.224ZM1.219,0h-4.39V-16.378h4.39ZM-3.428-20.616a2.154,2.154,0,0,1,.658-1.62,2.474,2.474,0,0,1,1.794-.636,2.479,2.479,0,0,1,1.786.636,2.142,2.142,0,0,1,.666,1.62A2.148,2.148,0,0,1,.8-18.981a2.485,2.485,0,0,1-1.779.636,2.485,2.485,0,0,1-1.779-.636A2.148,2.148,0,0,1-3.428-20.616ZM19.564-8.038a9.823,9.823,0,0,1-1.718,6.062A5.508,5.508,0,0,1,13.207.3,5.1,5.1,0,0,1,9.2-1.423V6.3H4.821V-16.378H8.878l.151,1.6a5.141,5.141,0,0,1,4.147-1.907,5.546,5.546,0,0,1,4.708,2.24,10.089,10.089,0,0,1,1.68,6.176ZM15.19-8.371a6.481,6.481,0,0,0-.81-3.538,2.636,2.636,0,0,0-2.354-1.245A2.863,2.863,0,0,0,9.2-11.575v6.726a2.912,2.912,0,0,0,2.861,1.625Q15.19-3.224,15.19-8.371ZM31.764,0a4.858,4.858,0,0,1-.439-1.468A5.293,5.293,0,0,1,27.193.3,5.815,5.815,0,0,1,23.2-1.09,4.479,4.479,0,0,1,21.623-4.6a4.628,4.628,0,0,1,1.93-4,9.523,9.523,0,0,1,5.578-1.408h2.013v-.938a2.7,2.7,0,0,0-.583-1.816,2.293,2.293,0,0,0-1.839-.681,2.606,2.606,0,0,0-1.733.53,1.8,1.8,0,0,0-.628,1.453H21.986a4.394,4.394,0,0,1,.878-2.634,5.8,5.8,0,0,1,2.482-1.9,9.047,9.047,0,0,1,3.6-.689,7.148,7.148,0,0,1,4.806,1.521,5.322,5.322,0,0,1,1.779,4.276v7.1a7.83,7.83,0,0,0,.651,3.527V0ZM28.147-3.042a3.768,3.768,0,0,0,1.786-.431,2.833,2.833,0,0,0,1.211-1.158V-7.447H29.509q-3.285,0-3.5,2.271L26-4.919a1.751,1.751,0,0,0,.575,1.347A2.234,2.234,0,0,0,28.147-3.042ZM43.51,0h-4.39V-23.25h4.39ZM54.651.3a8.04,8.04,0,0,1-5.865-2.21A7.855,7.855,0,0,1,46.523-7.8v-.424a9.894,9.894,0,0,1,.954-4.412,7,7,0,0,1,2.7-3,7.584,7.584,0,0,1,3.989-1.052,6.8,6.8,0,0,1,5.29,2.119,8.611,8.611,0,0,1,1.93,6.009v1.786H50.958a4.064,4.064,0,0,0,1.279,2.573,3.866,3.866,0,0,0,2.7.969,4.722,4.722,0,0,0,3.951-1.832l2.149,2.407A6.567,6.567,0,0,1,58.375-.477,8.74,8.74,0,0,1,54.651.3Zm-.5-13.457a2.734,2.734,0,0,0-2.112.882A4.566,4.566,0,0,0,51-9.748h6.085v-.35a3.257,3.257,0,0,0-.787-2.258A2.82,2.82,0,0,0,54.152-13.154ZM72.74-4.526a1.409,1.409,0,0,0-.795-1.264,9.027,9.027,0,0,0-2.551-.825q-5.843-1.226-5.843-4.965a4.5,4.5,0,0,1,1.809-3.64,7.3,7.3,0,0,1,4.73-1.461,7.853,7.853,0,0,1,4.988,1.468A4.627,4.627,0,0,1,76.948-11.4H72.573a2.117,2.117,0,0,0-.605-1.552,2.562,2.562,0,0,0-1.892-.613,2.618,2.618,0,0,0-1.71.5,1.577,1.577,0,0,0-.605,1.271,1.348,1.348,0,0,0,.689,1.173,7.085,7.085,0,0,0,2.323.772,18.978,18.978,0,0,1,2.755.734q3.466,1.271,3.466,4.4a4.272,4.272,0,0,1-1.922,3.625A8.293,8.293,0,0,1,70.106.3,8.661,8.661,0,0,1,66.45-.431a6.133,6.133,0,0,1-2.505-2.013,4.678,4.678,0,0,1-.908-2.762h4.147a2.284,2.284,0,0,0,.863,1.786A3.422,3.422,0,0,0,70.2-2.8a3.167,3.167,0,0,0,1.9-.477A1.484,1.484,0,0,0,72.74-4.526Z" transform="translate(796 872.816)"/>
    <g id="Trazado_203659" data-name="Trazado 203659" transform="translate(400.049 690)" fill="rgba(237,125,49,0.6)">
      <path d="M 240.1759033203125 114.329719543457 L 2.912257671356201 114.329719543457 L 42.52829742431641 58.78389358520508 L 43.14951324462891 57.91289520263672 L 42.52829742431641 57.04189682006836 L 2.914701461791992 1.50000262260437 L 240.1745910644531 1.50000262260437 L 280.4087524414062 57.91294860839844 L 240.1759033203125 114.329719543457 Z" stroke="none"/>
      <path d="M 239.4032440185547 112.829704284668 L 278.5663146972656 57.91299057006836 L 239.4019775390625 3.000013589859009 L 5.826948165893555 3.000013589859009 L 44.99193572998047 57.91289901733398 L 5.8244948387146 112.829704284668 L 239.4032440185547 112.829704284668 M 240.9472045898438 115.829704284668 L 1.085486746887909e-05 115.829704284668 L 41.30708694458008 57.91289901733398 L 0.00243393168784678 1.361788235954009e-05 L 240.9472045898438 1.361788235954009e-05 L 282.2510986328125 57.91289901733398 L 240.9472045898438 115.829704284668 Z" stroke="none" fill="#ed7d31"/>
    </g>
    <path id="Trazado_203660" data-name="Trazado 203660" d="M-69.553-22.039l5.661,15.984,5.631-15.984H-52.3V0h-4.556V-6.024l.454-10.4L-62.348,0h-3.118L-71.4-16.408l.454,10.384V0h-4.541V-22.039ZM-39.128,0a4.858,4.858,0,0,1-.439-1.468A5.293,5.293,0,0,1-43.7.3,5.815,5.815,0,0,1-47.688-1.09,4.479,4.479,0,0,1-49.27-4.6a4.628,4.628,0,0,1,1.93-4,9.523,9.523,0,0,1,5.578-1.408h2.013v-.938a2.7,2.7,0,0,0-.583-1.816,2.293,2.293,0,0,0-1.839-.681,2.606,2.606,0,0,0-1.733.53,1.8,1.8,0,0,0-.628,1.453h-4.375a4.394,4.394,0,0,1,.878-2.634,5.8,5.8,0,0,1,2.482-1.9,9.047,9.047,0,0,1,3.6-.689,7.148,7.148,0,0,1,4.806,1.521,5.322,5.322,0,0,1,1.779,4.276v7.1a7.83,7.83,0,0,0,.651,3.527V0Zm-3.618-3.042a3.768,3.768,0,0,0,1.786-.431,2.833,2.833,0,0,0,1.211-1.158V-7.447h-1.635q-3.285,0-3.5,2.271l-.015.257a1.751,1.751,0,0,0,.575,1.347A2.234,2.234,0,0,0-42.746-3.042Zm16.635-3.148,3.027-10.187h4.692L-24.976,2.543l-.363.863a4.992,4.992,0,0,1-4.844,3.209,6.883,6.883,0,0,1-1.937-.288V3.012l.666.015A3.6,3.6,0,0,0-29.6,2.649a2.486,2.486,0,0,0,.961-1.256l.515-1.347-5.737-16.423h4.708Zm8.537-2.149a9.713,9.713,0,0,1,.938-4.344,6.87,6.87,0,0,1,2.7-2.952,7.883,7.883,0,0,1,4.094-1.044,7.458,7.458,0,0,1,5.411,2.028,8.14,8.14,0,0,1,2.339,5.51l.03,1.12a8.56,8.56,0,0,1-2.1,6.047A7.313,7.313,0,0,1-9.809.3a7.35,7.35,0,0,1-5.654-2.271,8.711,8.711,0,0,1-2.112-6.176Zm4.375.311a6.122,6.122,0,0,0,.878,3.57A2.9,2.9,0,0,0-9.809-3.224a2.9,2.9,0,0,0,2.482-1.22,6.7,6.7,0,0,0,.893-3.9A6.061,6.061,0,0,0-7.326-11.9a2.9,2.9,0,0,0-2.513-1.258A2.856,2.856,0,0,0-12.321-11.9,6.812,6.812,0,0,0-13.2-8.03ZM9.839-12.276A11.885,11.885,0,0,0,8.265-12.4q-2.482,0-3.254,1.68V0H.636V-16.378H4.768l.121,1.953a4.053,4.053,0,0,1,3.648-2.255,4.584,4.584,0,0,1,1.362.2ZM16.56,0H12.17V-16.378h4.39ZM11.913-20.616a2.154,2.154,0,0,1,.658-1.62,2.474,2.474,0,0,1,1.794-.636,2.479,2.479,0,0,1,1.786.636,2.142,2.142,0,0,1,.666,1.62,2.148,2.148,0,0,1-.674,1.635,2.485,2.485,0,0,1-1.779.636,2.485,2.485,0,0,1-1.779-.636A2.148,2.148,0,0,1,11.913-20.616Zm17.12,16.09a1.409,1.409,0,0,0-.795-1.264,9.027,9.027,0,0,0-2.551-.825q-5.843-1.226-5.843-4.965a4.5,4.5,0,0,1,1.809-3.64,7.3,7.3,0,0,1,4.73-1.461,7.853,7.853,0,0,1,4.988,1.468A4.627,4.627,0,0,1,33.24-11.4H28.866a2.117,2.117,0,0,0-.605-1.552,2.562,2.562,0,0,0-1.892-.613,2.618,2.618,0,0,0-1.71.5,1.577,1.577,0,0,0-.605,1.271,1.348,1.348,0,0,0,.689,1.173,7.085,7.085,0,0,0,2.323.772,18.978,18.978,0,0,1,2.755.734q3.466,1.271,3.466,4.4a4.272,4.272,0,0,1-1.922,3.625A8.293,8.293,0,0,1,26.4.3a8.661,8.661,0,0,1-3.656-.734,6.133,6.133,0,0,1-2.505-2.013,4.678,4.678,0,0,1-.908-2.762h4.147a2.284,2.284,0,0,0,.863,1.786,3.422,3.422,0,0,0,2.149.621,3.167,3.167,0,0,0,1.9-.477A1.484,1.484,0,0,0,29.032-4.526ZM41.338-20.4v4.026h2.8v3.209h-2.8V-5a1.952,1.952,0,0,0,.348,1.3,1.749,1.749,0,0,0,1.332.394,6.976,6.976,0,0,0,1.287-.106V-.091A9.006,9.006,0,0,1,41.656.3q-4.6,0-4.692-4.647v-8.825H34.572v-3.209h2.392V-20.4ZM56.066,0a4.858,4.858,0,0,1-.439-1.468A5.293,5.293,0,0,1,51.5.3,5.815,5.815,0,0,1,47.507-1.09,4.479,4.479,0,0,1,45.925-4.6a4.628,4.628,0,0,1,1.93-4,9.523,9.523,0,0,1,5.578-1.408h2.013v-.938a2.7,2.7,0,0,0-.583-1.816,2.293,2.293,0,0,0-1.839-.681,2.606,2.606,0,0,0-1.733.53,1.8,1.8,0,0,0-.628,1.453H46.288a4.394,4.394,0,0,1,.878-2.634,5.8,5.8,0,0,1,2.482-1.9,9.047,9.047,0,0,1,3.6-.689,7.148,7.148,0,0,1,4.806,1.521,5.322,5.322,0,0,1,1.779,4.276v7.1a7.83,7.83,0,0,0,.651,3.527V0ZM52.449-3.042a3.768,3.768,0,0,0,1.786-.431,2.833,2.833,0,0,0,1.211-1.158V-7.447H53.811q-3.285,0-3.5,2.271l-.015.257a1.751,1.751,0,0,0,.575,1.347A2.234,2.234,0,0,0,52.449-3.042ZM72.066-4.526a1.409,1.409,0,0,0-.795-1.264,9.027,9.027,0,0,0-2.551-.825q-5.843-1.226-5.843-4.965a4.5,4.5,0,0,1,1.809-3.64,7.3,7.3,0,0,1,4.73-1.461A7.853,7.853,0,0,1,74.4-15.212,4.627,4.627,0,0,1,76.274-11.4H71.9a2.117,2.117,0,0,0-.605-1.552,2.562,2.562,0,0,0-1.892-.613,2.618,2.618,0,0,0-1.71.5,1.577,1.577,0,0,0-.605,1.271,1.348,1.348,0,0,0,.689,1.173,7.085,7.085,0,0,0,2.323.772,18.978,18.978,0,0,1,2.755.734q3.466,1.271,3.466,4.4A4.272,4.272,0,0,1,74.4-1.082,8.293,8.293,0,0,1,69.432.3a8.661,8.661,0,0,1-3.656-.734,6.133,6.133,0,0,1-2.505-2.013,4.678,4.678,0,0,1-.908-2.762h4.147a2.284,2.284,0,0,0,.863,1.786,3.422,3.422,0,0,0,2.149.621,3.167,3.167,0,0,0,1.9-.477A1.484,1.484,0,0,0,72.066-4.526Z" transform="translate(551.36 758.554)" fill="#12263f"/>
    <g id="Trazado_203661" data-name="Trazado 203661" transform="translate(659.352 690)" fill="rgba(196,129,112,0.6)">
      <path d="M 240.1759033203125 114.329719543457 L 2.912257671356201 114.329719543457 L 42.52829742431641 58.78389358520508 L 43.14951324462891 57.91289520263672 L 42.52829742431641 57.04189682006836 L 2.914701461791992 1.50000262260437 L 240.1745910644531 1.50000262260437 L 280.4087524414062 57.91294860839844 L 240.1759033203125 114.329719543457 Z" stroke="none"/>
      <path d="M 239.4032440185547 112.829704284668 L 278.5663146972656 57.91299057006836 L 239.4019775390625 3.000013589859009 L 5.826948165893555 3.000013589859009 L 44.99193572998047 57.91289901733398 L 5.8244948387146 112.829704284668 L 239.4032440185547 112.829704284668 M 240.9472045898438 115.829704284668 L 1.085486746887909e-05 115.829704284668 L 41.30708694458008 57.91289901733398 L 0.00243393168784678 1.361788235954009e-05 L 240.9472045898438 1.361788235954009e-05 L 282.2510986328125 57.91289901733398 L 240.9472045898438 115.829704284668 Z" stroke="none" fill="#c48170"/>
    </g>
    <g id="Trazado_203662" data-name="Trazado 203662" transform="translate(918.655 690)" fill="rgba(165,165,165,0.6)">
      <path d="M 240.1759033203125 114.329719543457 L 2.912257671356201 114.329719543457 L 42.52829742431641 58.78389358520508 L 43.14951324462891 57.91289520263672 L 42.52829742431641 57.04189682006836 L 2.914701461791992 1.50000262260437 L 240.1745910644531 1.50000262260437 L 280.4087524414062 57.91294860839844 L 240.1759033203125 114.329719543457 Z" stroke="none"/>
      <path d="M 239.4032440185547 112.829704284668 L 278.5663146972656 57.91299057006836 L 239.4019775390625 3.000013589859009 L 5.826948165893555 3.000013589859009 L 44.99193572998047 57.91289901733398 L 5.8244948387146 112.829704284668 L 239.4032440185547 112.829704284668 M 240.9472045898438 115.829704284668 L 1.085486746887909e-05 115.829704284668 L 41.30708694458008 57.91289901733398 L 0.00243393168784678 1.361788235954009e-05 L 240.9472045898438 1.361788235954009e-05 L 282.2510986328125 57.91289901733398 L 240.9472045898438 115.829704284668 Z" stroke="none" fill="#a5a5a5"/>
    </g>
    <path id="Trazado_203663" data-name="Trazado 203663" d="M-66.48-22.039l5.661,15.984,5.631-15.984h5.964V0h-4.556V-6.024l.454-10.4L-59.275,0h-3.118l-5.934-16.408.454,10.384V0h-4.541V-22.039ZM-40.93,0h-4.39V-16.378h4.39Zm-4.647-20.616a2.154,2.154,0,0,1,.658-1.62,2.474,2.474,0,0,1,1.794-.636,2.479,2.479,0,0,1,1.786.636,2.142,2.142,0,0,1,.666,1.62,2.148,2.148,0,0,1-.674,1.635,2.485,2.485,0,0,1-1.779.636,2.485,2.485,0,0,1-1.779-.636A2.148,2.148,0,0,1-45.577-20.616ZM-33.3-16.378l.136,1.892a5.718,5.718,0,0,1,4.708-2.195,4.752,4.752,0,0,1,3.875,1.529,7.133,7.133,0,0,1,1.3,4.571V0h-4.375V-10.5a2.849,2.849,0,0,0-.605-2.025,2.707,2.707,0,0,0-2.013-.63,3.008,3.008,0,0,0-2.77,1.578V0h-4.375V-16.378ZM-20.646-8.34a9.713,9.713,0,0,1,.938-4.344,6.87,6.87,0,0,1,2.7-2.952,7.883,7.883,0,0,1,4.094-1.044A7.458,7.458,0,0,1-7.5-14.652a8.14,8.14,0,0,1,2.339,5.51l.03,1.12a8.56,8.56,0,0,1-2.1,6.047A7.313,7.313,0,0,1-12.881.3a7.35,7.35,0,0,1-5.654-2.271,8.711,8.711,0,0,1-2.112-6.176Zm4.375.311a6.122,6.122,0,0,0,.878,3.57,2.9,2.9,0,0,0,2.513,1.236A2.9,2.9,0,0,0-10.4-4.445a6.7,6.7,0,0,0,.893-3.9A6.061,6.061,0,0,0-10.4-11.9a2.9,2.9,0,0,0-2.513-1.258A2.856,2.856,0,0,0-15.394-11.9,6.812,6.812,0,0,0-16.272-8.03ZM6.766-12.276A11.885,11.885,0,0,0,5.192-12.4q-2.482,0-3.254,1.68V0H-2.437V-16.378H1.7l.121,1.953a4.053,4.053,0,0,1,3.648-2.255,4.584,4.584,0,0,1,1.362.2ZM13.487,0H9.1V-16.378h4.39ZM8.84-20.616a2.154,2.154,0,0,1,.658-1.62,2.474,2.474,0,0,1,1.794-.636,2.479,2.479,0,0,1,1.786.636,2.142,2.142,0,0,1,.666,1.62,2.148,2.148,0,0,1-.674,1.635,2.485,2.485,0,0,1-1.779.636,2.485,2.485,0,0,1-1.779-.636A2.148,2.148,0,0,1,8.84-20.616Zm17.12,16.09a1.409,1.409,0,0,0-.795-1.264,9.027,9.027,0,0,0-2.551-.825q-5.843-1.226-5.843-4.965a4.5,4.5,0,0,1,1.809-3.64,7.3,7.3,0,0,1,4.73-1.461A7.853,7.853,0,0,1,28.3-15.212,4.627,4.627,0,0,1,30.167-11.4H25.793a2.117,2.117,0,0,0-.605-1.552,2.562,2.562,0,0,0-1.892-.613,2.618,2.618,0,0,0-1.71.5,1.577,1.577,0,0,0-.605,1.271,1.348,1.348,0,0,0,.689,1.173,7.085,7.085,0,0,0,2.323.772,18.978,18.978,0,0,1,2.755.734q3.466,1.271,3.466,4.4a4.272,4.272,0,0,1-1.922,3.625A8.293,8.293,0,0,1,23.326.3,8.661,8.661,0,0,1,19.67-.431a6.133,6.133,0,0,1-2.505-2.013,4.678,4.678,0,0,1-.908-2.762H20.4a2.284,2.284,0,0,0,.863,1.786,3.422,3.422,0,0,0,2.149.621,3.167,3.167,0,0,0,1.9-.477A1.484,1.484,0,0,0,25.959-4.526ZM38.266-20.4v4.026h2.8v3.209h-2.8V-5a1.952,1.952,0,0,0,.348,1.3,1.749,1.749,0,0,0,1.332.394,6.976,6.976,0,0,0,1.287-.106V-.091A9.006,9.006,0,0,1,38.583.3q-4.6,0-4.692-4.647v-8.825H31.5v-3.209h2.392V-20.4ZM52.994,0a4.858,4.858,0,0,1-.439-1.468A5.293,5.293,0,0,1,48.422.3,5.815,5.815,0,0,1,44.434-1.09,4.479,4.479,0,0,1,42.852-4.6a4.628,4.628,0,0,1,1.93-4,9.523,9.523,0,0,1,5.578-1.408h2.013v-.938a2.7,2.7,0,0,0-.583-1.816,2.293,2.293,0,0,0-1.839-.681,2.606,2.606,0,0,0-1.733.53,1.8,1.8,0,0,0-.628,1.453H43.215a4.394,4.394,0,0,1,.878-2.634,5.8,5.8,0,0,1,2.482-1.9,9.047,9.047,0,0,1,3.6-.689,7.148,7.148,0,0,1,4.806,1.521,5.322,5.322,0,0,1,1.779,4.276v7.1a7.83,7.83,0,0,0,.651,3.527V0ZM49.376-3.042a3.768,3.768,0,0,0,1.786-.431,2.833,2.833,0,0,0,1.211-1.158V-7.447H50.738q-3.285,0-3.5,2.271l-.015.257A1.751,1.751,0,0,0,47.8-3.572,2.234,2.234,0,0,0,49.376-3.042ZM68.993-4.526A1.409,1.409,0,0,0,68.2-5.79a9.027,9.027,0,0,0-2.551-.825q-5.843-1.226-5.843-4.965a4.5,4.5,0,0,1,1.809-3.64,7.3,7.3,0,0,1,4.73-1.461,7.853,7.853,0,0,1,4.988,1.468A4.627,4.627,0,0,1,73.2-11.4H68.827a2.117,2.117,0,0,0-.605-1.552,2.562,2.562,0,0,0-1.892-.613,2.618,2.618,0,0,0-1.71.5,1.577,1.577,0,0,0-.605,1.271,1.348,1.348,0,0,0,.689,1.173,7.085,7.085,0,0,0,2.323.772,18.978,18.978,0,0,1,2.755.734q3.466,1.271,3.466,4.4a4.272,4.272,0,0,1-1.922,3.625A8.293,8.293,0,0,1,66.359.3,8.661,8.661,0,0,1,62.7-.431,6.133,6.133,0,0,1,60.2-2.445a4.678,4.678,0,0,1-.908-2.762h4.147A2.284,2.284,0,0,0,64.3-3.421,3.422,3.422,0,0,0,66.45-2.8a3.167,3.167,0,0,0,1.9-.477A1.484,1.484,0,0,0,68.993-4.526Z" transform="translate(808.214 758.554)" fill="#12263f"/>
    <path id="Trazado_203664" data-name="Trazado 203664" d="M-37.736-7.341a7.8,7.8,0,0,1-2.626,5.6A9.223,9.223,0,0,1-46.606.3a8.293,8.293,0,0,1-6.668-2.853Q-55.7-5.4-55.7-10.384v-1.347a13.211,13.211,0,0,1,1.12-5.6,8.394,8.394,0,0,1,3.2-3.716,8.968,8.968,0,0,1,4.836-1.294A8.985,8.985,0,0,1-40.4-20.3a8.381,8.381,0,0,1,2.694,5.737h-4.541a4.6,4.6,0,0,0-1.188-3.1,4.4,4.4,0,0,0-3.111-.961,3.858,3.858,0,0,0-3.4,1.627A9.119,9.119,0,0,0-51.1-11.943v1.665a9.76,9.76,0,0,0,1.082,5.222,3.787,3.787,0,0,0,3.413,1.65,4.483,4.483,0,0,0,3.141-.961,4.341,4.341,0,0,0,1.188-2.974ZM-30.425,0h-4.39V-23.25h4.39Zm8.219,0H-26.6V-16.378h4.39Zm-4.647-20.616a2.154,2.154,0,0,1,.658-1.62,2.474,2.474,0,0,1,1.794-.636,2.479,2.479,0,0,1,1.786.636,2.142,2.142,0,0,1,.666,1.62,2.148,2.148,0,0,1-.674,1.635,2.485,2.485,0,0,1-1.779.636,2.485,2.485,0,0,1-1.779-.636A2.148,2.148,0,0,1-26.853-20.616ZM-11.065.3a8.04,8.04,0,0,1-5.865-2.21A7.855,7.855,0,0,1-19.193-7.8v-.424a9.894,9.894,0,0,1,.954-4.412,7,7,0,0,1,2.7-3,7.584,7.584,0,0,1,3.989-1.052,6.8,6.8,0,0,1,5.29,2.119,8.611,8.611,0,0,1,1.93,6.009v1.786H-14.758a4.064,4.064,0,0,0,1.279,2.573,3.866,3.866,0,0,0,2.7.969A4.722,4.722,0,0,0-6.827-5.056l2.149,2.407A6.567,6.567,0,0,1-7.341-.477,8.74,8.74,0,0,1-11.065.3Zm-.5-13.457a2.734,2.734,0,0,0-2.112.882,4.566,4.566,0,0,0-1.037,2.524h6.085v-.35a3.257,3.257,0,0,0-.787-2.258A2.82,2.82,0,0,0-11.564-13.154ZM2.18-16.378l.136,1.892a5.718,5.718,0,0,1,4.708-2.195A4.752,4.752,0,0,1,10.9-15.152a7.133,7.133,0,0,1,1.3,4.571V0H7.826V-10.5a2.849,2.849,0,0,0-.605-2.025,2.707,2.707,0,0,0-2.013-.63,3.008,3.008,0,0,0-2.77,1.578V0H-1.937V-16.378ZM20.752-20.4v4.026h2.8v3.209h-2.8V-5a1.952,1.952,0,0,0,.348,1.3,1.749,1.749,0,0,0,1.332.394,6.976,6.976,0,0,0,1.287-.106V-.091A9.006,9.006,0,0,1,21.07.3q-4.6,0-4.692-4.647v-8.825H13.986v-3.209h2.392V-20.4ZM33.528.3a8.04,8.04,0,0,1-5.865-2.21A7.855,7.855,0,0,1,25.4-7.8v-.424a9.894,9.894,0,0,1,.954-4.412,7,7,0,0,1,2.7-3,7.584,7.584,0,0,1,3.989-1.052,6.8,6.8,0,0,1,5.29,2.119,8.611,8.611,0,0,1,1.93,6.009v1.786H29.834a4.064,4.064,0,0,0,1.279,2.573,3.866,3.866,0,0,0,2.7.969,4.722,4.722,0,0,0,3.951-1.832l2.149,2.407A6.567,6.567,0,0,1,37.251-.477,8.74,8.74,0,0,1,33.528.3Zm-.5-13.457a2.734,2.734,0,0,0-2.112.882A4.566,4.566,0,0,0,29.88-9.748h6.085v-.35a3.257,3.257,0,0,0-.787-2.258A2.82,2.82,0,0,0,33.028-13.154ZM51.616-4.526a1.409,1.409,0,0,0-.795-1.264,9.027,9.027,0,0,0-2.551-.825q-5.843-1.226-5.843-4.965a4.5,4.5,0,0,1,1.809-3.64,7.3,7.3,0,0,1,4.73-1.461,7.853,7.853,0,0,1,4.988,1.468A4.627,4.627,0,0,1,55.824-11.4H51.45a2.117,2.117,0,0,0-.605-1.552,2.562,2.562,0,0,0-1.892-.613,2.618,2.618,0,0,0-1.71.5,1.577,1.577,0,0,0-.605,1.271,1.348,1.348,0,0,0,.689,1.173,7.085,7.085,0,0,0,2.323.772,18.978,18.978,0,0,1,2.755.734q3.466,1.271,3.466,4.4a4.272,4.272,0,0,1-1.922,3.625A8.293,8.293,0,0,1,48.982.3a8.661,8.661,0,0,1-3.656-.734,6.133,6.133,0,0,1-2.505-2.013,4.678,4.678,0,0,1-.908-2.762h4.147a2.284,2.284,0,0,0,.863,1.786,3.422,3.422,0,0,0,2.149.621,3.167,3.167,0,0,0,1.9-.477A1.484,1.484,0,0,0,51.616-4.526ZM-44.139,38V24.831h-2.437V21.622h2.437v-.757a6.142,6.142,0,0,1,1.9-4.76,7.643,7.643,0,0,1,5.275-1.673A17.5,17.5,0,0,1-32,15.325l-.636,3.618a19.371,19.371,0,0,0-2.3-.568,11.3,11.3,0,0,0-1.756-.129q-3.058,0-3.058,2.709v.666h3.224v3.209h-3.224V38Zm14.183,0h-4.39V21.622h4.39Zm7.644-16.378.136,1.892a5.718,5.718,0,0,1,4.708-2.195,4.752,4.752,0,0,1,3.875,1.529,7.133,7.133,0,0,1,1.3,4.571V38h-4.375V27.5a2.849,2.849,0,0,0-.605-2.025,2.707,2.707,0,0,0-2.013-.63,3.008,3.008,0,0,0-2.77,1.578V38h-4.375V21.622ZM.515,38a4.858,4.858,0,0,1-.439-1.468A5.293,5.293,0,0,1-4.057,38.3,5.815,5.815,0,0,1-8.045,36.91,4.479,4.479,0,0,1-9.627,33.4a4.628,4.628,0,0,1,1.93-4,9.523,9.523,0,0,1,5.578-1.408H-.106v-.938A2.7,2.7,0,0,0-.689,25.24a2.293,2.293,0,0,0-1.839-.681,2.606,2.606,0,0,0-1.733.53,1.8,1.8,0,0,0-.628,1.453H-9.264a4.394,4.394,0,0,1,.878-2.634,5.8,5.8,0,0,1,2.482-1.9,9.047,9.047,0,0,1,3.6-.689,7.148,7.148,0,0,1,4.806,1.521,5.322,5.322,0,0,1,1.779,4.276v7.1a7.83,7.83,0,0,0,.651,3.527V38ZM-3.1,34.958a3.768,3.768,0,0,0,1.786-.431A2.833,2.833,0,0,0-.106,33.368V30.553H-1.741q-3.285,0-3.5,2.271l-.015.257a1.751,1.751,0,0,0,.575,1.347A2.234,2.234,0,0,0-3.1,34.958ZM12.261,38H7.871V14.75h4.39Zm11.141.3a8.04,8.04,0,0,1-5.865-2.21A7.855,7.855,0,0,1,15.273,30.2v-.424a9.894,9.894,0,0,1,.954-4.412,7,7,0,0,1,2.7-3,7.584,7.584,0,0,1,3.989-1.052,6.8,6.8,0,0,1,5.29,2.119,8.611,8.611,0,0,1,1.93,6.009v1.786H19.708a4.064,4.064,0,0,0,1.279,2.573,3.866,3.866,0,0,0,2.7.969,4.722,4.722,0,0,0,3.951-1.832l2.149,2.407a6.567,6.567,0,0,1-2.664,2.172A8.74,8.74,0,0,1,23.4,38.3Zm-.5-13.457a2.734,2.734,0,0,0-2.112.882,4.566,4.566,0,0,0-1.037,2.524h6.085V27.9a3.257,3.257,0,0,0-.787-2.258A2.82,2.82,0,0,0,22.9,24.846ZM41.49,33.474A1.409,1.409,0,0,0,40.7,32.21a9.027,9.027,0,0,0-2.551-.825Q32.3,30.159,32.3,26.42a4.5,4.5,0,0,1,1.809-3.64,7.3,7.3,0,0,1,4.73-1.461,7.853,7.853,0,0,1,4.988,1.468A4.627,4.627,0,0,1,45.7,26.6H41.323a2.117,2.117,0,0,0-.605-1.552,2.562,2.562,0,0,0-1.892-.613,2.618,2.618,0,0,0-1.71.5,1.577,1.577,0,0,0-.605,1.271,1.348,1.348,0,0,0,.689,1.173,7.085,7.085,0,0,0,2.323.772,18.978,18.978,0,0,1,2.755.734q3.466,1.271,3.466,4.4a4.272,4.272,0,0,1-1.922,3.625A8.293,8.293,0,0,1,38.856,38.3a8.661,8.661,0,0,1-3.656-.734A6.133,6.133,0,0,1,32.7,35.555a4.678,4.678,0,0,1-.908-2.762h4.147a2.284,2.284,0,0,0,.863,1.786,3.422,3.422,0,0,0,2.149.621,3.167,3.167,0,0,0,1.9-.477A1.484,1.484,0,0,0,41.49,33.474Z" transform="translate(1067.053 738.913)" fill="#12263f"/>
  </g>
</svg>
