<svg id="Grupo_116852" data-name="Grupo 116852" xmlns="http://www.w3.org/2000/svg" xmlns:xlink="http://www.w3.org/1999/xlink" width="78.509" height="78.509" viewBox="0 0 78.509 78.509">
  <defs>
    <clipPath id="clip-path">
      <rect id="Rectángulo_40830" data-name="Rectángulo 40830" width="78.509" height="78.509" fill="none"/>
    </clipPath>
  </defs>
  <g id="Grupo_116847" data-name="Grupo 116847" clip-path="url(#clip-path)">
    <path id="Trazado_161894" data-name="Trazado 161894" d="M14.72,0A5.007,5.007,0,0,1,15.8.847Q27.114,12.176,38.448,23.49a2.544,2.544,0,0,1,.82,1.961c-.029,4.01-.012,8.02-.014,12.03,0,1.315-.441,1.766-1.733,1.767-4.087,0-8.173-.007-12.26.009a2.156,2.156,0,0,1-1.628-.691Q12.181,27.1.719,15.642c-.248-.248-.48-.512-.719-.768v-.92a2.463,2.463,0,0,1,.66-1Q6.814,6.814,12.952.66a2.463,2.463,0,0,1,1-.66Z"/>
    <path id="Trazado_161895" data-name="Trazado 161895" d="M210.141,200.959q-4.361,11.847-8.713,23.7a1.538,1.538,0,0,1-1.623,1.109c-1.021-.005-2.042.018-3.062-.01-.416-.012-.625.076-.559.534a2.447,2.447,0,0,1,0,.612,2.17,2.17,0,0,0,1.1,2.415,3.352,3.352,0,0,1,1.417,3.759,3.713,3.713,0,0,1-2.892,3.014c-.1.026-.2.027-.229.148H194.2a3.589,3.589,0,0,1-3.328-3.076,3.932,3.932,0,0,1,1.781-4.313,2.448,2.448,0,0,0,.659-2.53c-.171-.371-.51-.286-.8-.287-2.348-.009-4.7,0-7.043,0-.893,0-1.787.023-2.679-.008-.608-.021-.766.245-.81.817a2.345,2.345,0,0,0,1.07,2.312,4.039,4.039,0,0,1-.435,6.674,5.864,5.864,0,0,1-1.449.415h-1.38a4.416,4.416,0,0,1-2.825-2.25,3.856,3.856,0,0,1,1.7-5.107.789.789,0,0,0,.524-.871,9.813,9.813,0,0,1,0-1.608c.057-.57-.179-.658-.687-.648-1.711.031-3.424-.008-5.135.024-.537.01-.76-.079-.753-.7.022-1.937-.007-1.937,1.951-1.937,7.947,0,15.893-.008,23.84.016a.948.948,0,0,0,1.076-.753q4.165-11.407,8.385-22.795c.232-.628.457-1.279,1.314-1.267,2.037-.127,4.076-.019,6.114-.06.326-.007.481.108.448.442-.005.051,0,.1,0,.153-.031.634.258,1.439-.107,1.856-.379.432-1.2.121-1.829.15-1.219.056-2.443-.081-3.661.074" transform="translate(-137.308 -157.728)"/>
    <path id="Trazado_161896" data-name="Trazado 161896" d="M271.815,10.887c-.448.483-.88.981-1.345,1.447q-7.8,7.807-15.591,15.615a2.7,2.7,0,0,1-2.1.857c-2.63-.033-5.261-.01-7.891-.013-1.421,0-1.871-.453-1.872-1.878,0-2.707.009-5.414-.007-8.121a2.236,2.236,0,0,1,.7-1.7Q251.923,8.894,260.126.682c.247-.247.534-.455.8-.682h.767a2.892,2.892,0,0,1,1.331.832q3.963,3.994,7.957,7.957a2.891,2.891,0,0,1,.832,1.331Z" transform="translate(-193.306)"/>
    <path id="Trazado_161897" data-name="Trazado 161897" d="M0,271.052c.423-.465.829-.948,1.273-1.393q6.552-6.566,13.108-13.129a2.464,2.464,0,0,1,1.9-.8c2.683.026,5.366.008,8.049.011,1.412,0,1.858.457,1.86,1.892,0,2.683-.012,5.366.009,8.049a2.39,2.39,0,0,1-.766,1.831q-6.849,6.812-13.664,13.657a4.188,4.188,0,0,1-1.032.765H10.12a2.89,2.89,0,0,1-1.331-.832Q4.826,277.113.832,273.15A2.891,2.891,0,0,1,0,271.819v-.767" transform="translate(0 -203.43)"/>
    <path id="Trazado_161898" data-name="Trazado 161898" d="M352.363,200.682c.218-.267.521-.152.785-.154,1.375-.012,2.749-.02,4.124,0,.456.008.613-.131.625-.6.046-1.825.063-1.82-1.765-1.826-1.578-.005-3.155-.022-4.733-.033,1.576-.172,3.157-.026,4.735-.079a11.026,11.026,0,0,0,1.906-.056v2.76c-1.892-.1-3.784-.082-5.676-.01" transform="translate(-279.53 -157.451)" fill="#0f0f0f"/>
    <path id="Trazado_161899" data-name="Trazado 161899" d="M170.688,204.678h15.174c1.63,0,2.124.663,1.643,2.211q-2.7,8.68-5.4,17.359c-.344,1.106-.667,1.358-1.812,1.359q-9.695.006-19.389,0c-1.155,0-1.462-.246-1.8-1.365q-2.593-8.673-5.185-17.346c-.462-1.547.044-2.218,1.665-2.218h15.1" transform="translate(-122.315 -162.817)"/>
    <path id="Trazado_161900" data-name="Trazado 161900" d="M239.385,154.911c0,1.274,0,1.274-1.273,1.274-1.344,0-1.344,0-1.344-1.35,0-1.266,0-1.266,1.264-1.266,1.353,0,1.353,0,1.353,1.342" transform="translate(-188.344 -122.161)" fill="#010101"/>
    <path id="Trazado_161901" data-name="Trazado 161901" d="M238.069,179.133c1.316,0,1.316,0,1.316,1.3s0,1.311-1.31,1.311-1.307,0-1.307-1.305,0-1.308,1.3-1.308" transform="translate(-188.344 -142.496)" fill="#010101"/>
    <path id="Trazado_161902" data-name="Trazado 161902" d="M129.306,207.29c-1.273,0-1.273,0-1.273-1.26,0-1.352,0-1.352,1.333-1.352,1.284,0,1.284,0,1.284,1.259,0,1.353,0,1.353-1.344,1.353" transform="translate(-101.848 -162.817)" fill="#010101"/>
    <path id="Trazado_161903" data-name="Trazado 161903" d="M130.65,231.48c0,1.354,0,1.354-1.342,1.354-1.276,0-1.276,0-1.276-1.256,0-1.359,0-1.359,1.332-1.359,1.285,0,1.285,0,1.285,1.26" transform="translate(-101.847 -183.135)" fill="#010101"/>
    <path id="Trazado_161904" data-name="Trazado 161904" d="M49.531,43.831c0,1.687-.015,3.374.01,5.06.007.47-.078.663-.614.659-3.373-.026-6.747-.018-10.12-.006a1.119,1.119,0,0,1-.872-.359Q27.21,38.441,16.466,27.717c-.317-.316-.376-.482-.021-.834Q21.672,21.7,26.853,16.474c.373-.377.555-.315.891.022Q38.438,27.215,49.158,37.909a1.19,1.19,0,0,1,.381.939c-.019,1.661-.008,3.322-.008,4.983" transform="translate(-12.888 -12.9)" fill="#feca2e"/>
    <path id="Trazado_161905" data-name="Trazado 161905" d="M207.337,359.574a1.337,1.337,0,0,1-1.314,1.324,1.373,1.373,0,0,1-1.282-1.29,1.321,1.321,0,0,1,1.326-1.3,1.291,1.291,0,0,1,1.27,1.268" transform="translate(-162.867 -285.025)" fill="#ffe4e5"/>
    <path id="Trazado_161906" data-name="Trazado 161906" d="M276.439,360.89a1.335,1.335,0,0,1-1.277-1.36,1.306,1.306,0,0,1,1.308-1.233,1.322,1.322,0,0,1,1.284,1.341,1.363,1.363,0,0,1-1.315,1.251" transform="translate(-218.885 -285.018)" fill="#ffe4e5"/>
    <path id="Trazado_161907" data-name="Trazado 161907" d="M255.459,35.472c0-1.174-.325-2.483.09-3.485.427-1.029,1.568-1.768,2.414-2.616q6.333-6.344,12.665-12.689c.427-.431.646-.418,1.061,0q3.137,3.2,6.336,6.341c.349.344.373.531.009.893q-7.469,7.429-14.9,14.893a1.2,1.2,0,0,1-.94.39c-2.017-.016-4.035-.03-6.052.006-.6.011-.736-.2-.714-.751.04-.994.011-1.992.011-2.988h.023" transform="translate(-203.116 -13.017)" fill="#fc4b52"/>
    <path id="Trazado_161908" data-name="Trazado 161908" d="M36.469,272.257c0,1.2.32,2.52-.091,3.551-.4,1-1.546,1.717-2.374,2.547q-5.032,5.04-10.062,10.081c-.376.38-.571.466-1,.029-2.1-2.157-4.24-4.28-6.385-6.394-.344-.339-.378-.522-.012-.884q6.14-6.1,12.243-12.233a1.28,1.28,0,0,1,1-.436c2.016.022,4.033.025,6.05,0,.519-.007.725.122.7.677-.041,1.019-.012,2.042-.012,3.063h-.058" transform="translate(-12.956 -213.599)" fill="#dff7f9"/>
    <path id="Trazado_161909" data-name="Trazado 161909" d="M182.867,217.4c4.393,0,8.786.011,13.178-.012.637,0,.76.112.558.75q-2.275,7.178-4.478,14.378a.7.7,0,0,1-.8.584q-8.543-.024-17.086,0a.7.7,0,0,1-.793-.594q-2.133-7.222-4.306-14.431c-.188-.621-.016-.689.553-.687,4.393.021,8.785.012,13.178.012" transform="translate(-134.486 -172.928)" fill="#a7e446"/>
    <path id="Trazado_161910" data-name="Trazado 161910" d="M67.167,73.532c.547-.5,1.105-.987,1.63-1.505.25-.247.419-.132.663-.006a1.691,1.691,0,0,0,2.324-.616,1.759,1.759,0,0,0-.547-2.356,1.121,1.121,0,0,0-1.081-.149,19.984,19.984,0,0,0-2.363,1.077c-1.893.874-3.385.727-4.8-.617a4.186,4.186,0,0,1-1.076-4.706.691.691,0,0,0-.186-.865c-.523-.488-1.007-1.017-1.527-1.508-.242-.228-.269-.408,0-.613a.711.711,0,0,0,.054-.054c.5-.471.966-1.256,1.51-1.314.427-.045.98.78,1.421,1.268a1.292,1.292,0,0,0,1.618.472,4.037,4.037,0,0,1,3.9.739c.289.217.353.375.05.63a8.094,8.094,0,0,0-.761.756c-.415.457-.74.817-1.5.407a1.642,1.642,0,0,0-2.136.964,1.86,1.86,0,0,0,.845,2.236,1.473,1.473,0,0,0,1.387-.13c.657-.277,1.285-.621,1.932-.924a3.976,3.976,0,0,1,4.749.6,4.329,4.329,0,0,1,1.1,4.707.692.692,0,0,0,.216.922,1.514,1.514,0,0,1,.217.216c.406.482,1.321.913,1.186,1.375-.183.627-.962,1.074-1.468,1.614-.219.233-.344.09-.494-.061-.433-.435-.885-.852-1.295-1.307A.712.712,0,0,0,71.8,74.6a4.23,4.23,0,0,1-4.631-1.065" transform="translate(-47.738 -47.966)"/>
    <path id="Trazado_161911" data-name="Trazado 161911" d="M144.742,142.733a1.942,1.942,0,1,1-1.969-1.913,1.952,1.952,0,0,1,1.969,1.913" transform="translate(-112.05 -112.02)"/>
    <path id="Trazado_161912" data-name="Trazado 161912" d="M284.959,61.671a3.373,3.373,0,0,1-3.06-1.954,3.5,3.5,0,0,1,.251-3.7c.238-.365.453-.522.8-.1a9.664,9.664,0,0,0,.916.924c.307.287.551.526.316,1.03a.8.8,0,0,0,.423,1.037.961.961,0,0,0,1.139-.11c.415-.33.3-.715.118-1.1-.266-.579-.574-1.14-.8-1.733a3.382,3.382,0,0,1,2.285-4.589,3.595,3.595,0,0,1,3.89,5.589c-.219.313-.4.417-.691.068-.261-.312-.571-.583-.861-.87-.335-.332-.724-.594-.41-1.206.182-.356-.072-.745-.437-.958a.948.948,0,0,0-1.137.107.744.744,0,0,0-.157,1.027c.269.577.565,1.143.8,1.734a3.447,3.447,0,0,1-3.382,4.8" transform="translate(-223.916 -40.766)"/>
    <path id="Trazado_161913" data-name="Trazado 161913" d="M51.127,300.214a3.241,3.241,0,0,1-2.61-4.948c.287-.5.553-.58.937-.08a10.3,10.3,0,0,0,.858.875c.24.245.556.43.343.895-.109.238.119.472.377.589a.559.559,0,0,0,.632-.14c.236-.2.1-.422.007-.623-.167-.343-.359-.674-.534-1.014a3.24,3.24,0,0,1,.894-4.064,3.193,3.193,0,0,1,4.088.21,3.229,3.229,0,0,1,.567,4.057c-.251.406-.482.728-.92.145a8.881,8.881,0,0,0-.967-.981c-.223-.216-.43-.4-.275-.78.1-.252-.083-.481-.34-.61a.554.554,0,0,0-.637.1c-.283.221-.124.459-.015.684.156.32.326.634.494.949a3.216,3.216,0,0,1-2.9,4.734" transform="translate(-38.194 -231.534)"/>
    <path id="Trazado_161914" data-name="Trazado 161914" d="M206.167,239.3c-2.4,0-4.8-.01-7.2.008-.471,0-.668-.091-.674-.627-.021-2-.043-2,1.967-2,4.339,0,8.679.009,13.018-.012.545,0,.749.1.74.7-.026,1.926,0,1.926-1.957,1.926h-5.9" transform="translate(-157.736 -188.27)"/>
    <path id="Trazado_161915" data-name="Trazado 161915" d="M211.076,264.866c-1.914,0-3.828-.016-5.742.01-.5.007-.709-.079-.707-.652.008-1.972-.017-1.972,1.976-1.972,3.471,0,6.942.015,10.412-.014.586-.005.719.167.714.728-.019,1.9,0,1.9-1.906,1.9h-4.747" transform="translate(-162.776 -208.604)"/>
  </g>
</svg>
