<svg xmlns="http://www.w3.org/2000/svg" xmlns:xlink="http://www.w3.org/1999/xlink" width="190" height="104" viewBox="0 0 190 104">
  <defs>
    <clipPath id="clip-path">
      <rect id="Rect치ngulo_41182" data-name="Rect치ngulo 41182" width="84.244" height="84.157" fill="none"/>
    </clipPath>
  </defs>
  <g id="Grupo_117521" data-name="Grupo 117521" transform="translate(-285.049 -411)">
    <rect id="Rect치ngulo_41122" data-name="Rect치ngulo 41122" width="190" height="104" transform="translate(285.049 411)" fill="none"/>
    <g id="Grupo_117447" data-name="Grupo 117447" transform="translate(-3337.23 1038.209)" opacity="0.3">
      <path id="Trazado_158283" data-name="Trazado 158283" d="M3677.784-530.075h0a16.354,16.354,0,0,0,23.129,0l67.216-67.214a16.357,16.357,0,0,0,0-23.129,16.355,16.355,0,0,0-23.129,0L3677.784-553.2A16.353,16.353,0,0,0,3677.784-530.075Z" transform="translate(14.296)" fill="#fc4b52"/>
      <path id="Trazado_158284" data-name="Trazado 158284" d="M3652.069-530.075h0a16.354,16.354,0,0,0,23.129,0l67.216-67.214a16.358,16.358,0,0,0,0-23.129,16.355,16.355,0,0,0-23.129,0L3652.069-553.2A16.354,16.354,0,0,0,3652.069-530.075Z" transform="translate(0)" fill="#feca2e"/>
    </g>
    <g id="Grupo_117523" data-name="Grupo 117523" transform="translate(338.049 421)">
      <g id="Grupo_117523-2" data-name="Grupo 117523" clip-path="url(#clip-path)">
        <path id="Trazado_162801" data-name="Trazado 162801" d="M84.244,39.985v.821a1.253,1.253,0,0,0,0,.985v.657a1.253,1.253,0,0,0,0,.985v.492c-.108.1-.079.229-.085.352q0,.142,0,.283c.006.122-.023.253.085.35v.657a45,45,0,0,1-.844,5.646,38.958,38.958,0,0,1-4.709,11.4A39.386,39.386,0,0,1,62.094,77.7a38.575,38.575,0,0,1-13.208,3.747c-1.041.1-2.075.125-3.114.134a1.39,1.39,0,0,0-1.118.4,6.207,6.207,0,0,1-4.342,2.173H5.594A6.548,6.548,0,0,1,0,78.574V5.665A6.552,6.552,0,0,1,4.075.42,5.3,5.3,0,0,1,6.4.008Q23.131,0,39.864,0A6.241,6.241,0,0,1,44.4,1.986a2.149,2.149,0,0,0,1.6.667,38.242,38.242,0,0,1,24.385,9.292A39.079,39.079,0,0,1,83.127,31.907a25.244,25.244,0,0,1,1.032,6.705.518.518,0,0,0,.084.388v.492a.374.374,0,0,0,0,.493" transform="translate(0 0)"/>
        <path id="Trazado_162802" data-name="Trazado 162802" d="M383.186,194.4a.739.739,0,0,1,0-.985Z" transform="translate(-298.943 -150.965)" fill="#0e0e0e"/>
        <path id="Trazado_162803" data-name="Trazado 162803" d="M383.186,186.915a.739.739,0,0,1,0-.985Z" transform="translate(-298.943 -145.124)" fill="#0e0e0e"/>
        <path id="Trazado_162804" data-name="Trazado 162804" d="M383.231,180.437c-.2-.164-.263-.328,0-.493Z" transform="translate(-298.988 -140.452)" fill="#737373"/>
        <path id="Trazado_162805" data-name="Trazado 162805" d="M383.224,201.785q0-.163,0-.326.06-.124.138-.01v.329c-.043.069-.089.075-.139.007" transform="translate(-299.119 -157.195)" fill="#6d6d6d"/>
        <path id="Trazado_162806" data-name="Trazado 162806" d="M383.322,200.475q-.069.007-.138.01c-.027-.142-.018-.27.138-.338Z" transform="translate(-299.079 -156.221)" fill="#4e4e4e"/>
        <path id="Trazado_162807" data-name="Trazado 162807" d="M383.155,203.147l.139-.007v.328c-.207-.038-.159-.185-.139-.321" transform="translate(-299.049 -158.557)" fill="#8d8d8d"/>
        <path id="Trazado_162808" data-name="Trazado 162808" d="M47.782,84.554a1.633,1.633,0,0,1,.7-1.985c1.809-1.207,2.558-4.805,1.458-6.839-1.806-3.337-3.438-6.767-5.122-10.169a.99.99,0,0,0-1.035-.672q-11.021.038-22.043,0a.941.941,0,0,0-.99.616c-1.694,3.427-3.36,6.869-5.146,10.249-1.127,2.134-.316,5.661,1.54,6.885a1.527,1.527,0,0,1,.705,1.494c-.024,5.965,0,11.93-.03,17.894,0,.676.157.862.85.859,8.143-.026,16.285-.01,24.428-.03a1.2,1.2,0,0,1,1.221.685,14.551,14.551,0,0,0,8.054,6.637c.641.223.742.439.473,1.017a4,4,0,0,1-3.471,2.5c-.273.024-.548.022-.822.022q-15.792,0-31.584.01a4.425,4.425,0,0,1-3.493-1.314,4.123,4.123,0,0,1-1.081-2.925q0-21.547.011-43.095a3.982,3.982,0,0,1,4.277-4.177q16.08-.013,32.16,0a4.015,4.015,0,0,1,4.3,4.322c.009,4.843-.005,9.686.014,14.529,0,.516-.124.757-.649.916a14.2,14.2,0,0,0-4.724,2.564" transform="translate(-9.677 -48.562)" fill="#dff7f9"/>
        <path id="Trazado_162809" data-name="Trazado 162809" d="M53.168,303.091c0,3.906.057,7.651-.025,11.393a3.869,3.869,0,0,1-3.417,3.469,8.578,8.578,0,0,1-.985.046q-15.917,0-31.834.011a4.222,4.222,0,0,1-3.707-1.72,3.73,3.73,0,0,1-.731-2.224q-.005-5.295,0-10.59a1.976,1.976,0,0,1,.086-.342c1.957,1.526,4.228,1.338,6.47,1.336q14.478-.009,28.956.01a8.183,8.183,0,0,0,5.19-1.388" transform="translate(-9.729 -236.572)" fill="#959ea9"/>
        <path id="Trazado_162810" data-name="Trazado 162810" d="M185.472,173.32A12.212,12.212,0,1,1,173.29,161.1a12.174,12.174,0,0,1,12.182,12.216" transform="translate(-125.703 -125.748)" fill="#feca2e"/>
        <path id="Trazado_162811" data-name="Trazado 162811" d="M71.733,171.167c-1.893,0-3.727-.009-5.56.005-.571,0-.413-.393-.413-.683-.008-3.064-.043-6.128.02-9.191.018-.857-.233-1.02-1.031-1-2.136.058-4.276.041-6.413.006-.573-.009-.731.138-.725.718.03,3.118-.007,6.237.031,9.355.008.667-.2.813-.827.8-2.219-.037-4.44-.026-6.66-.005-.49,0-.716-.059-.713-.647.026-5.006.019-10.012.007-15.018,0-.413.047-.631.541-.671a5.02,5.02,0,0,0,3.205-1.493c.3-.3.447-.2.717.03a5.254,5.254,0,0,0,7.405-.016c.347-.3.487-.213.775.041a5.274,5.274,0,0,0,7.353,0c.311-.272.459-.334.779-.017a5.01,5.01,0,0,0,3.136,1.456c.443.041.65.192.575.649a1.3,1.3,0,0,0,0,.328,7.547,7.547,0,0,1-1.063,4.566,13.712,13.712,0,0,0-1.28,10.01c.054.235.088.476.142.776" transform="translate(-38.59 -119.544)" fill="#afafaf"/>
        <path id="Trazado_162812" data-name="Trazado 162812" d="M53.03,22.307A8.4,8.4,0,0,0,47.587,20.9q-14.724.041-29.449,0c-2.016,0-4.008-.016-5.837,1.414a51.549,51.549,0,0,1,.106-6.38A3.876,3.876,0,0,1,15.9,12.831c.218-.02.438-.03.657-.03q16.123,0,32.245,0a4,4,0,0,1,4.189,3.49c.07.705.035,1.421.037,2.133,0,1.23,0,2.461,0,3.88" transform="translate(-9.565 -9.989)" fill="#959ea9"/>
        <path id="Trazado_162813" data-name="Trazado 162813" d="M280.039,219.658c.977-1.712,1.855-3.307,2.6-4.97a42.81,42.81,0,0,0,3.768-15.5c.063-1.226.067-1.225,1.267-1.225,3.835,0,7.671.024,11.506-.021.764-.009.9.218.853.918a36.481,36.481,0,0,1-7.821,20.41.869.869,0,0,1-.748.4c-3.751-.011-7.5-.007-11.428-.007" transform="translate(-218.58 -154.498)" fill="#dff7f9"/>
        <path id="Trazado_162814" data-name="Trazado 162814" d="M286.96,99.158c4.046,0,7.967.007,11.888-.01a.82.82,0,0,1,.766.48,35.963,35.963,0,0,1,5.491,14.614c.153,1.082.211,2.176.334,3.263.054.474-.051.676-.6.673-4.113-.023-8.227-.031-12.34.005-.724.006-.637-.428-.656-.84a43.347,43.347,0,0,0-2.213-11.89,47.355,47.355,0,0,0-2.672-6.295" transform="translate(-223.982 -77.388)" fill="#dff7f9"/>
        <path id="Trazado_162815" data-name="Trazado 162815" d="M217.45,99.158c2.028,0,4.057.013,6.085-.01a.926.926,0,0,1,.965.546,41.63,41.63,0,0,1,4.978,17.593c.043.738-.151.948-.88.895a27.338,27.338,0,0,0-2.794-.008.9.9,0,0,1-.919-.5,14.719,14.719,0,0,0-13.836-7.631c-.487.012-.531-.153-.53-.539.009-3.255.014-6.51,0-9.765,0-.471.143-.6.606-.595,2.11.022,4.221.01,6.331.01" transform="translate(-164.312 -77.388)" fill="#dff7f9"/>
        <path id="Trazado_162816" data-name="Trazado 162816" d="M226.537,26.556a36.964,36.964,0,0,1,23.5,13.094c-.284.248-.54.15-.769.15-3.454.008-6.908,0-10.362.012a.946.946,0,0,1-.947-.461,50.336,50.336,0,0,0-11.165-12.493,3,3,0,0,1-.256-.3" transform="translate(-176.82 -20.728)" fill="#dff7f9"/>
        <path id="Trazado_162817" data-name="Trazado 162817" d="M216.423,219.654c-1.782,0-3.565-.022-5.347.013-.553.011-.717-.17-.674-.695.053-.649-.183-1.471.135-1.907.3-.414,1.169-.083,1.787-.1a14.933,14.933,0,0,0,13.985-18.19c-.158-.672-.054-.9.645-.823a11.432,11.432,0,0,0,1.233.008c1.2,0,1.222,0,1.143,1.237a41.322,41.322,0,0,1-6.56,19.947,1.022,1.022,0,0,1-1,.525c-1.782-.025-3.565-.01-5.347-.01" transform="translate(-164.198 -154.493)" fill="#dff7f9"/>
        <path id="Trazado_162818" data-name="Trazado 162818" d="M226.2,319.818a55.5,55.5,0,0,0,5.224-4.754,52.63,52.63,0,0,0,4.43-5.273c.175-.24.314-.473.694-.471,3.553.015,7.106.009,10.7.009-4.019,4.565-12.162,9.4-21.052,10.489" transform="translate(-176.558 -241.434)" fill="#dff7f9"/>
        <path id="Trazado_162819" data-name="Trazado 162819" d="M222.554,43.233c-3.982,0-7.753,0-11.525,0-.343,0-.489-.105-.487-.466q.025-5.858.034-11.716c0-.015.037-.03.136-.108a48.2,48.2,0,0,1,11.842,12.286" transform="translate(-164.335 -24.155)" fill="#dff7f9"/>
        <path id="Trazado_162820" data-name="Trazado 162820" d="M210.549,319.019c0-3.221,0-6.249-.005-9.278,0-.348.167-.4.454-.4,3.144.005,6.288,0,9.595,0a49.384,49.384,0,0,1-10.044,9.671" transform="translate(-164.336 -241.454)" fill="#dff7f9"/>
        <path id="Trazado_162821" data-name="Trazado 162821" d="M81.379,90.708c0,1.149-.019,2.3.009,3.447.011.436-.128.561-.558.553-1.315-.025-2.632-.022-3.947,0-.417.007-.53-.126-.43-.521q.907-3.572,1.795-7.15a.528.528,0,0,1,.564-.455c2.567-.218,2.566-.225,2.566,2.322v1.806" transform="translate(-59.648 -67.509)" fill="#fc4b52"/>
        <path id="Trazado_162822" data-name="Trazado 162822" d="M111.462,90.77c0-1.175.016-2.351-.009-3.526-.009-.42.1-.586.547-.562.79.044,1.73-.22,2.332.124.586.335.485,1.371.676,2.1.462,1.768.876,3.547,1.356,5.31.137.5.02.6-.465.595-1.286-.026-2.575-.03-3.861,0-.478.012-.6-.147-.585-.6.03-1.147.01-2.3.01-3.444" transform="translate(-86.991 -67.615)" fill="#a7e446"/>
        <path id="Trazado_162823" data-name="Trazado 162823" d="M41.035,94.707,42.2,92.38c.88-1.756,1.771-3.507,2.631-5.272.178-.366.37-.557.8-.521.732.062,1.747-.305,2.126.138s-.2,1.359-.365,2.063c-.433,1.8-.908,3.6-1.341,5.4-.081.335-.157.531-.562.525-1.447-.021-2.895-.008-4.452-.008" transform="translate(-32.029 -67.518)" fill="#a7e446"/>
        <path id="Trazado_162824" data-name="Trazado 162824" d="M145.181,94.76c-1.557,0-2.952-.009-4.347.006-.376,0-.57-.076-.671-.5q-.845-3.54-1.767-7.06c-.118-.45-.037-.611.422-.561a.555.555,0,0,0,.164,0c1.6-.311,2.491.313,3.115,1.855.855,2.11,2,4.1,3.083,6.257" transform="translate(-107.985 -67.572)" fill="#fc4b52"/>
        <path id="Trazado_162825" data-name="Trazado 162825" d="M98.978,202.047c0-1.147.02-2.295-.01-3.441-.012-.479.1-.659.626-.666,2.126-.031,2.125-.052,2.125,2.041,0,1.83-.015,3.66.01,5.489.007.488-.12.653-.638.66-2.115.031-2.114.05-2.114-2.035v-2.048" transform="translate(-77.248 -154.493)" fill="#a9b1bb"/>
        <path id="Trazado_162826" data-name="Trazado 162826" d="M77.089,136.35c.738,0,1.477.017,2.214-.007.421-.014.515.152.448.537a2.734,2.734,0,0,1-5.349-.03c-.085-.449.106-.51.472-.5.738.013,1.476,0,2.214,0" transform="translate(-58.058 -106.42)" fill="#fc4b52"/>
        <path id="Trazado_162827" data-name="Trazado 162827" d="M151.347,136.339c.737,0,1.476.024,2.212-.009.475-.021.56.172.48.584a2.73,2.73,0,0,1-5.34-.117c-.064-.411.111-.464.436-.461.737.007,1.475,0,2.212,0" transform="translate(-116.054 -106.409)" fill="#fc4b52"/>
        <path id="Trazado_162828" data-name="Trazado 162828" d="M114.288,136.3c.711,0,1.424.035,2.132-.011.59-.038.617.2.5.675a2.706,2.706,0,0,1-2.656,2.02,2.741,2.741,0,0,1-2.6-1.993c-.133-.522-.007-.744.581-.7.68.049,1.366.011,2.05.011" transform="translate(-87.114 -106.377)" fill="#a7e446"/>
        <path id="Trazado_162829" data-name="Trazado 162829" d="M40.014,136.321c.737,0,1.475.017,2.212-.007.406-.013.513.108.446.519a2.719,2.719,0,0,1-5.3.1c-.09-.455.012-.645.517-.618.708.037,1.42.009,2.129.009" transform="translate(-29.144 -106.394)" fill="#a7e446"/>
        <path id="Trazado_162830" data-name="Trazado 162830" d="M50.843,274.907c-1.342,0-1.342,0-1.342-1.3,0-1.437,0-1.437,1.462-1.437,1.276,0,1.276,0,1.276,1.313,0,1.425,0,1.425-1.4,1.425" transform="translate(-38.637 -212.436)" fill="#010303"/>
        <path id="Trazado_162831" data-name="Trazado 162831" d="M77,273.584c0,1.324,0,1.324-1.335,1.324-1.406,0-1.406,0-1.406-1.4,0-1.335,0-1.335,1.321-1.335,1.42,0,1.42,0,1.42,1.415" transform="translate(-57.958 -212.437)" fill="#010303"/>
        <path id="Trazado_162832" data-name="Trazado 162832" d="M100.372,274.907c-1.361,0-1.361,0-1.361-1.37s0-1.369,1.372-1.369,1.372,0,1.372,1.381c0,1.358,0,1.358-1.383,1.358" transform="translate(-77.281 -212.436)" fill="#010303"/>
        <path id="Trazado_162833" data-name="Trazado 162833" d="M126.513,273.536c0,1.37,0,1.37-1.37,1.37s-1.376,0-1.376-1.357c0-1.381,0-1.381,1.362-1.381,1.385,0,1.385,0,1.385,1.368" transform="translate(-96.604 -212.436)" fill="#010303"/>
        <path id="Trazado_162834" data-name="Trazado 162834" d="M151.275,273.536c0,1.371,0,1.371-1.369,1.371s-1.379,0-1.379-1.357c0-1.381,0-1.381,1.364-1.381,1.384,0,1.384,0,1.384,1.368" transform="translate(-115.93 -212.436)" fill="#010303"/>
        <path id="Trazado_162835" data-name="Trazado 162835" d="M81.063,329.666c-1.315,0-2.631.013-3.947,0a2.734,2.734,0,0,1-2.872-2.9c-.009-.793-.01-1.587,0-2.38a2.664,2.664,0,0,1,2.667-2.847q4.15-.1,8.3,0a2.642,2.642,0,0,1,2.628,2.721c.04.9.043,1.807,0,2.707a2.718,2.718,0,0,1-2.832,2.695c-1.315.018-2.631,0-3.947,0" transform="translate(-57.945 -250.93)"/>
        <path id="Trazado_162836" data-name="Trazado 162836" d="M200.515,190.463c.181-.739-.1-1.291-.975-1.783a4.234,4.234,0,0,1-1.774-4.312c.049-.235.142-.331.371-.328.274,0,.548,0,.822,0,1.432,0,1.439,0,1.56,1.44a1.273,1.273,0,0,0,.787,1.152,2.1,2.1,0,0,0,1.748.059c.392-.214.133-.906.132-1.384a1.178,1.178,0,0,0-.809-1.126,2.521,2.521,0,0,0-.72-.143,4.055,4.055,0,0,1-3.875-4.015c-.04-1.175.007-2.352-.018-3.528-.009-.422.112-.591.552-.567.574.031,1.151-.007,1.726.012.352.012.492-.113.48-.473-.02-.6.008-1.2-.01-1.8-.011-.348.107-.517.469-.469a.491.491,0,0,0,.082,0c2.142-.1,2.164-.1,2.13,2.077a1.187,1.187,0,0,0,.725,1.259,4.362,4.362,0,0,1,2.038,4.507c-.048.237-.139.332-.368.326s-.439,0-.658,0c-.52-.007-1.14.156-1.534-.072-.471-.271-.12-.951-.2-1.447a1.93,1.93,0,0,0-2.556-1.182c-.476.343-.021,2.237.627,2.527a2.467,2.467,0,0,0,.794.173,4.057,4.057,0,0,1,3.878,4.014c.037,1.175-.016,2.353.021,3.528.016.508-.2.594-.631.572-.519-.027-1.042.015-1.562-.013-.423-.023-.594.118-.571.557.031.573-.008,1.149.012,1.723.012.352-.112.5-.472.469-.217-.021-.438,0-.657,0-1.566,0-1.566,0-1.566-1.744" transform="translate(-154.303 -135.158)"/>
        <path id="Trazado_162837" data-name="Trazado 162837" d="M78.24,25.036c1.175,0,2.351.02,3.525-.01.475-.012.589.154.6.608.054,2.132.068,2.132-2.037,2.132-1.831,0-3.662-.011-5.492.007-.468,0-.666-.093-.675-.627-.035-2.11-.057-2.11,2.03-2.11H78.24" transform="translate(-57.878 -19.533)" fill="#010101"/>
        <path id="Trazado_162838" data-name="Trazado 162838" d="M123.766,26.351c0-1.282,0-1.282,1.28-1.282,1.468,0,1.468,0,1.468,1.428,0,.244-.018.49,0,.733.036.417-.126.608-.556.574-.243-.02-.49,0-.735,0-1.461,0-1.461,0-1.461-1.45" transform="translate(-96.603 -19.567)" fill="#020202"/>
        <path id="Trazado_162839" data-name="Trazado 162839" d="M90.6,333.83c1.123,0,2.247.019,3.369-.009.459-.011.663.048.666.6.01,2.113.036,2.113-2.107,2.113-1.753,0-3.507-.021-5.26.012-.57.011-.886-.073-.787-.739.095-.637-.285-1.495.157-1.867.374-.315,1.2-.1,1.825-.109.712-.008,1.425,0,2.137,0" transform="translate(-67.45 -260.517)" fill="#e5e8ec"/>
      </g>
    </g>
  </g>
</svg>
