<svg xmlns="http://www.w3.org/2000/svg" xmlns:xlink="http://www.w3.org/1999/xlink" width="61.415" height="63.66" viewBox="0 0 61.415 63.66">
  <defs>
    <clipPath id="clip-path">
      <rect id="Rectángulo_41137" data-name="Rectángulo 41137" width="61.415" height="63.66" fill="none"/>
    </clipPath>
  </defs>
  <g id="Grupo_117470" data-name="Grupo 117470" transform="translate(0 82.17)">
    <g id="Grupo_117469" data-name="Grupo 117469" transform="translate(0 -82.17)" clip-path="url(#clip-path)">
      <path id="Trazado_162200" data-name="Trazado 162200" d="M19.028,36.056a1.066,1.066,0,0,1-1.248.927,7.845,7.845,0,0,1-1.608-.1A2.971,2.971,0,0,1,13.956,34q-.034-1.273,0-2.547c.011-.369-.075-.509-.475-.493-.807.033-1.615.017-2.422.008a2.575,2.575,0,0,1-2.721-2.73c-.008-3.21-.015-6.42.011-9.629,0-.5-.14-.606-.612-.6-1.511.03-3.023.02-4.535.009A3.076,3.076,0,0,1,0,14.815C0,11.15,0,7.484,0,3.819,0,1.584.479.851,2.486,0h20.14A3.007,3.007,0,0,1,25.3,3.3q.01,5.685,0,11.371a3.289,3.289,0,0,1-3.576,3.55c-3.459.008-6.918,0-10.377,0-.946,0-.963.017-.964.979q0,4.194,0,8.389c0,.186,0,.372.017.559a.706.706,0,0,0,.746.742c.683.019,1.366.011,2.05,0,.362,0,.521-.179.526-.535q.013-.963,0-1.926a3.386,3.386,0,0,1,3.559-3.522c8.947.051,17.895.019,26.842.023a3.269,3.269,0,0,1,3.549,3.512c.011.58-.006,1.16.006,1.739.012.637.075.7.726.711.559.011,1.118.014,1.678,0,.72-.02.9-.2.931-.941.019-.434.006-.87.006-1.3q0-3.79,0-7.581c0-.805-.039-.839-.839-.847s-1.575.028-2.361-.017-1.131-.4-1.231-1.194a1.186,1.186,0,0,1,1.331-1.033c1.366-.032,2.732-.009,4.1-.011,1.9,0,3.807,0,5.711,0,1.282-.006,1.615-.341,1.616-1.627q.006-5.308,0-10.616c0-1.326-.326-1.655-1.648-1.657-5.67-.007-11.34,0-17.009,0a9.024,9.024,0,0,0-1.178.008,1.05,1.05,0,0,0-1.151,1.169c-.025.641-.007,1.283-.007,1.925q0,4.564,0,9.128c0,1.417.246,1.664,1.655,1.68.207,0,.414.024.621.008.84-.008,1.681-.024,2.52.008a1.162,1.162,0,0,1,1.252,1.027c-.1.8-.447,1.162-1.235,1.185-1.325.039-2.653.063-3.976,0a3.2,3.2,0,0,1-3.074-3.217q-.03-5.965,0-11.931A2.959,2.959,0,0,1,38.789,0h20.14a3.236,3.236,0,0,1,2.408,2.46,4.421,4.421,0,0,1,.074.862q.006,5.686,0,11.372a3.1,3.1,0,0,1-3.332,3.332c-1.491,0-2.983.019-4.474-.011-.436-.009-.544.1-.541.54.02,3.169.012,6.339.011,9.508a2.621,2.621,0,0,1-2.92,2.909c-.725,0-1.451.02-2.174-.007-.39-.015-.549.074-.528.5.037.744.012,1.491.01,2.237a3,3,0,0,1-3.284,3.272c-3.956.007-7.912.014-11.868-.011-.547,0-.732.124-.683.682a12.235,12.235,0,0,1,0,1.8c-.025.421.131.512.525.51,2.547-.016,5.1-.008,7.643-.008q4.785,0,9.569,0,2.986,0,2.988,2.963c0,.828.028,1.658-.011,2.485-.02.41.145.517.5.581A8.9,8.9,0,1,1,45.573,61.45a.992.992,0,0,1-.279-1.418c.408-.594.894-.669,1.513-.187a7.671,7.671,0,0,0,2.219,1.34,6.864,6.864,0,0,0,5.8-12.392,7.4,7.4,0,0,0-2.266-.817,6.906,6.906,0,0,0-7.854,5.416,6.47,6.47,0,0,0-.015,2.645c.027.121.048.244.073.365.226,1.1-.1,1.49-1.222,1.462a1.056,1.056,0,0,1-.722-.851,8.916,8.916,0,0,1,7-11c.538-.087.719-.255.685-.8-.051-.8-.01-1.615-.015-2.423,0-.743-.216-.966-.959-.969-1.657-.009-3.314,0-4.972,0-4.1,0-8.2.008-12.305-.011-.48,0-.648.109-.626.613.041.972.033,1.947,0,2.92-.012.4.089.575.511.649a8.889,8.889,0,1,1-3.043.025c.536-.085.719-.257.69-.809-.05-.951-.029-1.906-.007-2.858.009-.385-.07-.541-.507-.54-5.8.015-11.6.008-17.4.013-.736,0-.946.23-.95.979,0,.87.027,1.741-.013,2.61-.019.415.153.515.509.577a8.9,8.9,0,1,1-2.862,0c.414-.072.525-.233.51-.638-.032-.911-.019-1.823-.008-2.734a2.554,2.554,0,0,1,2.481-2.651c.206-.017.414-.011.621-.011,5.655,0,11.311-.007,16.966.011.5,0,.7-.09.658-.632a12.676,12.676,0,0,1,0-1.8c.025-.431-.108-.565-.549-.56-2.175.022-4.35.014-6.525.009-.833,0-1.037-.165-1.233-.917-.2-.517.123-.775.505-.979a2.979,2.979,0,0,1,1.459-.22H43.632c1.587,0,1.794-.2,1.8-1.782q0-3.138,0-6.276c0-1.329-.284-1.612-1.6-1.613-8.408-.006-16.817.007-25.225,0a15.042,15.042,0,0,0-1.549,0,1,1,0,0,0-1.054,1,4.187,4.187,0,0,0-.024.557q0,3.257,0,6.514a3.083,3.083,0,0,0,.064.8.958.958,0,0,0,.961.807,3.665,3.665,0,0,1,1.407.164,1.351,1.351,0,0,1,.552.467c.1.176.209.351.068.556" transform="translate(0 0)"/>
      <path id="Trazado_162201" data-name="Trazado 162201" d="M30.038,50.962l-.371-.364a1.263,1.263,0,0,1-.435-1.05q-.019-4.124,0-8.249a.869.869,0,0,1,.434-.893c.455-.007.91-.021,1.365-.022q12.086,0,24.171,0c1.217,0,1.54.325,1.541,1.551q0,3.51,0,7.022c0,1.225-.326,1.557-1.538,1.558H33.956c-.932,0-1.151.161-1.336.948L30.9,51.437a.992.992,0,0,1-.859-.474" transform="translate(-11.146 -15.403)" fill="#81ade2"/>
      <path id="Trazado_162202" data-name="Trazado 162202" d="M70.392,87.286c1.006-.046,1.3-.442,1.061-1.45a7.044,7.044,0,0,1,7.638-8.658,2.035,2.035,0,0,1,.353.1,7.151,7.151,0,0,0-4.218,5.259.689.689,0,0,1-.1.226c-.121.108-.268.068-.41.081-.77.071-1.044.645-.632,1.3.345.552.919.94,1.136,1.585a7.5,7.5,0,0,0,3.583,5.1c.137.085.314.113.4.272a6.7,6.7,0,0,1-5.5-1.6c-.663-.542-.939-.555-1.564-.056-.382-.657-.766-1.313-1.147-1.971-.144-.249-.453.02-.6-.2" transform="translate(-26.849 -29.422)" fill="#6fd6a2"/>
      <path id="Trazado_162203" data-name="Trazado 162203" d="M30.542,57.485l.859.474-.725.023c-.044-.166-.089-.332-.134-.5" transform="translate(-11.649 -21.926)" fill="#5691d8"/>
      <path id="Trazado_162204" data-name="Trazado 162204" d="M71.436,18.224H68.993a1.058,1.058,0,0,0-1.234-.919c-.8.024-1.6-.006-2.395-.012a.857.857,0,0,1-.515-.719,3.467,3.467,0,0,1-.049-.679q0-5.731,0-11.463c0-.527-.052-1.1.56-1.4L78.4,3.014q2.2,0,4.409,0c.993,0,1.447.45,1.449,1.438q.007,5.713,0,11.426c0,.98-.461,1.43-1.457,1.431q-5.092.006-10.184,0a1.033,1.033,0,0,0-1.184.918" transform="translate(-24.715 -1.149)" fill="#fd646f"/>
      <path id="Trazado_162205" data-name="Trazado 162205" d="M6.677,3.034q5.936-.01,11.871-.02,2.8,0,5.594,0c1.012,0,1.448.427,1.449,1.428q.007,5.718,0,11.438c0,.92-.426,1.424-1.264,1.425q-8.826.006-17.652-.014c-.52-.288-.54-.8-.556-1.3-.032-.951-.011-1.9-.011-2.854,0-2.875-.009-5.75.006-8.624,0-.551-.022-1.139.561-1.482" transform="translate(-2.328 -1.149)" fill="#fee077"/>
      <path id="Trazado_162206" data-name="Trazado 162206" d="M48.707,77.327a6.911,6.911,0,0,1,5.64,5.025,7.051,7.051,0,0,1-5.316,8.763,4.705,4.705,0,0,1-.555.051.915.915,0,0,1-.813-.19,7.939,7.939,0,0,1-3.372-4.666c-.058-.194-.13-.409.116-.546.3.038.448.278.613.484q.56.7,1.123,1.4c.76.944,1.265.933,1.89-.095,1.105-1.819,2.24-3.621,3.328-5.45.148-.249.323-.481.455-.739a.8.8,0,0,0-.187-1.106.744.744,0,0,0-1.077.26,15.878,15.878,0,0,0-1.037,1.617c-.628,1.045-1.276,2.078-1.907,3.121-.533.88-.679.882-1.3.095-.681-.857-1.378-1.7-2.051-2.564a2.05,2.05,0,0,1,.25-1.256,7.746,7.746,0,0,1,2.925-3.914,1.466,1.466,0,0,1,1.278-.293" transform="translate(-16.865 -29.476)" fill="#9ae59c"/>
      <path id="Trazado_162207" data-name="Trazado 162207" d="M15.182,77.321a6.914,6.914,0,0,1,5.585,4.753,7.052,7.052,0,0,1-5.231,9.039,3.923,3.923,0,0,1-.492.041.952.952,0,0,1-.929-.192,8.073,8.073,0,0,1-3.238-4.414c-.064-.232-.166-.488.123-.663.361.069.537.367.742.618.366.448.721.906,1.088,1.354.567.693,1.1.677,1.57-.092.974-1.586,1.963-3.163,2.916-4.762.307-.515.65-1.01.943-1.533s.245-.943-.149-1.205-.8-.148-1.145.374c-1,1.5-1.88,3.068-2.841,4.589-.1.157-.191.319-.3.469-.231.311-.466.3-.708.015q-1.215-1.447-2.381-2.934a6.687,6.687,0,0,1,1.419-3.437,8.874,8.874,0,0,1,1.707-1.691,1.45,1.45,0,0,1,1.324-.331" transform="translate(-4.093 -29.474)" fill="#9ae59c"/>
      <path id="Trazado_162208" data-name="Trazado 162208" d="M82.089,91.187a4.489,4.489,0,0,1-2.228-1.556A7.992,7.992,0,0,1,78,86.212a1.886,1.886,0,0,1-.019-.428c.3-.009.427.22.581.408.431.53.834,1.082,1.288,1.59.721.806,1.156.772,1.732-.139.851-1.345,1.663-2.715,2.5-4.071.379-.617.776-1.222,1.133-1.852.061-.108.135-.209.186-.322a.832.832,0,0,0-.242-1.15c-.39-.218-.785-.093-1.094.388-.625.975-1.221,1.968-1.825,2.956-.432.705-.874,1.4-1.3,2.111-.189.311-.407.411-.678.088-.784-.933-1.567-1.868-2.3-2.842-.022-.03-.009-.077.011-.117a6.72,6.72,0,0,1,1.764-3.794,8.006,8.006,0,0,1,1.309-1.219,1.747,1.747,0,0,1,1.289-.465,6.93,6.93,0,0,1,5.653,5.17,7.059,7.059,0,0,1-5.393,8.622,4.215,4.215,0,0,1-.494.039" transform="translate(-29.728 -29.501)" fill="#9ae59c"/>
      <path id="Trazado_162209" data-name="Trazado 162209" d="M42.162,85.733a4.147,4.147,0,0,0,.722,2.231,7.372,7.372,0,0,0,2.806,2.965,1.37,1.37,0,0,0,.517.176,6.67,6.67,0,0,1-6.123-2.242A6.966,6.966,0,0,1,39.078,80.9a7.088,7.088,0,0,1,7.131-3.718,1.126,1.126,0,0,1,.229.085,2.2,2.2,0,0,0-1.629.767,7.535,7.535,0,0,0-2.738,4.7c-.07.094-.173.085-.275.1-.852.106-1.114.68-.628,1.366.26.367.571.7.831,1.065.1.137.289.252.163.47" transform="translate(-14.596 -29.416)" fill="#6fd6a2"/>
      <path id="Trazado_162210" data-name="Trazado 162210" d="M12.906,77.265c-1.147.018-1.778.89-2.459,1.589a7.381,7.381,0,0,0-1.914,3.873c-1.3.379-1.4.773-.573,1.887.293.392.776.674.8,1.244a2.752,2.752,0,0,0,.53,1.953,8.06,8.06,0,0,0,2.74,3.038,1.212,1.212,0,0,0,.742.249,6.5,6.5,0,0,1-5.189-1.316A6.993,6.993,0,0,1,5.293,81.5a7.083,7.083,0,0,1,7.384-4.32,1.048,1.048,0,0,1,.229.084" transform="translate(-1.817 -29.418)" fill="#6fd6a2"/>
      <path id="Trazado_162211" data-name="Trazado 162211" d="M64.172,3.035A1.765,1.765,0,0,0,63.8,4.184q.007,5.98,0,11.961a1.771,1.771,0,0,0,.372,1.149c-.413.006-.828.029-1.24.015a1.175,1.175,0,0,1-1.253-1.245q-.016-5.9,0-11.8A1.172,1.172,0,0,1,62.931,3.02c.413-.013.827.009,1.241.015" transform="translate(-23.522 -1.15)" fill="#fc4755"/>
      <path id="Trazado_162212" data-name="Trazado 162212" d="M5.5,3.036a2.8,2.8,0,0,0-.377,1.478q.019,5.651,0,11.3A2.813,2.813,0,0,0,5.5,17.293c-.393.006-.786.027-1.179.016a1.219,1.219,0,0,1-1.3-1.337q-.011-5.81,0-11.619a1.214,1.214,0,0,1,1.3-1.334c.393-.01.786.01,1.179.017" transform="translate(-1.15 -1.151)" fill="#fed05b"/>
      <path id="Trazado_162213" data-name="Trazado 162213" d="M28.27,40.406a1.763,1.763,0,0,0-.256,1c.009,2.687.015,5.374-.007,8.06a5.342,5.342,0,0,0,.262,1.132,7.334,7.334,0,0,0-1.482-.091,1.093,1.093,0,0,1-1.219-1.18q-.026-3.879,0-7.757a1.089,1.089,0,0,1,1.213-1.183c.5-.008.992.011,1.488.019" transform="translate(-9.748 -15.404)" fill="#528ed7"/>
      <path id="Trazado_162214" data-name="Trazado 162214" d="M45.43,49.295a.965.965,0,0,1-.961.941.924.924,0,0,1-.89-.933.892.892,0,0,1,.943-.927.934.934,0,0,1,.907.919" transform="translate(-16.622 -18.451)" fill="#010102"/>
      <path id="Trazado_162215" data-name="Trazado 162215" d="M49.02,50.239a.953.953,0,0,1-.885-1.009.906.906,0,0,1,.962-.851.888.888,0,0,1,.875.99.929.929,0,0,1-.952.869" transform="translate(-18.359 -18.453)" fill="#010102"/>
      <path id="Trazado_162216" data-name="Trazado 162216" d="M53.672,48.38a.885.885,0,0,1,.89.917.928.928,0,0,1-.943.945.975.975,0,0,1-.907-.937.931.931,0,0,1,.961-.925" transform="translate(-20.105 -18.453)" fill="#010102"/>
      <path id="Trazado_162217" data-name="Trazado 162217" d="M77.131,84.445a28.559,28.559,0,0,1,2.177,2.625c.337.426.486.529.809-.028.935-1.61,1.929-3.184,2.9-4.77.419-.682.907-.864,1.423-.546s.571.855.167,1.517q-1.891,3.1-3.791,6.191c-.576.937-1.188.967-1.9.111q-.888-1.075-1.778-2.148c-.34-.439-.671-.885-1.022-1.315a1,1,0,0,1-.2-1.293.965.965,0,0,1,1.206-.344" transform="translate(-28.897 -31.114)"/>
      <path id="Trazado_162218" data-name="Trazado 162218" d="M72.956,7.65a1.181,1.181,0,0,1,.833.428c.731.734,1.477,1.452,2.19,2.2.266.28.422.277.687,0,.713-.75,1.454-1.475,2.191-2.2.527-.52,1.044-.565,1.465-.145.406.405.356.951-.154,1.469-.741.752-1.484,1.5-2.244,2.236-.238.229-.225.367,0,.588.759.734,1.5,1.485,2.244,2.237.507.514.554,1.066.145,1.469-.424.417-.935.37-1.467-.155-.752-.742-1.5-1.484-2.236-2.245-.228-.237-.362-.231-.589,0-.732.76-1.485,1.5-2.237,2.243-.532.523-1.045.567-1.465.148s-.355-.951.158-1.471c.742-.751,1.484-1.5,2.245-2.236.233-.225.232-.354,0-.579-.8-.778-1.588-1.575-2.374-2.37a.912.912,0,0,1-.2-1.085.9.9,0,0,1,.81-.537" transform="translate(-27.481 -2.918)"/>
      <path id="Trazado_162219" data-name="Trazado 162219" d="M15.244,9.136H8.417a4.192,4.192,0,0,1-.558-.015.865.865,0,0,1-.814-.864.848.848,0,0,1,.663-.925,1.968,1.968,0,0,1,.551-.058q7.012,0,14.024,0a2.586,2.586,0,0,1,.31.007.917.917,0,0,1,.874.945.883.883,0,0,1-.9.9c-.35.022-.7.009-1.055.01H15.244" transform="translate(-2.686 -2.773)"/>
      <path id="Trazado_162220" data-name="Trazado 162220" d="M13.124,15.949c-1.655,0-3.31,0-4.965,0-.713,0-1.138-.369-1.126-.946.012-.555.424-.914,1.1-.915q5.027-.007,10.054,0c.669,0,1.094.374,1.1.923.007.577-.419.936-1.139.938-1.675.006-3.351,0-5.027,0" transform="translate(-2.683 -5.371)"/>
      <path id="Trazado_162221" data-name="Trazado 162221" d="M43.683,87.43c-.364-.465-.718-.939-1.094-1.394a.959.959,0,0,1,1-1.6,28.481,28.481,0,0,1,2.12,2.509c.174.2.34.409.541.651,1.089-1.775,2.144-3.5,3.2-5.224a2.548,2.548,0,0,1,.4-.545.828.828,0,0,1,1.085-.09.848.848,0,0,1,.38,1.073,2.414,2.414,0,0,1-.225.439q-1.893,3.1-3.791,6.191c-.576.935-1.191.964-1.9.105L43.683,87.43" transform="translate(-16.117 -31.113)"/>
      <path id="Trazado_162222" data-name="Trazado 162222" d="M10.281,87.555c-.4-.5-.78-1.012-1.188-1.5a1,1,0,0,1-.208-1.2.934.934,0,0,1,1.174-.431,25.922,25.922,0,0,1,2.216,2.59c.15.169.286.351.473.583.518-.841,1.015-1.644,1.509-2.448.617-1,1.225-2.015,1.851-3.014a.934.934,0,1,1,1.574.979q-1.966,3.235-3.955,6.456a.947.947,0,0,1-1.712.1c-.583-.7-1.156-1.407-1.733-2.111" transform="translate(-3.343 -31.115)"/>
    </g>
  </g>
</svg>
