<svg id="Grupo_117466" data-name="Grupo 117466" xmlns="http://www.w3.org/2000/svg" xmlns:xlink="http://www.w3.org/1999/xlink" width="63.66" height="63.606" viewBox="0 0 63.66 63.606">
  <defs>
    <clipPath id="clip-path">
      <rect id="Rectángulo_41135" data-name="Rectángulo 41135" width="63.66" height="63.606" fill="none"/>
    </clipPath>
  </defs>
  <g id="Grupo_117465" data-name="Grupo 117465" clip-path="url(#clip-path)">
    <path id="Trazado_162127" data-name="Trazado 162127" d="M63.66,42.44V43.8a3.9,3.9,0,0,1-3.281,3.416,1.073,1.073,0,0,0-.949.888,6.813,6.813,0,0,1-1.471,2.771c-.472.579-.484.611.063,1.111a11.191,11.191,0,0,1,3.612,6.693,28.224,28.224,0,0,1,.079,4.4c0,.381-.2.569-.594.518a2.467,2.467,0,0,0-.31,0H2.821c-.839,0-.9-.034-.886-.853a19.321,19.321,0,0,1,.294-5.058,11.044,11.044,0,0,1,.982-2.539c.253-.434.167-.686-.239-.966A7.568,7.568,0,0,1,.552,51.4a4.594,4.594,0,0,1-.488-2.029c-.03-.24.067-.492-.064-.723v-13.4c.131-.231.033-.483.064-.723a7.751,7.751,0,0,1,2.094-4.844,4.691,4.691,0,0,1,1.022-.99,1.693,1.693,0,0,0,.747-1.637Q3.9,15.031,3.915,3.013c0-.247,0-.5,0-.743A2.04,2.04,0,0,1,5.719,0H57.94c1.338.328,1.806.944,1.807,2.455q.011,9.582,0,19.164c0,1.344,0,2.688,0,4.031,0,.788.049.826.856.835.311,0,.621-.005.932,0a1.964,1.964,0,0,1,2.119,1.678V38.717a.161.161,0,0,0,0,.248v.745a6.8,6.8,0,0,0,0,2.73"/>
    <path id="Trazado_162128" data-name="Trazado 162128" d="M0,93a.785.785,0,0,0,.11-.018.641.641,0,0,1-.11.638Z" transform="translate(0 -58.383)" fill="#525252"/>
    <path id="Trazado_162129" data-name="Trazado 162129" d="M.11,131.354a.732.732,0,0,0-.11-.018v-.621a.685.685,0,0,1,.11.638" transform="translate(0 -82.071)" fill="#545454"/>
    <path id="Trazado_162130" data-name="Trazado 162130" d="M170.882,104.287c-.16-.083-.128-.166,0-.248Z" transform="translate(-107.222 -65.322)" fill="#484848"/>
    <path id="Trazado_162131" data-name="Trazado 162131" d="M42.209,27.545q12.464,0,24.927-.013c.57,0,.763.092.76.72q-.046,7.506-.006,15.014c0,.522-.092.7-.668.694-2.714-.036-5.429-.009-8.143-.019a12.187,12.187,0,0,0-3.145.3c-.317.083-.391,0-.388-.307.014-1.137-.013-2.275.016-3.412.01-.39-.118-.559-.493-.6a2.437,2.437,0,0,1-1.643-3.98c.271-.346.166-.54-.113-.811-1.115-1.08-2.219-2.173-3.294-3.292a.554.554,0,0,0-.864-.1,2.389,2.389,0,0,1-3.091-.041,2.526,2.526,0,0,1-.866-1.663c-.05-.344-.188-.473-.561-.467q-2.424.035-4.848,0c-.374-.006-.517.124-.558.469a2.451,2.451,0,0,1-4.014,1.671c-.3-.237-.5-.189-.764.087-1.095,1.13-2.2,2.247-3.342,3.333-.331.316-.31.515-.08.868a2.421,2.421,0,0,1-.373,3.388,2.862,2.862,0,0,1-1.364.553c-.325.052-.435.187-.428.524.023,1.033,0,2.068.015,3.1.006.326-.089.411-.421.409-2.859-.02-5.719-.015-8.578-.028a8.6,8.6,0,0,0-2.876.395c-.418.144-.466,0-.466-.378q.015-7.942,0-15.883c0-.447.132-.542.557-.54,3.584.017,7.169.01,10.754.01H42.209" transform="translate(-10.384 -17.286)" fill="#e5e8ec"/>
    <path id="Trazado_162132" data-name="Trazado 162132" d="M42.277,5.51q12.431,0,24.863-.015c.6,0,.764.148.748.748-.045,1.612-.027,3.226-.007,4.838,0,.4-.057.574-.526.573q-16.938-.02-33.875,0c-.424,0-.515-.137-.505-.527.024-1.033-.009-2.068.017-3.1.009-.381-.1-.49-.486-.489q-6.712.019-13.426,0c-.439,0-.5.16-.494.535.021,1.054,0,2.109.015,3.164.006.326-.093.411-.419.421-1.63.048-1.63.06-1.63-1.57,0-1.3.031-2.607-.014-3.908-.019-.559.153-.679.691-.678q12.089.027,24.179.012h.87" transform="translate(-10.382 -3.451)" fill="#ee7384"/>
    <path id="Trazado_162133" data-name="Trazado 162133" d="M5.554,90.256c0-2.066-.046-4.135.01-6.2a7.055,7.055,0,0,1,6.891-7c2.916-.1,5.839-.045,8.759-.009A6.888,6.888,0,0,1,24.679,78.1c.33.2.384.337.1.644a10.777,10.777,0,0,0-2.73,5.992c-.052.4-.192.5-.573.5-1.221-.022-2.444,0-3.665-.012a4,4,0,0,1-4.022-3.632c-.045-.391-.2-.486-.549-.463a5.328,5.328,0,0,1-.931,0c-.529-.059-.727.13-.594.658a10.057,10.057,0,0,0,.223,1.026c.145.394,0,.469-.359.55a5.079,5.079,0,0,0-4,4.956c-.016,2.046-.011,4.092,0,6.138a6.981,6.981,0,0,0,2.027,4.977c.286.3.393.479-.015.736a1.933,1.933,0,0,0-.541.507c-.358.509-.716.469-1.19.137a5.009,5.009,0,0,1-2.316-4.285c-.006-2.087,0-4.175,0-6.262h.006" transform="translate(-3.476 -48.346)" fill="#b17946"/>
    <path id="Trazado_162134" data-name="Trazado 162134" d="M66.185,105.288c0-1.013-.013-2.025,0-3.037a3.126,3.126,0,0,1,3.2-3.166.907.907,0,0,1,.71.286,6.148,6.148,0,0,0,4.483,1.79c1.573,0,3.147,0,4.72,0,.914,0,1.273.361,1.276,1.278.005,1.922.015,3.843,0,5.765a5.126,5.126,0,0,1-5.208,5.241,30.618,30.618,0,0,1-4.836-.086,5.055,5.055,0,0,1-4.338-4.973c-.027-1.032,0-2.066,0-3.1Z" transform="translate(-41.551 -62.211)" fill="#f4dfcc"/>
    <path id="Trazado_162135" data-name="Trazado 162135" d="M77.588,87.637a4.306,4.306,0,0,0-1.825-.463c-.264.01-.335-.159-.438-.351A3.1,3.1,0,0,0,72.393,85.1c-1.574,0-3.147,0-4.721,0a4.034,4.034,0,0,1-4.286-3.627c-.067-.423-.228-.5-.588-.472-.246.021-.5,0-.745,0-.814,0-.824,0-.707.828.057.4.338.9.185,1.174s-.728.275-1.105.429a5,5,0,0,0-3.02,3.314c-.093.3-.2.45-.533.444a4.4,4.4,0,0,0-1.6.437,9.066,9.066,0,0,1,7.6-10.6,25.669,25.669,0,0,1,7.55.09,9.035,9.035,0,0,1,7.164,10.518" transform="translate(-34.595 -48.216)" fill="#fbd670"/>
    <path id="Trazado_162136" data-name="Trazado 162136" d="M23.36,113.442a17.682,17.682,0,0,1-2.64-.094,5.014,5.014,0,0,1-4.136-4.63c-.079-2.23-.07-4.465-.016-6.7a3.059,3.059,0,0,1,3.27-2.945.809.809,0,0,1,.59.271,6.192,6.192,0,0,0,4.54,1.809c1.119,0,2.238.029,3.355-.014.49-.019.639.147.649.6a11.029,11.029,0,0,1-.016,2.811,3.722,3.722,0,0,0,1.543,3.924.663.663,0,0,1,.3.766,5.123,5.123,0,0,1-4.8,4.19c-.765.033-1.532.005-2.634.005" transform="translate(-10.375 -62.205)" fill="#efcfb3"/>
    <path id="Trazado_162137" data-name="Trazado 162137" d="M130.375,105.551c0,.95.03,1.9-.006,2.851a4.949,4.949,0,0,1-4.454,4.974,21.962,21.962,0,0,1-5.757-.041,5.019,5.019,0,0,1-4.059-4.229.467.467,0,0,1,.2-.515,3.99,3.99,0,0,0,1.512-4.711,3.848,3.848,0,0,1,.113-1.59,17.666,17.666,0,0,0,.106-2.535c-.016-.37.107-.5.454-.573a12.515,12.515,0,0,1,1.981-.088c.234-.01.313.164.421.311a4.15,4.15,0,0,0,3.573,1.762q2.267-.007,4.533,0c1.085,0,1.382.3,1.385,1.409,0,.992,0,1.983,0,2.975h-.007" transform="translate(-72.888 -62.217)" fill="#efcfb3"/>
    <path id="Trazado_162138" data-name="Trazado 162138" d="M133.467,87.788a4.955,4.955,0,0,0-1.92-.457c-.247.009-.281-.208-.365-.364a3.091,3.091,0,0,0-2.883-1.708c-1.615-.014-3.23,0-4.845-.005a2.03,2.03,0,0,1-.554-4.015c.361-.092.473-.249.431-.591a4.637,4.637,0,0,1,0-.557c0-1.1,0-1.1-1.054-.822a4.056,4.056,0,0,0-3.019,3.476c-.043.418-.178.526-.56.5a2.513,2.513,0,0,0-.988.023c-.847.3-1.022-.188-1.217-.836a9.173,9.173,0,0,0-1.676-3.086c-.249-.309-.216-.445.095-.657a8.7,8.7,0,0,1,4.88-1.6c4.431-.04,8.862-.017,13.293-.027.313,0,.5.04.5.427-.027,3.368-.038,6.736-.056,10.105a.936.936,0,0,1-.055.2" transform="translate(-71.982 -48.38)" fill="#b17946"/>
    <path id="Trazado_162139" data-name="Trazado 162139" d="M55.112,49.885a.917.917,0,0,0,0-.124,1.649,1.649,0,0,1,.879-1.843,4.208,4.208,0,0,0,1.653-4.7.687.687,0,0,1,.232-.859,1,1,0,0,0,.176-.175,2.474,2.474,0,0,1,2.633-1.07A3.978,3.978,0,0,0,64.9,38.881c.157-.268.31-.409.621-.372a2.07,2.07,0,0,0,.5,0,2.292,2.292,0,0,1,2.449,1.072,4.02,4.02,0,0,0,4.557,1.432.662.662,0,0,1,.8.214,2.538,2.538,0,0,0,.4.393,2.143,2.143,0,0,1,.867,2.349,4,4,0,0,0,2.168,4.249.79.79,0,0,1,.47.818c-.033.846-.022,1.7,0,2.542a.58.58,0,0,1-.343.582c-.585.345-1.139,1-1.72,1.02-.547.015-1.087-.682-1.675-.972-.52-.256-.644-.5-.536-1.114A7.158,7.158,0,0,0,63.1,43.443a6.918,6.918,0,0,0-3.863,6.52,9.2,9.2,0,0,0,.177,1.349,2.553,2.553,0,0,1,.071.364c0,.3-1.654,1.153-1.9.975a8.807,8.807,0,0,0-2.165-1.19A.4.4,0,0,1,55.107,51c.019-.371,0-.744,0-1.116" transform="translate(-34.585 -24.158)" fill="#fbd670"/>
    <path id="Trazado_162140" data-name="Trazado 162140" d="M64.247,143.058l.881,5.253c.67-.668,1.281-1.293,1.913-1.9.146-.14.258-.474.5-.341.295.159.148.458.061.717-.463,1.364-.927,2.729-1.362,4.1a.493.493,0,0,1-.563.416c-1.531-.015-3.062-.008-4.592-.006-.214,0-.387.02-.405-.3a9.228,9.228,0,0,1,3.565-7.942" transform="translate(-38.09 -89.82)" fill="#e5e8ec"/>
    <path id="Trazado_162141" data-name="Trazado 162141" d="M94.028,148.47l.873-5.2c.2-.046.269.077.355.152a9.276,9.276,0,0,1,3.224,7.65c-.009.259-.072.362-.349.36q-2.358-.016-4.716,0a.427.427,0,0,1-.475-.362c-.464-1.429-.951-2.851-1.432-4.274-.077-.228-.127-.479.114-.605.208-.109.3.15.419.265.641.635,1.269,1.284,1.988,2.016" transform="translate(-57.414 -89.947)" fill="#e5e8ec"/>
    <path id="Trazado_162142" data-name="Trazado 162142" d="M143.692,148.3l.9-5.3a8.764,8.764,0,0,1,2.247,2.526,9.573,9.573,0,0,1,1.326,5.391c-.008.27-.092.352-.357.35-1.573-.009-3.147-.012-4.72,0a.434.434,0,0,1-.481-.36c-.474-1.45-.949-2.9-1.444-4.341-.081-.236-.062-.429.123-.541s.277.123.382.227c.646.639,1.281,1.288,2.03,2.046" transform="translate(-88.598 -89.786)" fill="#fee9a6"/>
    <path id="Trazado_162143" data-name="Trazado 162143" d="M15.143,141.943a11.865,11.865,0,0,0,2.442,8.517c-.119.2-.281.133-.409.133-1.885.005-3.769,0-5.654,0-.268,0-.512.055-.523-.382a9.311,9.311,0,0,1,3.716-7.991c.094-.074.2-.132.428-.281" transform="translate(-6.903 -89.12)" fill="#ee7384"/>
    <path id="Trazado_162144" data-name="Trazado 162144" d="M79.8,61.23c.313-1.714-.106-2.882-1.3-3.63a3.082,3.082,0,0,0-4.552,3.615c-.582.1-1.164.192-1.743.3-.471.085-.368-.317-.4-.52a5.13,5.13,0,1,1,10.152-.1c-.058.455-.15.774-.757.566a7.982,7.982,0,0,0-1.4-.226" transform="translate(-45.04 -34.58)" fill="#fee9a6"/>
    <path id="Trazado_162145" data-name="Trazado 162145" d="M115.939,142.945l.9,5.311c.707-.712,1.345-1.363,2-2,.118-.116.218-.384.427-.257s.174.368.091.61c-.481,1.4-.952,2.807-1.4,4.219a.5.5,0,0,1-.571.41c-.848-.021-1.7-.017-2.544,0-.285.005-.4-.06-.395-.375a11.584,11.584,0,0,0-.824-4.84.487.487,0,0,1,.06-.466,9.046,9.046,0,0,1,2.267-2.608" transform="translate(-71.31 -89.75)" fill="#fee9a6"/>
    <path id="Trazado_162146" data-name="Trazado 162146" d="M45.306,141.925a9.555,9.555,0,0,1,2.8,2.932.644.644,0,0,1,.045.637,11.209,11.209,0,0,0-.776,4.547c.015.43-.106.565-.547.555-1.3-.029-2.606-.01-4.081-.01a12.075,12.075,0,0,0,2.561-8.66" transform="translate(-26.838 -89.109)" fill="#ee7384"/>
    <path id="Trazado_162147" data-name="Trazado 162147" d="M103.85,131.021a8.268,8.268,0,0,0,2.474-4.309c.093.348.178.7.279,1.043a6.933,6.933,0,0,0,1.8,2.982c.167.167.362.288.059.514a10.837,10.837,0,0,0-2.192,2.3,13.426,13.426,0,0,0-2.416-2.527" transform="translate(-65.203 -79.557)" fill="#fefefe"/>
    <path id="Trazado_162148" data-name="Trazado 162148" d="M56.752,133.349a11.173,11.173,0,0,0-2.134-2.267c-.162-.127-.342-.222-.087-.463a7.18,7.18,0,0,0,2.116-3.962,1.559,1.559,0,0,1,.146-.268,7.416,7.416,0,0,0,2.381,4.425,13.563,13.563,0,0,0-2.421,2.535" transform="translate(-34.158 -79.354)" fill="#fefefe"/>
    <path id="Trazado_162149" data-name="Trazado 162149" d="M30.626,142.979c.891,0,1.782.016,2.672-.009.3-.008.379.053.393.359.079,1.748.088,1.747-1.668,1.747-1.305,0-2.611-.012-3.916.007-.367.005-.581-.041-.556-.482.03-.515-.186-1.16.054-1.513s.918-.037,1.406-.068c.537-.035,1.077-.008,1.616-.008v-.032" transform="translate(-17.26 -89.734)" fill="#e5e7eb"/>
    <path id="Trazado_162150" data-name="Trazado 162150" d="M31.694,154.182c.7,0,1.407.011,2.11,0,.375-.008.417.126.282.443a9.666,9.666,0,0,1-2.108,3.105c-.17.168-.284.237-.495.032a9.608,9.608,0,0,1-2.179-3.2c-.133-.315-.034-.386.279-.379.7.017,1.407.006,2.11.006" transform="translate(-18.363 -96.801)" fill="#ed7284"/>
    <path id="Trazado_162151" data-name="Trazado 162151" d="M82.8,158.282c-.428-.062-1.139.237-1.42-.135-.182-.24.23-.935.389-1.422.236-.725.49-1.444.721-2.17.069-.216.138-.372.407-.372s.337.157.407.372c.363,1.117.728,2.233,1.119,3.34.115.327.022.4-.285.39-.413-.013-.827,0-1.337,0" transform="translate(-51.066 -96.805)" fill="#ee7284"/>
    <path id="Trazado_162152" data-name="Trazado 162152" d="M132.469,158.278c-.417-.049-1.151.231-1.382-.1-.258-.37.207-.976.361-1.477.212-.687.446-1.367.677-2.048.076-.224.1-.485.457-.475.321.009.344.233.415.444.352,1.052.69,2.109,1.066,3.153.153.426.041.542-.386.51-.369-.028-.742-.006-1.207-.006" transform="translate(-82.256 -96.801)" fill="#ee7284"/>
    <path id="Trazado_162153" data-name="Trazado 162153" d="M57.235,112.206c0,.556-.018,1.112.007,1.666.016.355-.131.416-.441.366a2.048,2.048,0,0,1,.086-4.029c.308-.041.353.08.35.33-.007.556,0,1.111,0,1.667" transform="translate(-34.636 -69.191)" fill="#f2decb"/>
    <path id="Trazado_162154" data-name="Trazado 162154" d="M110.317,112.225c0-.556.01-1.111,0-1.666-.007-.3.075-.393.4-.335a2.048,2.048,0,0,1,.116,4c-.344.078-.546.041-.517-.4.034-.533.008-1.069.008-1.6" transform="translate(-69.257 -69.195)" fill="#f2decb"/>
    <path id="Trazado_162155" data-name="Trazado 162155" d="M162.058,112.231a2.053,2.053,0,0,1-1.609,2c-.283.05-.452.041-.443-.343.027-1.112.024-2.225,0-3.337-.008-.379.136-.384.438-.32a2.037,2.037,0,0,1,1.613,2" transform="translate(-100.461 -69.193)" fill="#f4dfcc"/>
    <path id="Trazado_162156" data-name="Trazado 162156" d="M51.726,17.516c0,1.058,0,1.058-1.053,1.058-.983,0-.983,0-.983-1.008,0-1.035,0-1.035,1.027-1.035,1.009,0,1.009,0,1.009.985" transform="translate(-31.198 -10.379)" fill="#cbd0d8"/>
    <path id="Trazado_162157" data-name="Trazado 162157" d="M38.652,17.564c0-1.033,0-1.033,1.032-1.033,1.006,0,1.006,0,1.006.988,0,1.055,0,1.055-1.056,1.055-.981,0-.981,0-.981-1.01" transform="translate(-24.268 -10.379)" fill="#cbd0d8"/>
    <path id="Trazado_162158" data-name="Trazado 162158" d="M28.6,18.573c-.984,0-.984,0-.984-1.008,0-1.035,0-1.035,1.033-1.035,1.007,0,1.007,0,1.007.987,0,1.056,0,1.056-1.056,1.056" transform="translate(-17.336 -10.379)" fill="#cbd0d8"/>
    <path id="Trazado_162159" data-name="Trazado 162159" d="M84.836,67.085A1.012,1.012,0,1,1,83.8,66.079a1.026,1.026,0,0,1,1.033,1.007" transform="translate(-51.995 -41.488)" fill="#fcfcfc"/>
    <path id="Trazado_162160" data-name="Trazado 162160" d="M84.023,146.072c-.5.141-.656-.286-.838-.648-.048-.1.73-.908.854-.918a3.112,3.112,0,0,1,.9.886c.02.292-.469.678-.915.68" transform="translate(-52.227 -90.729)" fill="#ea7182"/>
    <path id="Trazado_162161" data-name="Trazado 162161" d="M133.68,146.055c-.5.14-.655-.292-.854-.645a3.954,3.954,0,0,1,.856-.93,4.109,4.109,0,0,1,.914.891c.028.278-.483.683-.916.685" transform="translate(-83.395 -90.713)" fill="#ec7283"/>
    <path id="Trazado_162162" data-name="Trazado 162162" d="M126.663,143.044l-.9.792c-.3-.928-.3-.928.9-.792" transform="translate(-78.862 -89.771)" fill="#edd99b"/>
    <path id="Trazado_162163" data-name="Trazado 162163" d="M76.93,143.024l-.769.868c-.241-1.054-.241-1.054.769-.868" transform="translate(-47.735 -89.74)" fill="#d5d8db"/>
    <path id="Trazado_162164" data-name="Trazado 162164" d="M93.292,143.905l-.809-.867c1.068-.17,1.068-.17.809.867" transform="translate(-58.066 -89.755)" fill="#d5d8db"/>
    <path id="Trazado_162165" data-name="Trazado 162165" d="M141.9,143.052c1.231-.133,1.231-.133.887.829-.216-.044-.31-.242-.454-.371s-.246-.259-.432-.458" transform="translate(-89.095 -89.777)" fill="#f5e1a0"/>
    <path id="Trazado_162166" data-name="Trazado 162166" d="M126.476,46.094c-1.513,0-3.025-.017-4.538.01-.448.008-.608-.086-.6-.572.019-1.505,0-1.506,1.512-1.506,2.756,0,5.512.007,8.267-.008.388,0,.528.075.527.5,0,1.576.015,1.576-1.563,1.576Z" transform="translate(-76.182 -27.638)" fill="#010101"/>
    <path id="Trazado_162167" data-name="Trazado 162167" d="M126.537,35.077c-1.554,0-3.108-.012-4.661.008-.394.005-.534-.086-.536-.511-.007-1.563-.024-1.563,1.514-1.563,2.735,0,5.47.01,8.2-.011.447,0,.6.082.589.566-.026,1.51,0,1.51-1.505,1.51h-3.6" transform="translate(-76.184 -20.72)" fill="#010101"/>
    <path id="Trazado_162168" data-name="Trazado 162168" d="M131.085,55.039c1.18,0,2.361.011,3.541-.007.348-.005.5.041.508.457.014,1.619.033,1.618-1.58,1.618-2.05,0-4.1-.007-6.15.007-.357,0-.5-.055-.506-.464-.018-1.613-.035-1.612,1.578-1.612h2.609" transform="translate(-79.672 -34.552)" fill="#010101"/>
    <path id="Trazado_162169" data-name="Trazado 162169" d="M33.092,47.839c0-1.054,0-1.054,1.076-1.054.995,0,.995,0,.995,1.023,0,1.044,0,1.044-1.025,1.044h-.062c-.984,0-.984,0-.984-1.013" transform="translate(-20.777 -29.374)" fill="#030303"/>
    <path id="Trazado_162170" data-name="Trazado 162170" d="M24.128,47.866c0,.985,0,.985-.958.985-1.109,0-1.109,0-1.109-1.133,0-.934,0-.934.946-.934h.062c1.059,0,1.059,0,1.059,1.081" transform="translate(-13.851 -29.374)" fill="#030303"/>
    <path id="Trazado_162171" data-name="Trazado 162171" d="M45.136,37.837c-1.012,0-1.012,0-1.012-.989,0-1.08,0-1.08,1.053-1.08,1.02,0,1.02,0,1.02,1,0,1.072,0,1.072-1.061,1.072" transform="translate(-27.704 -22.457)" fill="#030303"/>
    <path id="Trazado_162172" data-name="Trazado 162172" d="M33.092,36.823c0-1.055,0-1.055,1.076-1.055.995,0,.995,0,.995,1.023,0,1.046,0,1.046-1.025,1.046-1.046,0-1.046,0-1.046-1.014" transform="translate(-20.777 -22.457)" fill="#030303"/>
    <path id="Trazado_162173" data-name="Trazado 162173" d="M23.085,37.837c-1.025,0-1.025,0-1.025-1.033s0-1.036,1.03-1.036,1.037,0,1.037,1.042,0,1.027-1.042,1.027" transform="translate(-13.851 -22.457)" fill="#030303"/>
    <path id="Trazado_162174" data-name="Trazado 162174" d="M79.652,125.209c-.683,0-1.367-.013-2.05.006-.322.009-.416-.095-.427-.421-.058-1.622-.068-1.621,1.571-1.621.828,0,1.657.011,2.485,0a2.005,2.005,0,0,0,2.056-1.625c.083-.346.2-.493.569-.448a7.2,7.2,0,0,0,.869.007c.72,0,.746.031.626.72a4.072,4.072,0,0,1-3.773,3.362c-.64.035-1.283.006-1.925.006v.018" transform="translate(-48.444 -76.027)"/>
    <path id="Trazado_162175" data-name="Trazado 162175" d="M72.841,110.14a1.028,1.028,0,1,1-1.059.978,1.026,1.026,0,0,1,1.059-.978" transform="translate(-45.068 -69.152)" fill="#020202"/>
    <path id="Trazado_162176" data-name="Trazado 162176" d="M94.851,112.2a1.027,1.027,0,1,1,1.019-1.019,1.021,1.021,0,0,1-1.019,1.019" transform="translate(-58.922 -69.154)" fill="#020202"/>
    <path id="Trazado_162177" data-name="Trazado 162177" d="M30.006,125.222c-.642,0-1.284-.016-1.925.006-.351.012-.5-.051-.509-.462-.021-1.58-.039-1.58,1.549-1.58.828,0,1.656.01,2.484,0a2.018,2.018,0,0,0,2.084-1.672c.065-.314.157-.415.464-.4a11.711,11.711,0,0,0,1.241,0c.356-.02.4.132.37.447a4.066,4.066,0,0,1-3.71,3.633c-.68.042-1.365.007-2.048.007v.024" transform="translate(-17.309 -76.04)"/>
    <path id="Trazado_162178" data-name="Trazado 162178" d="M24.12,111.194a1.044,1.044,0,0,1-1.05,1,1.028,1.028,0,0,1,.055-2.056,1.046,1.046,0,0,1,1,1.055" transform="translate(-13.857 -69.151)" fill="#020202"/>
    <path id="Trazado_162179" data-name="Trazado 162179" d="M129.31,125.233c-.684,0-1.368-.013-2.05.006-.3.008-.375-.09-.389-.385-.079-1.657-.087-1.657,1.59-1.657.787,0,1.574.006,2.361,0a2.045,2.045,0,0,0,2.171-1.721c.034-.136.01-.327.2-.331.579-.015,1.16-.028,1.738,0,.241.014.143.262.131.408a4.08,4.08,0,0,1-3.707,3.646c-.681.043-1.367.007-2.05.007v.024" transform="translate(-79.641 -76.051)"/>
    <path id="Trazado_162180" data-name="Trazado 162180" d="M144.529,110.144a1.028,1.028,0,1,1-1.048,1,1.04,1.04,0,0,1,1.048-1" transform="translate(-90.086 -69.155)" fill="#020202"/>
  </g>
</svg>
