<svg id="Grupo_116445" data-name="Grupo 116445" xmlns="http://www.w3.org/2000/svg" xmlns:xlink="http://www.w3.org/1999/xlink" width="100.038" height="106.358" viewBox="0 0 100.038 106.358">
  <defs>
    <clipPath id="clip-path">
      <rect id="Rectángulo_40780" data-name="Rectángulo 40780" width="100.038" height="106.358" fill="none"/>
    </clipPath>
  </defs>
  <g id="Grupo_116415" data-name="Grupo 116415" clip-path="url(#clip-path)">
    <path id="Trazado_161262" data-name="Trazado 161262" d="M77.359,0a15.993,15.993,0,0,0,2.868.581c9.385,2.313,15.786,8.031,18.6,17.233,2.8,9.169.692,17.462-5.756,24.612a1.866,1.866,0,0,1-2.557.539,1.551,1.551,0,0,1-.323-2.393c.423-.589.939-1.106,1.4-1.67a21.126,21.126,0,0,0,4.841-12.132,21.065,21.065,0,0,0-6.7-17.392,20.142,20.142,0,0,0-12.789-5.79C67.361,2.9,60.069,6.836,55.632,15.22c-4.055,7.663-3.3,15.371,1.613,22.575a18.819,18.819,0,0,0,5.582,5.353c2.962,1.861,3.72,4.186,2.866,7.574-.136.537-.305,1.064-.442,1.6-.058.228-.179.508.043.682s.45-.044.65-.16c1.554-.905,3.061-1.889,4.613-2.8a36.3,36.3,0,0,1,9.486-3.853,22.52,22.52,0,0,0,5.023-1.937,2.9,2.9,0,0,1,1.366-.451c.753,0,1.369.219,1.509,1.085a1.868,1.868,0,0,1-1.134,2.35A31.517,31.517,0,0,1,78.737,50.1a4.435,4.435,0,0,0-3.828,4.116c-.872,5.065-2.691,9.916-4.014,14.885-1.734,6.508-2.143,13-.089,19.528.412,1.308-.271,2.152-1.658,2.193-.692.02-1.385.025-2.076,0-.5-.02-.6.162-.43.611,1.525,4.134,1.712,8.436,1.646,12.78a2.166,2.166,0,0,1-1.106,2.144H9.445a1.862,1.862,0,0,1-1.32-1.992A36.239,36.239,0,0,1,9.331,92.971c.088-.3.158-.6.26-.9.26-.743-.026-1.028-.772-1a10.561,10.561,0,0,1-1.347-.018,1.778,1.778,0,0,1-1.837-2.037A4.285,4.285,0,0,1,5.828,87.9a29.735,29.735,0,0,0,.907-12.825,2.092,2.092,0,0,1,1.325-2.6c1.554-.065,2.1.307,2.338,1.837a33.7,33.7,0,0,1-.269,11.965c-.068.332-.45.822,0,1.017a1.353,1.353,0,0,0,1.538-.292,1.121,1.121,0,0,0,.184-.251,31.737,31.737,0,0,1,4.847-6.581c.571-.608.519-1.065-.064-1.66A29.305,29.305,0,0,1,8.4,61.218a38.824,38.824,0,0,1-.3-5.587c.05-2.836-.009-5.674.023-8.51.019-1.7.5-2.245,2.13-2.706a30.11,30.11,0,0,0,6.384-2.435,16.326,16.326,0,0,0,5.315-4.065,10.475,10.475,0,0,0,2.374-5.975c.095-1.321.789-2.08,1.86-2.071A1.553,1.553,0,0,1,27.9,31.1c.689,3.575,3.25,5.491,6.182,7.077,4.168,2.254,8.718,3.293,13.33,4.113,2.76.491,5.555.7,8.336,1.024a1.585,1.585,0,0,0,1.105-.125c-.525-.572-1-1.143-1.468-1.727C49,33.438,47.757,24.65,51.515,15.148c.836-2.112.9-2.081-1.323-2.451a83.279,83.279,0,0,0-16.139-.729,44.01,44.01,0,0,0-6.5.584,32.078,32.078,0,0,0-11.625,3.577A22.01,22.01,0,0,0,5.307,29.874,42.808,42.808,0,0,0,3.744,43.211,61.713,61.713,0,0,0,6.391,58.394c.817,2.787,1.649,5.571,2.423,8.37.416,1.5.007,2.241-1.478,2.794a2.073,2.073,0,0,1-2.108-1.776C4.156,64.058,3.025,60.35,2.054,56.6A56.866,56.866,0,0,1,.029,40.276,40.084,40.084,0,0,1,3.517,24.158a25.506,25.506,0,0,1,14.2-12.989A43.285,43.285,0,0,1,28.4,8.656,103.311,103.311,0,0,1,43.53,8.271a44.124,44.124,0,0,1,9.764,1.214,1.82,1.82,0,0,0,2.089-.656A25.823,25.823,0,0,1,67.4.821,28.863,28.863,0,0,1,72.167,0h.623a.269.269,0,0,0,.415,0Z" transform="translate(0)"/>
    <path id="Trazado_161263" data-name="Trazado 161263" d="M350.73,0c-.138.219-.277.29-.415,0Z" transform="translate(-277.525)" fill="#606060"/>
    <path id="Trazado_161264" data-name="Trazado 161264" d="M289.458,57.093c-.9-.994-1.385-1.112-2.52-.5a25.087,25.087,0,0,1-5.791,2.2,39.581,39.581,0,0,0-11.972,5.546c-.665.434-1.349.84-2.03,1.248-.2.12-.412.29-.659.077-.22-.19-.181-.416-.115-.664.234-.866.456-1.736.681-2.6a5.383,5.383,0,0,0-2.488-6.526,21.948,21.948,0,1,1,33.265-22.965c1.552,7.4-.433,13.962-5.541,19.555-.979,1.072-1.035,1.562-.258,2.721a8.13,8.13,0,0,0-2.572,1.923" transform="translate(-201.517 -12.205)" fill="#e3e3ee"/>
    <path id="Trazado_161265" data-name="Trazado 161265" d="M99.075,183.61a17.085,17.085,0,0,0,5.888-6.856,20.632,20.632,0,0,0,7.346,5.328,51.481,51.481,0,0,0,13.939,3.831,104.711,104.711,0,0,0,13.021,1.113c1.385.035,1.822.572,1.545,1.951-.177.879-.449,1.738-.683,2.6-.736,2.728.078,4.272,2.807,5.11.617.189.393.566.395.874a25.747,25.747,0,0,1-4.615,15.13,26.2,26.2,0,0,1-20.516,11.68,5.585,5.585,0,0,1-.62-.021,20.276,20.276,0,0,1-7.968-4.262,27.788,27.788,0,0,1-9.519-13.9c-.428-1.361-1.042-2.732-.728-4.239-.589-.188-.883-1.217-.27-2.655.083-.2-.22-.349-.258-.559a39.922,39.922,0,0,1,0-4.717c.642-1.559-.456-7.755.892-7.978,2.3-.382,10.762,2.912,12.563,4.555.256.234,2.154,4.679,2.5,4.775.551.154-4.286-1.07-3.925-1.535a1.152,1.152,0,0,0,.1-1.358,2.48,2.48,0,0,0-.582-.723,10.227,10.227,0,0,0-9.717-2.086c-.57.151-1.189.748-1.772-.014a34.489,34.489,0,0,1-.089-5.385,1.286,1.286,0,0,1,.266-.667" transform="translate(-78.229 -140.027)" fill="#fecfa5"/>
    <path id="Trazado_161266" data-name="Trazado 161266" d="M89.574,56.564c6.8-1.137,20.587-.775,25.233.649C109.554,68.47,111.068,78.646,119.6,87.8c-.189.23-.514.116-.787.1A71.027,71.027,0,0,1,100.3,84.581a22.8,22.8,0,0,1-7.372-3.913,7.906,7.906,0,0,1-3.159-5.061,1.4,1.4,0,0,0-1.633-1.249,1.427,1.427,0,0,0-1.451,1.47c-.188,5.357-3.474,8.407-7.857,10.657-.571.044-.491-.409-.477-.709a88.935,88.935,0,0,1,1.016-12.168c.838-4.486,2.048-8.83,4.8-12.578,1.423-1.937,3-3.71,5.4-4.466" transform="translate(-62.063 -44.277)" fill="#febe3e"/>
    <path id="Trazado_161267" data-name="Trazado 161267" d="M40.679,59.13c-4.788,2.7-7.232,7.094-8.743,12.157a56.94,56.94,0,0,0-1.907,10.945c-.2,2.064.143,4.144-.338,6.182a.567.567,0,0,0,.244.637,24.844,24.844,0,0,1-6.44,2.468c-1.554.4-1.885.77-1.866,2.361.05,4.252-.171,8.508.124,12.756a29.055,29.055,0,0,0,8.53,18.831c.63.643.673.94,0,1.589a27.423,27.423,0,0,0-5.057,6.792,2.371,2.371,0,0,1-2.344.632c-.314-.212-.088-.516-.035-.74a32.116,32.116,0,0,0,.789-8.956c-.057-1.206-.189-2.412-.352-3.608-.176-1.292-.561-1.6-1.9-1.684q-.367-1.666-.733-3.331c1.2-.6,1.43-1.142,1.051-2.514-1.249-4.523-2.715-8.985-3.746-13.568A48.68,48.68,0,0,1,17.7,78.593c2.241-10.085,8.532-16.209,18.5-18.645a29.764,29.764,0,0,1,4.474-.818" transform="translate(-13.168 -46.844)" fill="#e7a228"/>
    <path id="Trazado_161268" data-name="Trazado 161268" d="M111.568,401.163a15.5,15.5,0,0,0,12.662,6.813,15.684,15.684,0,0,0,15.782-12.661,5.493,5.493,0,0,1,2.512-2.487c.345-.059.492.213.676.395a26.51,26.51,0,0,1,7.678,14.4,26.793,26.793,0,0,1,.375,6.609,1.865,1.865,0,0,1-1.016.1q-19.989.008-39.978,0c-1.335,0-1.413-.075-1.452-1.372a27.586,27.586,0,0,1,1.881-10.77c.165-.433.254-.972.881-1.027" transform="translate(-86.189 -311.198)" fill="#f84141"/>
    <path id="Trazado_161269" data-name="Trazado 161269" d="M65.685,228.118a18.925,18.925,0,0,0,1.846,6.93,27.493,27.493,0,0,0,6.423,9.274,28.368,28.368,0,0,0,9.449,5.97,2.349,2.349,0,0,1,.346.2,25.4,25.4,0,0,1-18.166-6.233,25.962,25.962,0,0,1-9.513-20.149c-.055-3.182-.005-6.365-.028-9.547,0-.509.084-.827.641-.976a32.452,32.452,0,0,0,8.56-3.84c.008,2.1-.086,8.567-.078,10.665,0,.489-2.946,1.486-3.232,1.69-.669.477-.577-2.126-1.1-1.469-.436.546,1.242-1.168,1.715-.609a1.274,1.274,0,0,0,1.671.319c.331-.161.6-.476,1.021-.424q.012,2.624.023,5.248c-.366.353.93,4.855.492,4.87-.859.03.781-1.3-.074-1.175-.834.118-3.095-.134-3.012.514.1.79-1.907-1.441-1.178-1.412,1.066.043,2.133.013,3.2.016.335,0,.691-.1,1,.137" transform="translate(-44.398 -166.167)" fill="#e7b081"/>
    <path id="Trazado_161270" data-name="Trazado 161270" d="M69.755,401.725a15.244,15.244,0,0,0-1.761,5.024,28.019,28.019,0,0,0-.7,6.976c.022.886.3,1.084,1.132,1.082q20.508-.034,41.016-.015c-.254.371-.634.18-.946.18q-25.682.01-51.363.014c-.847,0-1.1-.2-1.111-1.08a26.846,26.846,0,0,1,7.77-19.813,1.19,1.19,0,0,1,1.87-.2,3.8,3.8,0,0,1,1.878,2.74,13.823,13.823,0,0,0,2.218,5.095" transform="translate(-44.376 -311.76)" fill="#e12b2b"/>
    <path id="Trazado_161271" data-name="Trazado 161271" d="M127.712,409.831a30.254,30.254,0,0,0,23.525.077c-.4,3.8-5.536,7.8-10.712,8.352a12.553,12.553,0,0,1-12.813-8.429" transform="translate(-101.176 -324.675)" fill="#e7b081"/>
    <path id="Trazado_161272" data-name="Trazado 161272" d="M283.472,282.313a31.081,31.081,0,0,0,5.64-7.3,29.66,29.66,0,0,0,3.713-15.534,1.6,1.6,0,0,1,.933-1.731c.919-.46,1.769-1.054,2.767-1.662-.764,3.611-1.832,7-2.82,10.405-1.416,4.883-2.755,9.779-2.877,14.914a31.993,31.993,0,0,0,.832,8.334c.156.644.057.8-.634.836a1.838,1.838,0,0,1-2.015-1.121,27.836,27.836,0,0,0-5.54-7.136" transform="translate(-224.571 -202.872)" fill="#febe3e"/>
    <path id="Trazado_161273" data-name="Trazado 161273" d="M299.462,76c.013-4.292,1.891-7.369,5.16-8.558a6.673,6.673,0,0,1,6.91,1.114c.452.372.684.309,1.11-.019a7.326,7.326,0,0,1,11.507,3.78c1.392,4.88.036,9.139-3.215,12.87a23.035,23.035,0,0,1-8.068,5.685,1.551,1.551,0,0,1-1.3.105c-4.942-2.242-9.161-5.271-11.254-10.549A12.7,12.7,0,0,1,299.462,76" transform="translate(-237.239 -53.035)"/>
    <path id="Trazado_161274" data-name="Trazado 161274" d="M333.538,88.2c-.092,3.677-2.037,6.4-4.716,8.719a21.213,21.213,0,0,1-4.157,2.724.914.914,0,0,1-.957.094c-3.228-1.657-6.063-3.76-7.847-7.013a9.073,9.073,0,0,1-.9-7.015,4.312,4.312,0,0,1,3.592-3.312,3.811,3.811,0,0,1,3.976,1.851c.977,1.344,2.074,1.47,2.924.262,1.163-1.652,2.588-2.589,4.671-2.023a4.724,4.724,0,0,1,3.337,4.425c.04.413.051.829.077,1.288" transform="translate(-249.247 -65.214)" fill="#f84141"/>
  </g>
</svg>
