<svg xmlns="http://www.w3.org/2000/svg" xmlns:xlink="http://www.w3.org/1999/xlink" width="113.6" height="113.65" viewBox="0 0 113.6 113.65">
  <defs>
    <clipPath id="clip-path">
      <rect id="Rectángulo_40734" data-name="Rectángulo 40734" width="113.6" height="113.651" fill="none"/>
    </clipPath>
  </defs>
  <g id="Grupo_137599" data-name="Grupo 137599" transform="translate(3094.6 9678)">
    <g id="Grupo_116382" data-name="Grupo 116382" transform="translate(-3094.6 -9678)">
      <g id="Grupo_116379" data-name="Grupo 116379" clip-path="url(#clip-path)">
        <path id="Trazado_161005" data-name="Trazado 161005" d="M29.628,40.365a29.192,29.192,0,0,1-.019-21.95A28.483,28.483,0,0,1,40.248,5.141a29.2,29.2,0,0,1,33.2.073A28.552,28.552,0,0,1,84.863,20.892a29.114,29.114,0,0,1-.9,19.473c3.631,0,7.132,0,10.632,0,1.944,0,2.508.568,2.509,2.52,0,2.9.016,5.8-.012,8.7a2.307,2.307,0,0,0,.578,1.645c2.613,3.085,5.177,6.211,7.788,9.3a3.253,3.253,0,0,1,.819,2.292c-.038,2.06-.007,4.121-.014,6.182-.006,1.712-.635,2.412-2.346,2.311-1.114-.065-1.357.251-1.346,1.349.06,6.6.041,13.2.014,19.805,0,.741.132,1.09.935,1.333a8.641,8.641,0,0,1,5.935,5.845c.25.751.526,1.061,1.373,1.036,2.277-.068,2.765.459,2.766,2.7,0,1.984.006,3.969,0,5.953-.006,1.661-.633,2.315-2.256,2.315q-54.552,0-109.1,0c-1.567,0-2.221-.661-2.229-2.224q-.016-3.263,0-6.526c.007-1.576.663-2.338,2.21-2.2,1.259.11,1.7-.342,2.1-1.487a8.386,8.386,0,0,1,5.763-5.421c.682-.208.941-.451.937-1.212q-.056-10.132,0-20.264c0-.809-.2-1.007-1-.99-2.2.046-2.684-.479-2.685-2.667,0-1.946.027-3.893-.012-5.838a3.238,3.238,0,0,1,.824-2.288c2.611-3.086,5.174-6.214,7.784-9.3a2.312,2.312,0,0,0,.578-1.645c-.031-2.976-.019-5.953-.011-8.929,0-1.644.64-2.282,2.281-2.285,3.575-.007,7.15,0,10.85,0" transform="translate(0 0)"/>
        <path id="Trazado_161006" data-name="Trazado 161006" d="M132.084,261.556a1.448,1.448,0,0,1-1.238-.857,8.57,8.57,0,0,0-2.052-2.436c-.419-.318-.361-.708-.376-1.121-.081-2.17.214-4.353-.2-6.51a9.138,9.138,0,0,0-18.1,1.451c-.065,2.937-.016,5.878-.022,8.816,0,.434.108.833-.56,1.02a8.954,8.954,0,0,0-6.544,6.684c-.014.05-.095.081-.223.185v-1.149q0-10.935,0-21.87c0-1.949-.567-2.516-2.516-2.516q-10.305,0-20.611,0c-1.958,0-2.521.56-2.521,2.508q0,10.935,0,21.87v1.1c-.5-.908-.78-1.879-1.322-2.739a8.74,8.74,0,0,0-5.122-3.962c-.729-.2-.917-.517-.9-1.246.049-2.709.033-5.42.017-8.13a9.162,9.162,0,1,0-18.318.025c0,.458,0,.916,0,1.374,0,4.078,0,4.08-2.69,7.021-.224.245-.488.6-.844.429-.3-.145-.123-.551-.123-.835-.009-6.718,0-13.435-.024-20.153,0-.739.179-.944.934-.944q41.221.031,82.443.017c.481,0,.942-.137.938.7-.034,7.06-.02,14.12-.02,21.272" transform="translate(-33.143 -166.244)" fill="#fbe696"/>
        <path id="Trazado_161007" data-name="Trazado 161007" d="M130.241,187H42.911c1.992-2.392,3.894-4.661,5.773-6.949.3-.366.659-.32,1.031-.32q11.044,0,22.088-.01a3.077,3.077,0,0,1,1.4.406,28.877,28.877,0,0,0,26.716.019,3.789,3.789,0,0,1,1.738-.425q10.758.021,21.516-.006a1.851,1.851,0,0,1,1.645.744c1.734,2.159,3.53,4.268,5.424,6.541" transform="translate(-29.777 -124.712)" fill="#efad42"/>
        <path id="Trazado_161008" data-name="Trazado 161008" d="M156.8,135.2a25.229,25.229,0,0,1-8.058,7.534,25.681,25.681,0,0,1-34.652-8.421c-.53-.85-.372-1.189.451-1.585a9.756,9.756,0,0,1,9.733.2c5.253,3.153,10.384,3.192,15.624,0a9.258,9.258,0,0,1,9-.518c2.509,1.151,4.808,2.764,7.905,2.783" transform="translate(-78.954 -91.244)" fill="#5e86c9"/>
        <path id="Trazado_161009" data-name="Trazado 161009" d="M173.932,274.645c0,3.317-.024,6.634.018,9.95.01.76-.217.941-.953.937q-8.234-.045-16.469,0c-.763,0-.937-.223-.934-.954q.04-10.064,0-20.129c0-.759.216-.941.952-.937q8.234.045,16.469,0c.763,0,.943.222.935.955-.037,3.393-.017,6.786-.017,10.179" transform="translate(-107.97 -182.857)" fill="#efad42"/>
        <path id="Trazado_161010" data-name="Trazado 161010" d="M127.813,101.9c8.13,0,16.259.016,24.388-.021.915,0,1.143.216,1.028,1.124a27.321,27.321,0,0,1-2,7.365.982.982,0,0,1-1.007.709,10.229,10.229,0,0,1-5.782-1.48c-4.993-3.042-10-3-15.021-.022a9.7,9.7,0,0,1-10.522.053,13.76,13.76,0,0,0-14.339-.5c-.5.262-.691.242-.884-.323a30.328,30.328,0,0,1-1.375-5.885c-.124-.947.2-1.041,1.009-1.039,8.168.027,16.336.017,24.5.017" transform="translate(-70.971 -70.698)" fill="#4c6cb4"/>
        <path id="Trazado_161011" data-name="Trazado 161011" d="M106.608,29.3a25.506,25.506,0,0,1,26.136-17.038c10.051.866,20.3,8.672,21.785,16.395-.841-.7-1.616-1.362-2.416-2a15.2,15.2,0,0,0-18.586-.65c-.722.5-1.4,1.327-2.166,1.413-.794.089-1.387-.931-2.092-1.433a15.174,15.174,0,0,0-17.1-.37c-1.563,1.02-3.053,2.151-4.591,3.211-.288.2-.511.589-.971.469" transform="translate(-73.978 -8.442)" fill="#bfd9fb"/>
        <path id="Trazado_161012" data-name="Trazado 161012" d="M81.613,219.277q-22.269,0-44.537.028c-1.05,0-1.252-.3-1.225-1.267.067-2.424.02-2.425,2.442-2.425q43.908,0,87.815-.031c1.195,0,1.444.328,1.4,1.443-.089,2.25-.026,2.253-2.274,2.253Z" transform="translate(-24.876 -149.597)" fill="#d4873e"/>
        <path id="Trazado_161013" data-name="Trazado 161013" d="M12.027,349.147a.953.953,0,0,1-.017-.113c-.067-1.725-.067-1.725,1.6-1.725q51.663,0,103.326-.029c1.139,0,1.506.315,1.319,1.383a3.357,3.357,0,0,0,0,.571c0,1.8,0,1.8-1.839,1.7-.33-1.39-1.344-1.439-2.532-1.439q-49.771.033-99.541.009c-.779,0-1.614.208-2.315-.358" transform="translate(-8.32 -240.986)" fill="#d4873e"/>
        <path id="Trazado_161014" data-name="Trazado 161014" d="M12.039,353.3q51.614,0,103.228-.035c1.653,0,1.066,1.035,1.16,1.823-.457.013-.914.036-1.371.036q-50.657,0-101.313,0c-1.8,0-1.8,0-1.7-1.826" transform="translate(-8.332 -245.142)" fill="#f2a648"/>
        <path id="Trazado_161015" data-name="Trazado 161015" d="M134.967,69.192q-11.776.018-23.552.036c-2.782,0-5.564.006-8.347-.007-.316,0-.779.185-.917-.2a.937.937,0,0,1,.4-1.1c2.991-2.1,5.876-4.374,8.994-6.266a11.465,11.465,0,0,1,13.331,1.248c2.028,1.672,4.054,3.346,6.049,5.057.689.591,1.259.927,1.833-.087a.627.627,0,0,1,.569-.327c.755.337,1.514.669,1.637,1.638" transform="translate(-70.849 -41.688)" fill="#559a2d"/>
        <path id="Trazado_161016" data-name="Trazado 161016" d="M41.489,314.6q-7.432,0-14.864-.007c-.321,0-.758.175-.941-.155s.146-.643.327-.916a5.314,5.314,0,0,1,5.141-2.559,5.48,5.48,0,0,0,5.041-1.811c.315-.378.572-.806.85-1.215a5.371,5.371,0,0,1,9.111.028,5.851,5.851,0,0,0,5.925,3,5.305,5.305,0,0,1,5.2,2.656c.5.771.333.995-.587.989-5.068-.031-10.138-.015-15.207-.015" transform="translate(-17.787 -211.946)" fill="#559a2d"/>
        <path id="Trazado_161017" data-name="Trazado 161017" d="M257.072,314.6q-7.432,0-14.864-.01c-.35,0-.849.222-1.025-.188-.15-.349.2-.713.413-1.013a5.364,5.364,0,0,1,5.1-2.427,5.432,5.432,0,0,0,5.029-1.84c.314-.38.563-.812.843-1.22a5.367,5.367,0,0,1,9.048,0,6.01,6.01,0,0,0,6.122,3.066,5.2,5.2,0,0,1,5.008,2.592c.512.773.462,1.064-.586,1.056-5.031-.041-10.062-.018-15.093-.018" transform="translate(-167.338 -211.942)" fill="#559a2d"/>
        <path id="Trazado_161018" data-name="Trazado 161018" d="M201.551,69.278c-.36-.731-1.22-.962-1.637-1.637-.013-.109-.073-.242-.032-.324.236-.469,1.036-.8.843-1.252-.227-.536-.883-.9-1.377-1.312-1.75-1.457-1.754-1.452.139-2.674a11.6,11.6,0,0,1,13.28.426c2.152,1.629,4.176,3.427,6.267,5.138.44.36.823.77.621,1.35s-.79.305-1.195.306c-5.637.008-11.273-.01-16.91-.023" transform="translate(-137.433 -41.774)" fill="#4d8b28"/>
        <path id="Trazado_161019" data-name="Trazado 161019" d="M263.337,273.067c0-1.373-.028-2.747.006-4.119a5.488,5.488,0,0,1,10.97-.09c.042,1.143,0,2.288.019,3.432.008.471-.067.622-.632.559a8.808,8.808,0,0,0-9.078,4.431,2.825,2.825,0,0,1-.486.628c-.161.144-.412.317-.589.286-.372-.067-.2-.433-.2-.665-.016-1.487-.008-2.975-.008-4.462Z" transform="translate(-182.714 -182.905)" fill="#efad42"/>
        <path id="Trazado_161020" data-name="Trazado 161020" d="M71.864,272.874a41.682,41.682,0,0,1,.029-4.559,5.478,5.478,0,0,1,10.905.6c.052,2.859.019,5.72.008,8.579,0,.234.172.582-.176.691-.278.088-.488-.166-.681-.339a1.971,1.971,0,0,1-.345-.451c-2.217-3.673-5.493-5.074-9.74-4.518" transform="translate(-49.831 -182.901)" fill="#efad42"/>
        <path id="Trazado_161021" data-name="Trazado 161021" d="M83.146,151.156H68.478c-2.644,0-2.644,0-2.644-2.635,0-1.334.025-2.67-.012-4-.016-.557.171-.7.712-.7,3.318.022,6.635.015,9.953.005a.92.92,0,0,1,.937.466,29.583,29.583,0,0,0,5.723,6.869" transform="translate(-45.675 -99.798)" fill="#f8d166"/>
        <path id="Trazado_161022" data-name="Trazado 161022" d="M248.74,151.154a29.457,29.457,0,0,0,5.665-6.781,1.014,1.014,0,0,1,1-.559q4.976.032,9.952,0c.553,0,.711.166.7.71-.029,1.982-.02,3.966-.005,5.949,0,.44-.046.694-.6.692-5.479-.018-10.957-.011-16.718-.011" transform="translate(-172.607 -99.796)" fill="#f8d166"/>
        <path id="Trazado_161023" data-name="Trazado 161023" d="M197.553,301.228c0-1.741,0-1.741,1.81-1.741,1.855,0,1.855,0,1.855,1.81,0,1.854,0,1.854-1.81,1.854-1.854,0-1.854,0-1.854-1.923" transform="translate(-137.087 -207.822)"/>
        <path id="Trazado_161024" data-name="Trazado 161024" d="M177.237,31.463a3.663,3.663,0,1,1,3.7-3.652,3.647,3.647,0,0,1-3.7,3.652" transform="translate(-120.475 -16.749)"/>
      </g>
    </g>
  </g>
</svg>
