<svg id="Grupo_117460" data-name="Grupo 117460" xmlns="http://www.w3.org/2000/svg" xmlns:xlink="http://www.w3.org/1999/xlink" width="63.66" height="63.66" viewBox="0 0 63.66 63.66">
  <defs>
    <clipPath id="clip-path">
      <rect id="Rectángulo_41132" data-name="Rectángulo 41132" width="63.66" height="63.66" fill="none"/>
    </clipPath>
  </defs>
  <g id="Grupo_117459" data-name="Grupo 117459" clip-path="url(#clip-path)">
    <path id="Trazado_162039" data-name="Trazado 162039" d="M40.534,63.66a2.468,2.468,0,0,1-1.525-2.671c.074-1.654,0-3.315.03-4.972.009-.464-.108-.582-.576-.579-3.709.021-7.418,0-11.126.025-.513,0-.657-.112-.643-.636.037-1.444.011-1.445,1.453-1.445,3.419,0,6.838-.012,10.257.013.525,0,.643-.143.637-.653-.029-2.4-.013-4.8-.013-7.275a23.063,23.063,0,0,1-3.037,1.182,15.4,15.4,0,0,1-19.346-12.3,11.953,11.953,0,0,1-.194-2.968c.044-.487-.089-.576-.548-.574-4.476.018-8.951.011-13.427.01C.769,30.813,0,30.05,0,28.357Q0,15.4,0,2.436C0,.765.76,0,2.42,0H22.25a2.092,2.092,0,0,1,2.383,2.4c0,1.74.023,3.482-.013,5.221-.011.512.158.6.622.6,3.709-.018,7.418,0,11.126-.023.508,0,.6.153.6.619-.025,1.462-.007,1.463-1.494,1.463-3.419,0-6.838.008-10.257-.01-.448,0-.6.084-.593.57.028,2.423.013,4.846.013,7.3a5.143,5.143,0,0,0,1.265-.514A15.405,15.405,0,0,1,47.013,29.3a12.36,12.36,0,0,1,.2,3.03c-.042.471.107.532.524.53,4.434-.014,8.868.015,13.3-.024a2.441,2.441,0,0,1,2.624,1.609v27.6a1.7,1.7,0,0,1-1.616,1.616Z" transform="translate(0 0)"/>
    <path id="Trazado_162040" data-name="Trazado 162040" d="M97.053,16.089A3.069,3.069,0,1,1,94,13a3.061,3.061,0,0,1,3.055,3.085" transform="translate(-47.78 -6.834)"/>
    <path id="Trazado_162041" data-name="Trazado 162041" d="M30.325,111.3a3.069,3.069,0,1,1,3.071,3.07,3.055,3.055,0,0,1-3.071-3.07" transform="translate(-15.937 -56.876)"/>
    <path id="Trazado_162042" data-name="Trazado 162042" d="M110.258,18.3c0,1.074,0,1.074-1.056,1.074-.986,0-.986,0-.986-1.008,0-1.059,0-1.059,1.047-1.059.995,0,.995,0,.995.993" transform="translate(-56.873 -9.094)" fill="#020202"/>
    <path id="Trazado_162043" data-name="Trazado 162043" d="M83.225,19.371c-.971,0-.971,0-.971-.976,0-1.09,0-1.09,1.092-1.09.943,0,.943,0,.943.93V18.3c0,1.074,0,1.074-1.064,1.074" transform="translate(-43.228 -9.094)" fill="#020202"/>
    <path id="Trazado_162044" data-name="Trazado 162044" d="M23.7,113.589c0,.994,0,.994-.987.994-1.055,0-1.055,0-1.055-1.056,0-1.01,0-1.01,1-1.01,1.046,0,1.046,0,1.046,1.072" transform="translate(-11.381 -59.133)" fill="#020202"/>
    <path id="Trazado_162045" data-name="Trazado 162045" d="M49.666,113.559c0,1.024,0,1.024-1.034,1.024-1,0-1,0-1-1,0-1.07,0-1.07,1.068-1.07.967,0,.967,0,.967,1.043" transform="translate(-25.032 -59.132)" fill="#020202"/>
    <path id="Trazado_162046" data-name="Trazado 162046" d="M96.874,94.182c-.86.689-1.627,1.321-2.414,1.927-.259.2-.363.337-.093.619.369.385.645,1.056,1.056,1.139.332.067.808-.546,1.212-.868,1.618-1.289,3.232-2.581,4.893-3.908-1.721-1.379-3.4-2.724-5.075-4.064-1.057-.844-1.04-.824-1.933.225-.349.41-.363.628.1.954.726.512,1.4,1.1,2.088,1.665.025.02.028.065.047.111-.161.13-.352.064-.525.065-3.026,0-6.051,0-9.076.012-.457,0-.647-.076-.642-.6.028-2.714.02-5.429.006-8.144a.958.958,0,0,1,.4-.835,15.074,15.074,0,0,0,5.319-8.319c.106-.436.269-.582.732-.58q6.745.031,13.49,0c.484,0,.62.122.619.614q-.023,12.713,0,25.425c0,.513-.128.658-.65.657q-9.635-.028-19.271,0c-.457,0-.655-.077-.644-.6.036-1.678.019-3.357.009-5.035,0-.327.009-.53.446-.528,3.212.019,6.424.01,9.636.012a1.908,1.908,0,0,1,.271.059" transform="translate(-45.466 -38.671)" fill="#ee7384"/>
    <path id="Trazado_162047" data-name="Trazado 162047" d="M14.45,10.481c.925-.741,1.7-1.381,2.5-1.992.275-.211.331-.36.072-.623-.372-.379-.6-1.105-1.045-1.135-.386-.026-.817.557-1.221.879-1.616,1.289-3.231,2.581-4.884,3.9,2,1.6,3.952,3.155,5.9,4.721.157.126.275.169.4-.023a.788.788,0,0,1,.076-.1c1.1-1.255,1.1-1.254-.2-2.292-.479-.38-.952-.768-1.445-1.166a.737.737,0,0,1,.57-.1c3.025,0,6.049.009,9.073-.016.529,0,.646.158.641.663-.025,2.693-.019,5.386,0,8.079a.954.954,0,0,1-.394.838,15.046,15.046,0,0,0-5.339,8.37c-.1.432-.282.531-.7.529q-6.743-.025-13.486,0c-.533,0-.638-.153-.637-.657q.023-12.678,0-25.355c0-.542.126-.69.68-.688q9.6.032,19.2,0c.552,0,.7.142.684.689-.037,1.656-.022,3.314-.007,4.971,0,.351-.049.512-.464.51-3.252-.018-6.5-.01-9.959-.01" transform="translate(-2.267 -2.27)" fill="#b3dc7e"/>
    <path id="Trazado_162048" data-name="Trazado 162048" d="M61.369,66.527c-1.283,0-2.566-.014-3.849.009a.509.509,0,0,1-.594-.451,17.325,17.325,0,0,1,0-9.371c.1-.352.264-.436.607-.434q3.88.021,7.761,0a.512.512,0,0,1,.594.451,17.348,17.348,0,0,1,0,9.371c-.1.351-.264.439-.608.434-1.3-.02-2.608-.008-3.911-.008" transform="translate(-29.578 -29.577)" fill="#4fc0e8"/>
    <path id="Trazado_162049" data-name="Trazado 162049" d="M80.8,66.521a29.974,29.974,0,0,0,.61-3.58,18.13,18.13,0,0,0-.506-6.087c-.114-.455-.063-.595.449-.584,1.592.034,3.185.025,4.778,0a.6.6,0,0,1,.672.464,13.364,13.364,0,0,1-.018,9.343c-.074.2-.1.446-.425.444-1.838-.008-3.676,0-5.56,0" transform="translate(-42.466 -29.572)" fill="#4fc0e8"/>
    <path id="Trazado_162050" data-name="Trazado 162050" d="M45.8,66.527c-1.878,0-3.716,0-5.553,0-.232,0-.317-.122-.39-.316a13.283,13.283,0,0,1,0-9.63.416.416,0,0,1,.466-.3c1.7.006,3.393.015,5.089-.005.406,0,.366.17.3.446a18.736,18.736,0,0,0-.5,6.581,28.107,28.107,0,0,0,.588,3.221" transform="translate(-20.472 -29.578)" fill="#4fc0e8"/>
    <path id="Trazado_162051" data-name="Trazado 162051" d="M80.765,45.466c-1.7,0-3.33-.011-4.962.009a.538.538,0,0,1-.575-.418,20.824,20.824,0,0,0-3.329-5.4c2.372-.307,7.41,2.977,8.867,5.808" transform="translate(-37.786 -20.832)" fill="#4fc0e8"/>
    <path id="Trazado_162052" data-name="Trazado 162052" d="M80.776,82.245a12.82,12.82,0,0,1-8.908,5.86c.25-.33.471-.626.7-.92a19.594,19.594,0,0,0,2.654-4.541c.1-.239.19-.413.519-.409,1.655.02,3.31.009,5.039.009" transform="translate(-37.77 -43.219)" fill="#4fc0e8"/>
    <path id="Trazado_162053" data-name="Trazado 162053" d="M43.508,45.46c1.8-3.015,6.211-5.913,8.793-5.831-.031.314-.275.5-.443.716a20.225,20.225,0,0,0-2.791,4.735c-.088.216-.165.39-.468.387-1.67-.015-3.339-.007-5.09-.007" transform="translate(-22.866 -20.826)" fill="#4fc0e8"/>
    <path id="Trazado_162054" data-name="Trazado 162054" d="M43.57,82.255H48.6c.188,0,.347,0,.44.233a22.421,22.421,0,0,0,3.274,5.451c.021.027.014.076.02.115-2.285.3-7.232-2.952-8.76-5.8" transform="translate(-22.898 -43.229)" fill="#4fc0e8"/>
    <path id="Trazado_162055" data-name="Trazado 162055" d="M66.671,45.984c-2.2,0-4.43,0-6.657,0-.323,0-.256-.151-.164-.35a14.267,14.267,0,0,1,1.25-2.2c.607-.861,1.244-1.7,1.87-2.546.13-.176.237-.432.487-.093a27.321,27.321,0,0,1,3.131,4.745c.056.123.184.237.083.448" transform="translate(-31.414 -21.35)" fill="#4fc0e8"/>
    <path id="Trazado_162056" data-name="Trazado 162056" d="M59.571,82.251c2.326,0,4.533,0,6.741,0,.422,0,.3.188.191.415a23.4,23.4,0,0,1-2.756,4.251c-.611.81-.609.811-1.232-.022a25.345,25.345,0,0,1-2.42-3.589c-.158-.309-.309-.621-.523-1.051" transform="translate(-31.307 -43.225)" fill="#4fc0e8"/>
    <path id="Trazado_162057" data-name="Trazado 162057" d="M96.235,19.364a1.025,1.025,0,1,1,.023-2.05,1.025,1.025,0,1,1-.023,2.05" transform="translate(-50.041 -9.099)" fill="#b2db7e"/>
    <path id="Trazado_162058" data-name="Trazado 162058" d="M35.669,114.592a1.062,1.062,0,0,1-1.047-1.007,1.029,1.029,0,0,1,2.058-.039,1.063,1.063,0,0,1-1.011,1.047" transform="translate(-18.195 -59.146)" fill="#ed7284"/>
    <path id="Trazado_162059" data-name="Trazado 162059" d="M106.8,88.6c-1.532,0-3.064-.011-4.6.008-.389,0-.532-.081-.534-.506-.006-1.577-.023-1.577,1.571-1.577,2.711,0,5.423.01,8.135-.009.446,0,.609.092.6.576-.014,1.508.008,1.508-1.518,1.508H106.8" transform="translate(-53.434 -45.47)" fill="#010000"/>
    <path id="Trazado_162060" data-name="Trazado 162060" d="M110.162,97.26c-1.2,0-2.4-.018-3.6.009-.418.009-.514-.128-.515-.527-.005-1.556-.019-1.556,1.536-1.556,2.029,0,4.058.011,6.088-.009.433,0,.62.067.615.567-.015,1.515.009,1.515-1.511,1.515h-2.609" transform="translate(-55.731 -50.02)" fill="#010000"/>
    <path id="Trazado_162061" data-name="Trazado 162061" d="M103.743,77.878c.557,0,1.114.01,1.671,0,.266-.007.385.089.357.356a.388.388,0,0,0,0,.062c.088,1.662.088,1.662-1.582,1.662-.7,0-1.4-.013-2.1.006-.318.009-.418-.088-.43-.417-.065-1.666-.076-1.665,1.592-1.665h.495" transform="translate(-53.414 -40.926)" fill="#010101"/>
    <path id="Trazado_162062" data-name="Trazado 162062" d="M116.621,79.953c-.538,0-1.077-.01-1.615,0-.264.007-.346-.089-.37-.354-.154-1.726-.161-1.726,1.546-1.725.724,0,1.449.009,2.173,0,.29-.005.431.09.4.39a.338.338,0,0,0,0,.062c.07,1.628.07,1.628-1.572,1.628h-.559" transform="translate(-60.214 -40.926)" fill="#010101"/>
    <path id="Trazado_162063" data-name="Trazado 162063" d="M15.912,43.256c1.553,0,3.106.01,4.659-.007.357,0,.5.063.506.469.021,1.612.037,1.612-1.6,1.612-2.692,0-5.383-.009-8.075.009-.459,0-.65-.077-.641-.6.028-1.48,0-1.481,1.483-1.481h3.665" transform="translate(-5.657 -22.729)" fill="#010100"/>
    <path id="Trazado_162064" data-name="Trazado 162064" d="M14.864,53.984c-1.2,0-2.4-.015-3.6.009-.39.008-.483-.124-.488-.5-.022-1.588-.035-1.587,1.562-1.587,2.051,0,4.1.011,6.154-.009.414,0,.517.122.519.525.006,1.56.02,1.56-1.531,1.56H14.864" transform="translate(-5.658 -27.275)" fill="#010100"/>
    <path id="Trazado_162065" data-name="Trazado 162065" d="M26.795,36.675c-.848,0-1.7-.015-2.543.007-.35.009-.452-.1-.461-.453-.04-1.627-.052-1.626,1.568-1.626,1.365,0,2.73.012,4.094-.008.367-.005.494.084.5.476.026,1.6.041,1.6-1.546,1.6H26.795" transform="translate(-12.498 -18.181)" fill="#010100"/>
    <path id="Trazado_162066" data-name="Trazado 162066" d="M12.835,36.675c-.538,0-1.077-.018-1.614.006-.359.016-.447-.123-.457-.466C10.72,34.6,10.71,34.6,12.295,34.6c.724,0,1.449.016,2.173-.007.332-.01.409.111.421.427.065,1.653.074,1.653-1.557,1.653h-.5" transform="translate(-5.651 -18.181)" fill="#010101"/>
  </g>
</svg>
