<svg id="Grupo_117464" data-name="Grupo 117464" xmlns="http://www.w3.org/2000/svg" xmlns:xlink="http://www.w3.org/1999/xlink" width="63.66" height="63.559" viewBox="0 0 63.66 63.559">
  <defs>
    <clipPath id="clip-path">
      <rect id="Rectángulo_41134" data-name="Rectángulo 41134" width="63.66" height="63.559" fill="none"/>
    </clipPath>
  </defs>
  <g id="Grupo_117463" data-name="Grupo 117463" clip-path="url(#clip-path)">
    <path id="Trazado_162092" data-name="Trazado 162092" d="M123.94,25.268c-1.468.014-2.936.034-4.4.04-1.883.007-3.767-.011-5.65.011-.441.005-.569-.088-.478-.549.25-1.277.449-2.564.672-3.846a4.229,4.229,0,0,1,1.281-2.421c.3-.279.186-.377-.055-.591a5.1,5.1,0,1,1,6.775-.106c-.345.31-.429.456-.053.817,1.037,1,1.194,2.355,1.418,3.685a14.575,14.575,0,0,0,.494,2.588Z" transform="translate(-60.28 -4.756)"/>
    <path id="Trazado_162093" data-name="Trazado 162093" d="M36.639.106A.472.472,0,0,0,36.646,0H61.633a.366.366,0,0,1,.008.1c-.219.255-.523.222-.806.222q-11.693.01-23.386,0a.958.958,0,0,1-.809-.218" transform="translate(-19.48)" fill="#bababa"/>
    <path id="Trazado_162094" data-name="Trazado 162094" d="M10.762,55.635a19.815,19.815,0,0,1-3.253-2.144,15.35,15.35,0,1,1,17.127,1.821c-.445.237-.686.332-.315.915a2.671,2.671,0,0,1-.113,2.562c-.132.311-.225.428.223.562A3.008,3.008,0,0,1,26.06,64a.466.466,0,0,0,0,.633,2.9,2.9,0,0,1,.022,3.427.5.5,0,0,0-.012.684,2.865,2.865,0,0,1,.2,3.111,2.956,2.956,0,0,1-2.711,1.663c-1.019.027-1.019.032-1.04,1.036a3.029,3.029,0,0,1-3.027,3.052q-1.087.027-2.175,0a2.807,2.807,0,0,1-2.527-1.531.839.839,0,0,0-.915-.5,12.938,12.938,0,0,1-6-1,4.343,4.343,0,0,1-.932-.482,3.324,3.324,0,0,0-2.333-.586c-1.387.033-2.776,0-4.164.017-.356.006-.443-.1-.442-.448Q.02,66.366,0,59.654c0-.4.122-.474.489-.467,1.16.023,2.32.008,3.48.009.1,0,.227-.032.308.013.764.416,1.16-.079,1.608-.582a9.822,9.822,0,0,1,2.222-1.779,12.973,12.973,0,0,1,2.655-1.212" transform="translate(0 -14.064)"/>
    <path id="Trazado_162095" data-name="Trazado 162095" d="M96.013,69.56c0,6.34-.007,12.68.013,19.02,0,.51-.114.652-.637.652q-16.782-.024-33.564,0c-.459,0-.634-.076-.623-.592.037-1.76.008-3.522.015-5.283a2.078,2.078,0,0,1,2.349-2.319q2.766,0,5.532,0a2.111,2.111,0,0,1,2.355,2.389c0,1.119.011,2.238-.007,3.357-.005.321.083.414.414.422,1.624.044,1.624.055,1.624-1.575q0-10.256,0-20.511c0-1.748.754-2.506,2.488-2.507h5.345a2.133,2.133,0,0,1,2.423,2.448q0,10.722-.013,21.444c0,.567.14.724.708.705,1.333-.044,1.334-.014,1.334-1.367q0-17.528,0-35.056c0-1.756.736-2.5,2.485-2.5q2.673,0,5.346,0c1.661,0,2.414.76,2.414,2.439q0,9.417,0,18.833" transform="translate(-32.538 -25.673)"/>
    <path id="Trazado_162096" data-name="Trazado 162096" d="M33.42.221c1.447.006,2.894.017,4.342.017q9.99,0,19.979,0c.227,0,.454-.014.681-.022A3.032,3.032,0,0,1,61.3,3.358c.015,1.325.018,2.651,0,3.976a3.024,3.024,0,0,1-3.163,3.1c-2.92.007-5.84.01-8.76-.007-.414,0-.633.064-.706.529a15.421,15.421,0,0,1-.449,1.8,2.32,2.32,0,0,1-4.5.05,15.921,15.921,0,0,1-.456-1.8c-.079-.449-.253-.589-.721-.585-2.878.025-5.757.015-8.636.012a3.09,3.09,0,0,1-3.313-3.284c-.007-1.263-.016-2.527,0-3.79A3.074,3.074,0,0,1,33.42.221" transform="translate(-16.26 -0.115)"/>
    <path id="Trazado_162097" data-name="Trazado 162097" d="M60.839,95.211c.249-1.492.478-2.981.754-4.462a4.011,4.011,0,0,1,1.213-2.257c.321-.3.259-.426-.036-.688A5.015,5.015,0,0,1,61.3,82.34a5.108,5.108,0,0,1,9.546-.347,5.045,5.045,0,0,1-1.3,5.771c-.337.294-.4.419-.047.764a4.894,4.894,0,0,1,1.317,3c.152,1.1.366,2.2.559,3.3.05.285.041.439-.343.437-3.332-.018-6.664-.011-10-.014a1.078,1.078,0,0,1-.2-.042" transform="translate(-32.346 -41.931)"/>
    <path id="Trazado_162098" data-name="Trazado 162098" d="M89.4,48.795a5.29,5.29,0,0,1-2.1-3.64,5.113,5.113,0,0,1,10.125-1.387A4.988,4.988,0,0,1,95.71,48.5c-.257.229-.3.333-.031.592a4.6,4.6,0,0,1,1.331,2.672c.208,1.244.407,2.491.628,3.733.058.325,0,.43-.358.429q-4.879-.02-9.758,0c-.3,0-.457-.021-.387-.4.229-1.241.43-2.487.63-3.733a4.887,4.887,0,0,1,1.636-3" transform="translate(-46.318 -21.009)"/>
    <path id="Trazado_162099" data-name="Trazado 162099" d="M121.333,34.893c-.828,0-1.657-.011-2.484.006-.311.006-.381-.071-.309-.385.126-.542.178-1.1.291-1.648A2.555,2.555,0,0,1,121.29,30.8a2.584,2.584,0,0,1,2.6,1.979c.134.562.186,1.142.3,1.709.067.335-.042.422-.371.413-.828-.022-1.656-.007-2.484-.007" transform="translate(-63.009 -16.374)" fill="#e5e8ec"/>
    <path id="Trazado_162100" data-name="Trazado 162100" d="M121.469,15.379c-.806,0-1.612-.011-2.418,0-.429.008-.454-.159-.266-.479a3.04,3.04,0,0,1,5.361.046c.174.31.121.441-.259.434-.806-.015-1.612,0-2.418,0" transform="translate(-63.095 -7.082)" fill="#b07845"/>
    <path id="Trazado_162101" data-name="Trazado 162101" d="M124.21,22.114a2.9,2.9,0,0,1-2.758,2.019,2.948,2.948,0,0,1-2.846-2.019Z" transform="translate(-63.058 -11.757)" fill="#efcfb3"/>
    <path id="Trazado_162102" data-name="Trazado 162102" d="M22.059,57.4A13.3,13.3,0,1,1,35.381,44.1,13.307,13.307,0,0,1,22.059,57.4" transform="translate(-4.665 -16.374)" fill="#cbd0d8"/>
    <path id="Trazado_162103" data-name="Trazado 162103" d="M21.26,98.849v4.57a12.886,12.886,0,0,0-3.135-1.956c-.487-.209-.688-.133-.8.373-.1.44-.444.913-.347,1.286.091.352.723.371,1.1.577a11.19,11.19,0,0,1,2.4,1.841,2.756,2.756,0,0,1,.818,2.468c-.022.2-.015.341-.291.356a10.334,10.334,0,0,1-7.406-2.069,1.194,1.194,0,0,1-.508-1.04c.025-2.774.018-5.548.006-8.322a1.508,1.508,0,0,1,.313-.971,9.187,9.187,0,0,1,7.269-3.929c2.791-.093,5.589-.021,8.383-.038.388,0,.459.13.376.474a2.057,2.057,0,0,1-2,1.562q-1.614.026-3.229,0a.607.607,0,0,0-.673.388,4.484,4.484,0,0,1-3.024,2.551c-.488.136-.586.333-.375.769a3.628,3.628,0,0,1,.254.762c.108.464.305.718.865.351" transform="translate(-6.96 -48.904)" fill="#efcfb3"/>
    <path id="Trazado_162104" data-name="Trazado 162104" d="M35.006,108.383c0-1.758.012-3.516-.009-5.274a1.073,1.073,0,0,1,.436-1.006,3.9,3.9,0,0,0,.956-1.05.5.5,0,0,1,.617-.276c.3.106.1.351.074.524a2.826,2.826,0,0,0,.474,2.122.558.558,0,0,1,.024.752,2.842,2.842,0,0,0,0,3.367.565.565,0,0,1-.016.752,2.956,2.956,0,0,0,1.078,4.31c.783.41.429,1.026.423,1.558a.909.909,0,0,1-.936.9,17.746,17.746,0,0,1-2.17,0c-.625-.04-.941-.459-.944-1.157-.007-1.841,0-3.682,0-5.523" transform="translate(-18.606 -53.563)" fill="#959ea9"/>
    <path id="Trazado_162105" data-name="Trazado 162105" d="M6.426,105.907c0,1.533-.013,3.065.009,4.6.006.387-.105.481-.486.483-1.58.009-1.58.023-1.58-1.567,0-2.692.013-5.385-.012-8.077,0-.5.146-.622.627-.615,1.44.023,1.441,0,1.441,1.45v3.728" transform="translate(-2.317 -53.554)" fill="#fad56f"/>
    <path id="Trazado_162106" data-name="Trazado 162106" d="M45.8,120.252c-.352,0-.706.024-1.055-.005a1,1,0,0,1-.977-1,.966.966,0,0,1,.944-1.028,18.863,18.863,0,0,1,2.171,0,.993.993,0,0,1,.961,1.024,1.032,1.032,0,0,1-.989,1.008c-.349.029-.7.005-1.055.005" transform="translate(-23.271 -62.834)" fill="#eeceb2"/>
    <path id="Trazado_162107" data-name="Trazado 162107" d="M45.8,111.515c-.352,0-.705.022-1.055,0a.991.991,0,0,1-.979-1,.959.959,0,0,1,.941-1.026,19.869,19.869,0,0,1,2.171,0,.985.985,0,0,1,.964,1.018,1.029,1.029,0,0,1-.987,1.007c-.35.027-.7.005-1.055.005" transform="translate(-23.271 -58.193)" fill="#eeceb3"/>
    <path id="Trazado_162108" data-name="Trazado 162108" d="M45.778,102.78c-.352,0-.7.023-1.054-.005a.987.987,0,0,1-.953-1.021.952.952,0,0,1,.969-1c.7-.03,1.407-.029,2.109,0a.991.991,0,0,1,1,.981,1.033,1.033,0,0,1-1.015,1.041c-.35.022-.7,0-1.055,0v0" transform="translate(-23.271 -53.557)" fill="#efcfb3"/>
    <path id="Trazado_162109" data-name="Trazado 162109" d="M124.187,71.085c0,5.9-.009,11.809.015,17.713,0,.587-.171.71-.72.7-1.636-.036-3.273-.025-4.91,0-.407.005-.523-.11-.523-.521q.016-17.931,0-35.862c0-.432.151-.514.538-.51,1.678.017,3.357.026,5.034-.005.477-.009.578.134.577.591q-.023,8.949-.01,17.9" transform="translate(-62.762 -27.962)" fill="#fe816e"/>
    <path id="Trazado_162110" data-name="Trazado 162110" d="M97.95,94.551c0,3.543-.009,7.085.011,10.628,0,.481-.112.631-.611.621-1.678-.033-3.356-.023-5.034,0-.37,0-.5-.081-.5-.477q.018-10.783,0-21.566c0-.378.094-.495.482-.49,1.719.021,3.439.024,5.158,0,.437-.007.5.162.5.538-.012,3.584-.007,7.168-.007,10.752" transform="translate(-48.817 -44.267)" fill="#fe816e"/>
    <path id="Trazado_162111" data-name="Trazado 162111" d="M68.623,122.606c.89,0,1.78.012,2.67-.006.319-.007.432.086.427.417-.018,1.1-.013,2.194,0,3.291,0,.286-.082.4-.388.4q-2.7-.017-5.4,0c-.276,0-.355-.1-.352-.362.01-1.117.018-2.235,0-3.352-.007-.361.154-.4.444-.392.869.013,1.738,0,2.608,0" transform="translate(-34.861 -65.181)" fill="#fe816e"/>
    <path id="Trazado_162112" data-name="Trazado 162112" d="M48.331,4.544h11.81c1.168,0,1.482.311,1.484,1.466q0,1.647,0,3.294c0,1.067-.337,1.4-1.426,1.4-3.335,0-6.671.01-10.007-.01-.467,0-.692.091-.791.6-.2,1.013-.483,2.009-.743,3.01-.048.185-.047.443-.342.442s-.3-.23-.351-.43c-.253-1.023-.526-2.041-.753-3.07-.092-.416-.261-.55-.7-.547-3.336.022-6.671.013-10.007.012-1.213,0-1.489-.28-1.49-1.5,0-1.119,0-2.238,0-3.357,0-.954.351-1.3,1.322-1.3q6,0,12,0" transform="translate(-18.614 -2.416)" fill="#fee9a6"/>
    <path id="Trazado_162113" data-name="Trazado 162113" d="M68.942,104.838c-.807,0-1.614-.015-2.42.007-.349.009-.493-.08-.418-.451.111-.547.165-1.105.293-1.647a2.6,2.6,0,0,1,5.059.049c.054.242.089.488.128.732.206,1.309.205,1.309-1.09,1.309H68.942" transform="translate(-35.134 -53.568)" fill="#fbd670"/>
    <path id="Trazado_162114" data-name="Trazado 162114" d="M71.8,85.287H66.234A2.773,2.773,0,0,1,68.772,83.3,2.881,2.881,0,0,1,71.8,85.287" transform="translate(-35.214 -44.286)" fill="#b17846"/>
    <path id="Trazado_162115" data-name="Trazado 162115" d="M66.157,92.018c1.786,0,3.554,0,5.321,0,.281,0,.3.109.214.342a3.1,3.1,0,0,1-2.877,1.689,2.915,2.915,0,0,1-2.658-2.029" transform="translate(-35.173 -48.921)" fill="#efcfb3"/>
    <path id="Trazado_162116" data-name="Trazado 162116" d="M95.122,65.475c-.807,0-1.615-.011-2.423.006-.322.007-.441-.067-.366-.416.121-.566.165-1.148.3-1.711a2.6,2.6,0,0,1,5.042,0c.13.563.171,1.146.3,1.711.078.354-.042.422-.362.416-.828-.015-1.657-.005-2.485-.005" transform="translate(-49.079 -32.634)" fill="#b3dc7e"/>
    <path id="Trazado_162117" data-name="Trazado 162117" d="M95.261,52.617c.784,0,1.569.006,2.354,0,.308,0,.5.02.292.4a3.041,3.041,0,0,1-5.415,0c-.209-.378-.018-.4.291-.4.826.009,1.652,0,2.478,0" transform="translate(-49.128 -27.973)" fill="#edceb2"/>
    <path id="Trazado_162118" data-name="Trazado 162118" d="M95.194,45.964c-.8,0-1.61-.01-2.414,0-.389.007-.426-.141-.254-.439a3.042,3.042,0,0,1,5.361-.025c.2.337.129.474-.28.465-.8-.017-1.609-.005-2.414-.005" transform="translate(-49.141 -23.347)" fill="#646c77"/>
    <path id="Trazado_162119" data-name="Trazado 162119" d="M13.122,46.428A11.264,11.264,0,1,1,24.387,57.694,11.289,11.289,0,0,1,13.122,46.428" transform="translate(-6.976 -18.699)"/>
    <path id="Trazado_162120" data-name="Trazado 162120" d="M41.41,9.991c0,1,0,1-1,1-1.066,0-1.066,0-1.066-1.057,0-.974,0-.974.968-.974h.062c1.04,0,1.04,0,1.04,1.03" transform="translate(-20.916 -4.764)" fill="#020201"/>
    <path id="Trazado_162121" data-name="Trazado 162121" d="M57.843,10.991c-1.006,0-1.006,0-1.006-.984,0-1.046,0-1.046,1.072-1.046.988,0,.988,0,.988.959,0,1.072,0,1.072-1.054,1.072" transform="translate(-30.218 -4.764)" fill="#020201"/>
    <path id="Trazado_162122" data-name="Trazado 162122" d="M48.088,9.924c0-.963,0-.963.974-.963,1.092,0,1.092,0,1.092,1.1,0,.927,0,.927-.952.927H49.14c-1.052,0-1.052,0-1.052-1.067" transform="translate(-25.567 -4.764)" fill="#020201"/>
    <path id="Trazado_162123" data-name="Trazado 162123" d="M84.143,10.991c-1.054,0-1.054,0-1.054-1.065,0-.964,0-.964.972-.964,1.059,0,1.059,0,1.059,1.069,0,.961,0,.961-.977.961" transform="translate(-44.175 -4.765)"/>
    <path id="Trazado_162124" data-name="Trazado 162124" d="M75.364,8.962c1.013,0,1.013,0,1.013,1.042,0,.987,0,.987-1,.987-1.036,0-1.036,0-1.036-1.008s0-1.021,1.025-1.021" transform="translate(-39.523 -4.765)"/>
    <path id="Trazado_162125" data-name="Trazado 162125" d="M66.61,10.991c-1.022,0-1.022,0-1.022-1.026,0-1,0-1,.985-1,1.061,0,1.061,0,1.061,1.061,0,.968,0,.968-1.025.968" transform="translate(-34.871 -4.765)"/>
    <path id="Trazado_162126" data-name="Trazado 162126" d="M26.683,57.958a9.205,9.205,0,1,1,9.252-9.142,9.193,9.193,0,0,1-9.252,9.142" transform="translate(-9.317 -21.026)" fill="#69d5f3"/>
  </g>
</svg>
