<svg id="Grupo_117468" data-name="Grupo 117468" xmlns="http://www.w3.org/2000/svg" xmlns:xlink="http://www.w3.org/1999/xlink" width="63.984" height="63.971" viewBox="0 0 63.984 63.971">
  <defs>
    <clipPath id="clip-path">
      <rect id="Rectángulo_41136" data-name="Rectángulo 41136" width="63.984" height="63.971" fill="none"/>
    </clipPath>
  </defs>
  <g id="Grupo_117467" data-name="Grupo 117467" clip-path="url(#clip-path)">
    <path id="Trazado_162181" data-name="Trazado 162181" d="M61.1,0a4.9,4.9,0,0,1,1.681.863,3.42,3.42,0,0,1,1.185,2.522c.023,1.061.036,2.125,0,3.186A3.231,3.231,0,0,1,62,9.591a.87.87,0,0,0-.577.985q.015,18.8.01,37.606a5.38,5.38,0,0,1-3.093,5.207,5.629,5.629,0,0,1-2.607.5c-7.371-.006-14.742,0-22.113-.017-.582,0-.794.157-.7.722a1.1,1.1,0,0,1,0,.374c-.1.541.129.772.647.971a4.138,4.138,0,0,1,2.53,4.647,4.192,4.192,0,0,1-8.2.125,4.082,4.082,0,0,1,2.337-4.686c.746-.3.833-.69.838-1.365,0-.617-.134-.793-.782-.791q-11.087.041-22.175.015A5.3,5.3,0,0,1,2.7,49.795a7.094,7.094,0,0,1-.163-1.735q0-18.772.012-37.544A.822.822,0,0,0,1.966,9.6a3.285,3.285,0,0,1-1.8-2.043C.122,7.448.153,7.3,0,7.247v-4.5A3.115,3.115,0,0,1,2.873,0h51.6c.661.28.769.455.741,1.194a1.221,1.221,0,0,1-1.231.873c-.229.012-.458.01-.687.01q-22.576,0-45.153,0a3.33,3.33,0,0,1-.374-.01c-1.332.01-2.664,0-4,.01A1.5,1.5,0,0,0,2.08,3.77c-.017.811-.023,1.624,0,2.435.037,1.156.548,1.68,1.7,1.706,1.477.035,2.955.028,4.432.029q25.725.012,51.449,0a3.378,3.378,0,0,0,1.053-.066,1.49,1.49,0,0,0,1.194-1.605q.032-1.279,0-2.557a1.5,1.5,0,0,0-1.675-1.658c-.707-.022-1.414.013-2.121-.014a1.175,1.175,0,0,1-1.278-.956A.953.953,0,0,1,57.6,0Z"/>
    <path id="Trazado_162182" data-name="Trazado 162182" d="M37.03,21.352q13.459,0,26.917-.012c.524,0,.642.141.641.654q-.023,18.8-.013,37.6a3.511,3.511,0,0,1-2.631,3.695,4.311,4.311,0,0,1-1.115.093q-23.825,0-47.651,0a3.458,3.458,0,0,1-3.749-3.722Q9.422,40.8,9.412,21.936c0-.532.188-.592.639-.592q13.489.017,26.979.008" transform="translate(-5.015 -11.372)" fill="#f8f5f8"/>
    <path id="Trazado_162183" data-name="Trazado 162183" d="M63.137,2.073h1.825a1.054,1.054,0,0,0,1.208.911c.748-.022,1.5-.017,2.245,0A1.6,1.6,0,0,1,70.1,4.665q.026,1.434,0,2.869a1.524,1.524,0,0,1-1.221,1.58,1.71,1.71,0,0,1-.679.046q-25.893,0-51.788,0c-.946,0-1.284-.273-1.334-1.218-.065-1.227-.054-2.457,0-3.684A1.375,1.375,0,0,1,15.759,3c.27-.007.541-.019.811-.02H61.737c.951,0,1.124-.113,1.4-.905" transform="translate(-8.013 -1.105)" fill="#4a7fa9"/>
    <path id="Trazado_162184" data-name="Trazado 162184" d="M9.879,4.035a3.192,3.192,0,0,0-.511,2.01c.046.872.01,1.748.011,2.622,0,1.211.251,1.468,1.417,1.468H62.379c.208,0,.416.008.624.013a1.084,1.084,0,0,1-.724.105q-28.154,0-56.308-.006c-1.375,0-1.962-.6-1.965-1.987,0-.874-.014-1.748.006-2.622A1.574,1.574,0,0,1,5.635,4.022c1.414-.015,2.829.007,4.244.013" transform="translate(-2.132 -2.141)" fill="#407092"/>
    <path id="Trazado_162185" data-name="Trazado 162185" d="M65.821,127.664a2.311,2.311,0,1,1,2.326-2.277,2.314,2.314,0,0,1-2.326,2.277" transform="translate(-33.855 -65.567)" fill="#fefefe"/>
    <path id="Trazado_162186" data-name="Trazado 162186" d="M22.654,42.717c-.7-.312-.85-.58-.721-1.309.109-.614.221-1.228.362-1.834a1.066,1.066,0,0,0-1.045-1.359c-2.311-.007-4.623,0-6.934,0-.187,0-.376.007-.561-.01a.865.865,0,0,1-.843-.849.843.843,0,0,1,.653-.941,2.5,2.5,0,0,1,.676-.071c2.332-.005,4.664.007,7-.009.728-.005,1.432-.015,1.9.788A17.225,17.225,0,0,1,25.7,33.145a16.029,16.029,0,0,1,23.957-.357c.391.426.633.48.967.011a3.188,3.188,0,0,1,3.02-1.282c2.6.1,5.2.027,7.807.029.8,0,1.21.325,1.207.933s-.436.938-1.218.939q-4.06,0-8.121,0a3.276,3.276,0,0,0-1.963,1.315c-.083.2.069.314.149.444A16.013,16.013,0,0,1,53.843,45.2a15.315,15.315,0,0,1-.8,3.708,1.065,1.065,0,0,0-.142.628c1.014,0,2.03.015,3.046-.007a1.2,1.2,0,0,1,1.1.568q1.33,1.925,2.69,3.828a1.069,1.069,0,0,1,.02,1.374q-1.374,1.932-2.725,3.88a1.16,1.16,0,0,1-1.046.555c-.367-.008-.734,0-1.268,0,1.144,1.142,2.171,2.162,3.192,3.188.176.177.386.12.586.12,1.832,0,3.665,0,5.5,0,.743,0,1.141.335,1.136.934s-.418.935-1.152.937c-2.02.006-4.04-.007-6.059.008a1.509,1.509,0,0,1-1.155-.5c-1.433-1.453-2.887-2.885-4.318-4.339a1.114,1.114,0,0,0-.873-.361q-12.15.015-24.3,0a1.181,1.181,0,0,0-.929.38c-1.43,1.455-2.884,2.888-4.319,4.338a1.454,1.454,0,0,1-1.1.479c-2.04-.011-4.081-.005-6.122-.005a2.017,2.017,0,0,1-.249-.007.972.972,0,0,1-.9-.948.927.927,0,0,1,.98-.914c1.853-.011,3.707-.015,5.56,0a1.218,1.218,0,0,0,.981-.4c.916-.952,1.864-1.875,2.91-2.919-1.154,0-2.145,0-3.136,0a2.285,2.285,0,0,1-2.576-2.571c0-1.749-.006-3.5,0-5.247a2.225,2.225,0,0,1,2.381-2.377c.683-.006,1.366,0,2.1,0a19.216,19.216,0,0,1-.9-3.533c-.115-.858-.006-1.1.792-1.441.618-.106.978.129,1.15.8s.238,1.4.455,2.073c.764,2.385.416,1.887,2.547,1.939,1.6.04,3.206.011,4.809,0,.177,0,.376.075.524-.089a9.891,9.891,0,0,1-1.909-3.331,7.618,7.618,0,0,1,1.673-7.554,7.3,7.3,0,0,1,3.392-2.24c.4-.122.441-.281.21-.612-.453-.648-.922-1.285-1.371-1.934a1.314,1.314,0,0,1,.023-1.868c.4-.58.814-1.157,1.214-1.74.025-.036.031-.076.005-.165a9.53,9.53,0,0,0-1.437.316,12.9,12.9,0,0,0-5.286,2.818,14.275,14.275,0,0,0-3.284,4.038c-.129.238-.241.484-.371.72A.87.87,0,0,0,25.316,39c.339.271.621.612.942.91a3.139,3.139,0,0,1,.371.413,1.161,1.161,0,0,1,.156,1.277,1.01,1.01,0,0,1-1.127.572A4.255,4.255,0,0,1,24.1,40.722a7.662,7.662,0,0,1-.228,1.3.921.921,0,0,1-1.215.7" transform="translate(-6.878 -14.7)"/>
    <path id="Trazado_162187" data-name="Trazado 162187" d="M33.772,57.614c.777-.05.97-.24,1.128-1.02a3.194,3.194,0,0,1,.243-1.053c.588.418.965,1.063,1.6,1.4a1.692,1.692,0,0,1,.175,1.145,15.65,15.65,0,0,0,.8,5.331.933.933,0,0,0,1.042.738c1.619,0,3.238-.065,4.856.035.08.063.281.114.085.233-.107.065-.284.017-.429.017-2.242,0-4.484-.019-6.726.01a.687.687,0,0,1-.753-.537,13.666,13.666,0,0,1-.891-3.355,1.1,1.1,0,0,0-1.048-1.1,10.662,10.662,0,0,0-.087-1.847" transform="translate(-17.997 -29.597)" fill="#f0ca85"/>
    <path id="Trazado_162188" data-name="Trazado 162188" d="M105.018,30.793c-1.081,0-2.163.006-3.245,0-.715,0-1.152-.382-1.135-.955.017-.549.446-.913,1.122-.915q3.276-.01,6.552,0c.675,0,1.09.371,1.093.933s-.4.93-1.08.936c-1.1.01-2.2,0-3.307,0" transform="translate(-53.628 -15.409)"/>
    <path id="Trazado_162189" data-name="Trazado 162189" d="M16.7,39.269c.894,0,1.788-.008,2.682,0a.891.891,0,0,1,1.009.865.909.909,0,0,1-.961.994q-2.775.036-5.551,0a.937.937,0,1,1,.076-1.862c.915-.008,1.83,0,2.744,0" transform="translate(-6.868 -20.924)" fill="#010101"/>
    <path id="Trazado_162190" data-name="Trazado 162190" d="M17.631,97.328c.705,0,1.411-.01,2.116,0a.893.893,0,0,1,.986.887.913.913,0,0,1-.977.975q-2.146.032-4.293,0a.933.933,0,1,1,.053-1.861c.7-.012,1.41,0,2.116,0" transform="translate(-7.721 -51.862)" fill="#010101"/>
    <path id="Trazado_162191" data-name="Trazado 162191" d="M114.473,97.328c.7,0,1.41-.01,2.115,0a.891.891,0,0,1,.987.884.913.913,0,0,1-.973.978q-2.145.032-4.292,0a.933.933,0,1,1,.047-1.861c.7-.012,1.41,0,2.115,0" transform="translate(-59.328 -51.862)" fill="#010101"/>
    <path id="Trazado_162192" data-name="Trazado 162192" d="M65.057,39.1a8.915,8.915,0,0,0-3.131-.975.568.568,0,0,1-.445-.289c-.618-.888-1.233-1.777-1.868-2.651a.475.475,0,0,1,0-.657c.624-.858,1.231-1.728,1.829-2.6a.6.6,0,0,1,.627-.283,14.215,14.215,0,0,1,9.728,4.746c.261.285.318.48-.01.745a4.7,4.7,0,0,0-.7.71.924.924,0,0,0,1.285,1.315,11.572,11.572,0,0,0,.861-.808,13.207,13.207,0,0,1,1.942,5.135A14.139,14.139,0,0,1,63.789,59.767a34.512,34.512,0,0,1-7.032.215c-.011,0-.021-.028-.072-.1.529-.757,1.054-1.548,1.622-2.307a1.173,1.173,0,0,0-.009-1.585c-.559-.746-1.078-1.523-1.61-2.28.122-.223.31-.132.456-.133,1.373-.009,2.747,0,4.121-.012a8.389,8.389,0,0,0,3.919-1.1,7.881,7.881,0,0,0,4.146-2.616,6.657,6.657,0,0,0-.021-8.071A6.565,6.565,0,0,0,66.1,39.516c-.355-.117-.691-.276-1.038-.411" transform="translate(-30.206 -16.861)" fill="#a1e09e"/>
    <path id="Trazado_162193" data-name="Trazado 162193" d="M59.635,49.475a5.86,5.86,0,1,1-5.878,5.844,5.877,5.877,0,0,1,5.878-5.844" transform="translate(-28.646 -26.364)" fill="#f8f5f8"/>
    <path id="Trazado_162194" data-name="Trazado 162194" d="M46.981,51.623c-.134.185-.333.138-.513.138-1.576,0-3.152-.017-4.727.013-.45.008-.6-.193-.738-.566a17.168,17.168,0,0,1-.9-6.834,1,1,0,0,0,1.077-.573,1.023,1.023,0,0,0-.359-1.221,2.8,2.8,0,0,1-.24-.279.945.945,0,0,1,.012-.786,15.164,15.164,0,0,1,6.914-8.723c.3-.179.661-.221.948-.425a6.513,6.513,0,0,1,1.94-.407c-.573.818-1.077,1.575-1.621,2.3a1.132,1.132,0,0,0,0,1.527c.572.764,1.1,1.56,1.655,2.34.142.2.221.315-.128.41a7.731,7.731,0,0,0-3.349,13.027.185.185,0,0,1,.026.057" transform="translate(-21.358 -17.031)" fill="#fedf7d"/>
    <path id="Trazado_162195" data-name="Trazado 162195" d="M30,78.617c3.222-.01,6.443-.016,9.666-.036a.613.613,0,0,1,.544.337c.6.852,1.178,1.712,1.794,2.548a.5.5,0,0,1-.017.7c-.588.806-1.166,1.619-1.72,2.447a.829.829,0,0,1-.817.424c-.552-.03-1.106-.008-1.728-.008.123-.218.211-.353.279-.5a.851.851,0,0,0-.264-1.114.835.835,0,0,0-1.144,0c-.467.412-.9.867-1.337,1.308a.779.779,0,0,1-.584.3c-1.558-.021-3.116-.029-4.674-.042a1.093,1.093,0,0,1-.2-.764q-.008-2.426,0-4.851a1.02,1.02,0,0,1,.2-.76" transform="translate(-15.874 -41.874)" fill="#e17f85"/>
    <path id="Trazado_162196" data-name="Trazado 162196" d="M87.246,84.991H82.7a21.925,21.925,0,0,0,2.511-1.72,15.618,15.618,0,0,0,3.633-4.237.8.8,0,0,1,.833-.463c.914.03,1.83.018,2.745,0a.687.687,0,0,1,.673.321c.577.863,1.177,1.712,1.791,2.549a.509.509,0,0,1,0,.706q-.919,1.258-1.791,2.55a.664.664,0,0,1-.673.33,2.5,2.5,0,0,0-.623,0A2.935,2.935,0,0,1,88.786,83.8c-.54-.688-1.1-.752-1.545-.387s-.441.819,0,1.577" transform="translate(-44.07 -41.869)" fill="#9cc5fa"/>
    <path id="Trazado_162197" data-name="Trazado 162197" d="M74.609,47.619a6.788,6.788,0,0,1,.617,13.308,4.762,4.762,0,0,1-.491.056,8.005,8.005,0,0,0,3.486-4.745,7.711,7.711,0,0,0-3.214-8.326c-.136-.092-.266-.194-.4-.292" transform="translate(-39.758 -25.375)" fill="#96ce91"/>
    <path id="Trazado_162198" data-name="Trazado 162198" d="M47.461,32.832c-.82.586-1.728,1.036-2.519,1.669a14.53,14.53,0,0,0-5.357,8.265,10.27,10.27,0,0,0-.951-.89c-.512-.376-.526-.755-.256-1.307a14.286,14.286,0,0,1,8.6-7.625c.156-.052.321-.075.482-.111" transform="translate(-20.358 -17.496)" fill="#f0ca85"/>
    <path id="Trazado_162199" data-name="Trazado 162199" d="M29.356,78.617q0,3.187,0,6.375c-.592.139-.773-.122-.765-.7q.036-2.494,0-4.99c-.009-.582.185-.824.768-.69" transform="translate(-15.234 -41.875)" fill="#dc636e"/>
  </g>
</svg>
