<svg xmlns="http://www.w3.org/2000/svg" xmlns:xlink="http://www.w3.org/1999/xlink" width="113.6" height="99.738" viewBox="0 0 113.6 99.738">
  <defs>
    <clipPath id="clip-path">
      <rect id="Rectángulo_40753" data-name="Rectángulo 40753" width="113.6" height="99.738" fill="none"/>
    </clipPath>
  </defs>
  <g id="Grupo_116430" data-name="Grupo 116430" transform="translate(-14 -371)">
    <g id="Grupo_116391" data-name="Grupo 116391" transform="translate(14 371)" clip-path="url(#clip-path)">
      <path id="Trazado_161061" data-name="Trazado 161061" d="M2.241,99.739A3.437,3.437,0,0,1,0,96.1Q.06,74.748.007,53.4a8.615,8.615,0,0,1,2.616-6.467C5.59,44,8.332,40.838,11.459,37.963a6.582,6.582,0,0,1-3.7-4.608,6.379,6.379,0,0,1,5.966-7.681,1.146,1.146,0,0,0,1.184-.814,9.335,9.335,0,0,1,8.14-5.8A9.391,9.391,0,0,1,31.953,23.4c.8,1.15,1.864,1.113,2.606-.119,3.9-6.478,7.928-12.884,11.657-19.459,2.785-4.912,9.107-5.18,12.044-.3,1.616,2.684,3.544,5.177,5.269,7.8.547.831.755.686,1.189-.066,1.143-1.981,2.355-3.921,3.545-5.874,1.455-2.388,3.416-2.4,4.854-.037q3.276,5.391,6.542,10.787c1.474,2.431.637,4.135-2.2,4.444-.077.411.245.658.421.951,1.959,3.255,3.934,6.5,5.9,9.754,1.247,2.066.632,3.621-1.785,4.287l5.488,9.05a7.214,7.214,0,0,1,.412-.66c.582-.721.868-1.251-.265-1.869-.98-.535-1.016-1.807-.322-2.961,1.653-2.749,3.326-5.487,4.99-8.229-.148-.373-.5-.262-.75-.355a2.068,2.068,0,0,1-1.241-2.96c1.966-3.378,3.982-6.731,6.074-10.032a2.052,2.052,0,0,1,3.413.057q3.1,4.914,6.017,9.938a2.008,2.008,0,0,1-1.313,2.983c-.694.2-.675.393-.346.925,1.514,2.447,3,4.911,4.488,7.373,1.027,1.7.868,2.557-.783,3.675-.579.392-.107.64.035.878,1.572,2.627,3.172,5.238,4.757,7.857.336.555.639,1.129.957,1.694v1.331a2.487,2.487,0,0,1-2.7,1.661c-2.473.015-4.946,0-7.419.008-1.459.006-1.517.065-1.525,1.473-.007,1.144-.012,2.289,0,3.433.015,1.169.113,1.281,1.259,1.29,2.252.02,4.5,0,6.755.007a5.83,5.83,0,0,1,1.959.3A2.536,2.536,0,0,1,113.6,64.69V97.52a2.262,2.262,0,0,1-2.218,2.218Z" transform="translate(0 0)"/>
      <path id="Trazado_161062" data-name="Trazado 161062" d="M64.687,76.355l-5.4,8.91c-.67,1.105-1.362,2.2-2,3.32a2.406,2.406,0,0,0,2.153,3.794c3.77.032,7.54.037,11.309-.01.871-.011,1.126.221,1.109,1.1q-.084,4.378,0,8.759c.016.854-.25,1.04-1.061,1.032-4.176-.04-8.353-.053-12.529.007-.993.014-1.138-.331-1.105-1.2a17.992,17.992,0,0,0-.34-5.287,9.1,9.1,0,0,0-8.75-6.856.816.816,0,0,0-.111,0c-1.962.236-3.3-.02-4.253-2.312-1.129-2.721-3.826-3.861-6.8-3.595a6.905,6.905,0,0,0-6.274,4.86,1.311,1.311,0,0,1-1.555,1.062,13.015,13.015,0,0,0-5.35.6,9.13,9.13,0,0,0-5.8,8.189c-.033,1.255-.039,2.513-.006,3.768.015.586-.194.761-.766.757q-4.435-.033-8.87,0c-.555,0-.78-.129-.774-.735.03-3.1-.007-6.21.034-9.314A4.822,4.822,0,0,1,8.922,89.9c2.727-2.863,5.438-5.743,8.245-8.528a7.1,7.1,0,0,1,5.375-2.128c7.168.114,14.34.067,21.51.032a5.455,5.455,0,0,0,4.893-8.145,4.922,4.922,0,0,0-3.108-2.5,3.22,3.22,0,0,1-1.948-1.273,3.439,3.439,0,0,0-1.23-1.1c-1.061-.485-1.04-1-.439-1.909,1.2-1.816,2.3-3.7,3.383-5.592a1.362,1.362,0,0,1,1.412-.782c1.218.05,2.44.044,3.658,0a2.145,2.145,0,0,1,2.1.983c1.713,3,4.338,3.9,7.6,3.47a2.5,2.5,0,0,1,2.389,1.1c.845,1.073,1.736,2.113,2.651,3.128a.8.8,0,0,1,.082,1.146c-.867,1.374-1.7,2.773-2.534,4.164-1.29,2.141-.726,3.64,1.726,4.38" transform="translate(-5.283 -40.774)" fill="#808081"/>
      <path id="Trazado_161063" data-name="Trazado 161063" d="M193.906,266.535a53.932,53.932,0,0,0,.206-8.205c.009-.839.188-1.2,1.078-1.4a10.414,10.414,0,0,0,6.439-4.561,8.655,8.655,0,0,1,4.857-3.645,9.613,9.613,0,0,1,2.627-.333c3.955.01,7.911,0,11.866.006a10.224,10.224,0,0,0,8.618-4.217,8.906,8.906,0,0,1,7.818-3.788c3.14.079,6.284.037,9.426,0,.7-.008.937.161.934.907q-.041,12.032,0,24.065c0,.91-.309,1.233-1.226,1.232q-26.006-.027-52.012-.016c-.217,0-.435-.036-.628-.052" transform="translate(-136.375 -169.07)" fill="#c08d6b"/>
      <path id="Trazado_161064" data-name="Trazado 161064" d="M84.835,220.552v1.372q0,12.309,0,24.619c0,4.032-2.047,6.091-6.053,6.091q-11.478,0-22.956,0c-3.68,0-5.8-2.095-5.806-5.744q-.011-12.587,0-25.174v-1.133c2.157,2.123,4.671,2.193,7.254,2.174,6.469-.046,12.938-.028,19.407-.009,2.844.008,5.724.24,8.157-2.2" transform="translate(-35.176 -155.115)" fill="#f4c74c"/>
      <path id="Trazado_161065" data-name="Trazado 161065" d="M197,133.392q-7.206,0-14.411,0c-1.1,0-1.16-.092-.6-1.011,2.466-4.075,4.952-8.138,7.4-12.224a1.356,1.356,0,0,1,1.346-.722q7.7.027,15.409,0a1.449,1.449,0,0,1,1.415.81q2.927,4.9,5.923,9.751a1.446,1.446,0,0,1-.016,1.6,2.889,2.889,0,0,1-3.162,1.854c-4.43-.143-8.867-.049-13.3-.049" transform="translate(-127.748 -83.995)" fill="#57ae12"/>
      <path id="Trazado_161066" data-name="Trazado 161066" d="M49.689,86.644c-4.062,0-8.124.014-12.186,0a4.36,4.36,0,0,1-4.139-2.789,4.123,4.123,0,0,1,1.221-4.617,3.826,3.826,0,0,1,2.738-1.007,2.565,2.565,0,0,0,2.784-1.851,7.5,7.5,0,0,1,13.447-1.092,2.72,2.72,0,0,0,2.723,1.467,4.709,4.709,0,0,1,4.295,2.06,3.269,3.269,0,0,0,2.149,1.4A3.226,3.226,0,0,1,65.435,83.7,3.318,3.318,0,0,1,62.1,86.634c-4.136.029-8.272.009-12.408.01" transform="translate(-23.279 -50.351)" fill="#9ae4f8"/>
      <path id="Trazado_161067" data-name="Trazado 161067" d="M182.111,217.987c2.144,0,4.289.022,6.432-.013.674-.011.972.105.965.889-.04,4.177-.02,8.355-.017,12.532,0,.411.012.788-.4,1.069A12.614,12.614,0,0,0,186.1,235.7a8.463,8.463,0,0,1-4.605,3.277c-.49.143-.743.117-.946-.5a4.007,4.007,0,0,0-4.274-2.973c-1.452-.007-1.452-.007-1.452-1.478,0-5.027.017-10.055-.018-15.083-.005-.78.212-1,.987-.982,2.106.053,4.214.018,6.321.018" transform="translate(-122.94 -153.298)" fill="#86d047"/>
      <path id="Trazado_161068" data-name="Trazado 161068" d="M12.129,250.808c-1.13,0-2.312-.035-3.491.011-.895.035-1.148-.371-1.14-1.2.029-2.994.011-5.988.011-8.983,0-7.209.013-14.417-.018-21.626,0-.8.159-1.072,1.019-1.054,2.808.061,5.619.053,8.428,0,.8-.014.977.243.972,1-.032,5.138-.042,10.277.006,15.415.009.938-.26,1.167-1.168,1.148-2.592-.053-4.1.975-4.663,3.03a1.326,1.326,0,0,0-.088.319c-.023,3.944-.214,7.892.132,11.935" transform="translate(-5.268 -153.287)" fill="#86d047"/>
      <path id="Trazado_161069" data-name="Trazado 161069" d="M142.034,20.089c1.424-2.369,2.766-4.6,4.11-6.833.761-1.264,1.5-2.54,2.294-3.786a4.3,4.3,0,0,1,7.383-.26c2.234,3.166,4.38,6.395,6.59,9.578a.893.893,0,0,1-.006,1.183c-.357.514-.67,1.061-.987,1.6-1.178,2.007-.266,3.8,2.04,4.031.145.014.29.031.458.049a1.678,1.678,0,0,1-.109.331c-.683,1.138-1.372,2.272-2.122,3.512-.922-1.077-1.828-2.084-2.675-3.139a4.741,4.741,0,0,0-3.944-1.848c-4.463-.011-3.337.53-6.092-2.82a4.176,4.176,0,0,0-3.379-1.6h-3.559" transform="translate(-99.893 -5.09)" fill="#d9e5f0"/>
      <path id="Trazado_161070" data-name="Trazado 161070" d="M262.132,217.993c2.919,0,5.84.024,8.758-.016.743-.01,1.121.146.989.957-.3,1.834.832,3.98-.587,5.479a46.74,46.74,0,0,1-3.847,4.12,7.689,7.689,0,0,1-4.874,1.859c-3.178.046-6.357,0-9.534.04-.732.01-.844-.275-.839-.908.024-3.548.034-7.1-.006-10.643-.008-.766.268-.91.96-.9,2.993.033,5.987.014,8.98.014" transform="translate(-177.368 -153.304)" fill="#86d047"/>
      <path id="Trazado_161071" data-name="Trazado 161071" d="M285.889,154.5c2.1-3.462,4.145-6.828,6.178-10.2a.931.931,0,0,1,.949-.4q6.094,0,12.187,0a1.007,1.007,0,0,1,1.025.467c2.009,3.35,4.039,6.687,6.131,10.14Z" transform="translate(-201.067 -101.203)" fill="#57ae12"/>
      <path id="Trazado_161072" data-name="Trazado 161072" d="M211.244,81.842c-3.469,0-6.938-.02-10.407.013-.911.009-1.13-.135-.594-1q3.4-5.5,6.711-11.064a1.227,1.227,0,0,1,1.236-.68c2.1.031,4.207.036,6.31,0a1.226,1.226,0,0,1,1.218.709q3.326,5.55,6.712,11.063c.484.786.329.982-.557.975-3.543-.027-7.086-.011-10.628-.011" transform="translate(-140.629 -48.602)" fill="#86d047"/>
      <path id="Trazado_161073" data-name="Trazado 161073" d="M260.521,173.957c-.133.292-.2.454-.28.614-.88,1.856.048,3.351,2.122,3.365,2.842.02,5.684.03,8.526-.011.753-.011,1.034.168,1,.971-.061,1.659-.048,3.322,0,4.981.018.694-.147.954-.9.951q-8.969-.046-17.937,0c-.7,0-.866-.236-.86-.893.029-3.026.011-6.053.015-9.079,0-.428-.114-.91.611-.9,2.53.02,5.06.008,7.708.008" transform="translate(-177.365 -122.339)" fill="#808081"/>
      <path id="Trazado_161074" data-name="Trazado 161074" d="M101.614,180.225c0,2.032-.032,4.065.018,6.1.017.7-.2.858-.869.849q-4.212-.055-8.425,0c-.67.008-.887-.171-.882-.866q.047-6.152,0-12.3c0-.645.114-.9.838-.894,2.845.043,5.691.036,8.536,0,.628-.007.808.171.8.8-.037,2.106-.014,4.212-.014,6.318" transform="translate(-64.321 -121.746)" fill="#fbdc85"/>
      <path id="Trazado_161075" data-name="Trazado 161075" d="M318.289,113.113H300.421c.743-1.24,1.413-2.368,2.093-3.491,1.107-1.83,2.238-3.646,3.319-5.49a1.308,1.308,0,0,1,1.312-.765c1.512.047,3.026.022,4.539.01a1,1,0,0,1,1.011.493c1.819,3.035,3.661,6.056,5.593,9.243" transform="translate(-211.288 -72.697)" fill="#86d047"/>
      <path id="Trazado_161076" data-name="Trazado 161076" d="M220.663,32.4c-2.218,0-4.436-.012-6.655.007-.688.006-.889-.151-.487-.808q3.379-5.528,6.719-11.081c.361-.6.588-.639.965-.011q3.309,5.507,6.663,10.986c.458.748.269.932-.552.919-2.218-.034-4.437-.012-6.655-.012" transform="translate(-150.026 -14.105)" fill="#b1e16d"/>
      <path id="Trazado_161077" data-name="Trazado 161077" d="M231.741,199.9v-1.114c0-7.87.015-15.74-.019-23.61,0-.949.151-1.348,1.238-1.312,2.625.085,2.628.023,2.628,2.684,0,7.242-.012,14.484.016,21.726,0,.816-.148,1.164-1.066,1.168a17.381,17.381,0,0,0-2.8.459" transform="translate(-162.971 -122.279)" fill="#a47453"/>
      <path id="Trazado_161078" data-name="Trazado 161078" d="M317.336,74c-1.625,0-3.249-.01-4.874.005-.592.006-.735-.138-.4-.69q2.513-4.1,4.983-8.234c.312-.52.5-.371.745.041q2.455,4.074,4.933,8.135c.33.54.311.764-.4.752C320.659,73.977,319,74,317.336,74" transform="translate(-219.35 -45.536)" fill="#b1e16c"/>
      <path id="Trazado_161079" data-name="Trazado 161079" d="M151.433,181.456c0-1.993.019-3.986-.01-5.978-.01-.673.169-.731.753-.468,2.792,1.261,4.288,4.262,3.929,7.967-.28,2.887-1.516,4.548-3.8,5.228-.7.208-.9.079-.885-.661.04-2.029.014-4.059.014-6.089" transform="translate(-106.493 -122.983)" fill="#fadb85"/>
      <path id="Trazado_161080" data-name="Trazado 161080" d="M35.667,297.119c-1.308,0-2.489.019-3.669-.005a1.86,1.86,0,0,1-2.033-2.084c-.017-2.99-.025-5.979,0-8.968a2.469,2.469,0,0,1,3.519-1.987c.324.2.192.529.193.8.012,1.845.006,3.691.006,5.536,0,3.493.088,3.8,1.98,6.706" transform="translate(-21.064 -199.6)" fill="#fb647d"/>
      <path id="Trazado_161081" data-name="Trazado 161081" d="M54.682,181.541c0,2-.033,3.992.016,5.987.019.783-.233.835-.893.64a5.156,5.156,0,0,1-3.773-4.9,12.245,12.245,0,0,1,.23-3.963,7.019,7.019,0,0,1,3.694-4.338c.6-.307.745-.164.736.477-.027,2.032-.01,4.066-.01,6.1" transform="translate(-35.153 -122.945)" fill="#fbdc85"/>
      <path id="Trazado_161082" data-name="Trazado 161082" d="M167.5,297.622a8.2,8.2,0,0,0,2.188-6c-.028-2.1.017-4.2-.019-6.305-.011-.634.2-.792.811-.8,2.336-.036,2.869.458,2.87,2.8,0,2.692.011,5.384,0,8.076-.009,1.583-.646,2.21-2.212,2.224-1.132.01-2.265,0-3.634,0" transform="translate(-117.801 -200.102)" fill="#fb657d"/>
      <path id="Trazado_161083" data-name="Trazado 161083" d="M133.14,179.98c0-2.069.018-4.139-.012-6.207-.008-.565.136-.748.733-.766,2.506-.074,2.505-.1,2.505,2.442,0,3.547-.02,7.094.016,10.641.008.764-.2,1.008-.985,1-2.258-.021-2.258.015-2.258-2.233V179.98" transform="translate(-93.63 -121.661)" fill="#fa647d"/>
      <path id="Trazado_161084" data-name="Trazado 161084" d="M76.438,180.074c0,2.028-.023,4.056.013,6.083.012.679-.125.962-.895.961-2.3,0-2.3.035-2.3-2.295,0-3.577.021-7.153-.017-10.729-.008-.774.113-1.09,1-1.067,2.2.056,2.2,0,2.2,2.18v4.867" transform="translate(-51.509 -121.69)" fill="#fb657e"/>
      <path id="Trazado_161085" data-name="Trazado 161085" d="M347.3,222.45c-1.327,0-2.654-.029-3.98.012-.634.02-.943-.1-.894-.831.066-.991.035-1.99.009-2.984-.012-.471.136-.646.626-.642q4.09.028,8.181,0c.717,0,1,.336.965,1.021-.056,1.1.441,2.494-.182,3.209-.594.681-2.013.148-3.068.206-.551.03-1.105.005-1.658.005" transform="translate(-240.83 -153.324)" fill="#86d047"/>
      <path id="Trazado_161086" data-name="Trazado 161086" d="M328.642,194.181c0,1.918-.041,3.837.02,5.754.024.76-.26,1-.952,1.119-1.743.3-1.739.326-1.739-1.516,0-3.726.028-7.452-.021-11.177-.011-.85.247-1.055,1.058-1.03,1.632.051,1.633,0,1.633,1.648v5.2" transform="translate(-229.242 -131.75)" fill="#a47353"/>
      <path id="Trazado_161087" data-name="Trazado 161087" d="M92.452,156.765a4.906,4.906,0,0,1,4.6-3.719,5.292,5.292,0,0,1,4.937,3.142c.155.492-.027.581-.452.58-3.022-.006-6.043,0-9.083,0" transform="translate(-65.022 -107.636)" fill="#808081"/>
      <path id="Trazado_161088" data-name="Trazado 161088" d="M80.481,258.834c2.587,0,5.175-.013,7.762,0a3.838,3.838,0,0,1,4.143,4.156q.028,4.6,0,9.2a3.8,3.8,0,0,1-3.953,4.134q-7.927.1-15.856,0c-2.5-.031-3.926-1.6-3.941-4.11q-.028-4.657,0-9.314a3.762,3.762,0,0,1,4.083-4.068c2.587-.018,5.175,0,7.762,0" transform="translate(-48.262 -182.035)"/>
      <path id="Trazado_161089" data-name="Trazado 161089" d="M93.783,242.671c-1.622,0-3.243-.007-4.865,0-.754,0-1.355-.22-1.372-1.072-.018-.918.612-1.153,1.41-1.151q4.865.009,9.73,0c.767,0,1.362.259,1.376,1.08.016.887-.6,1.159-1.415,1.149-1.621-.021-3.243-.006-4.865-.006" transform="translate(-61.571 -169.108)"/>
      <path id="Trazado_161090" data-name="Trazado 161090" d="M85.729,284.52c2.919,0,5.839.023,8.758-.016.718-.009.96.176.934.917-.055,1.587,0,3.178-.022,4.766-.018,1.371-.586,1.989-1.958,2q-7.705.036-15.41,0c-1.419-.007-1.93-.566-1.945-1.973-.017-1.552.041-3.106-.023-4.656-.033-.8.155-1.075,1.019-1.057,2.881.06,5.765.023,8.647.023" transform="translate(-53.493 -200.088)" fill="#fb657d"/>
      <path id="Trazado_161091" data-name="Trazado 161091" d="M85.688,269.5c-2.92,0-5.84-.023-8.76.017-.692.009-.863-.191-.859-.866.013-1.91.409-2.347,2.345-2.348,4.953,0,9.906.006,14.859-.007.916,0,1.7.155,2.03,1.151.506,1.512.137,2.053-1.409,2.053H85.688" transform="translate(-53.5 -187.291)" fill="#f88ea5"/>
    </g>
  </g>
</svg>
