<svg id="Grupo_116435" data-name="Grupo 116435" xmlns="http://www.w3.org/2000/svg" xmlns:xlink="http://www.w3.org/1999/xlink" width="114.038" height="114.066" viewBox="0 0 114.038 114.066">
  <defs>
    <clipPath id="clip-path">
      <rect id="Rectángulo_40762" data-name="Rectángulo 40762" width="114.038" height="114.066" fill="none"/>
    </clipPath>
  </defs>
  <g id="Grupo_116399" data-name="Grupo 116399" clip-path="url(#clip-path)">
    <path id="Trazado_161128" data-name="Trazado 161128" d="M42.407,96.466c-1.858,4.739-3.59,9.182-5.341,13.618-1.77,4.482-1.045,3.95-5.8,3.973-.792,0-1.584.009-2.376,0-1.7-.023-2.571-.943-2.184-2.569.274-1.15-.093-1.387-1.1-1.234a4.2,4.2,0,0,1-.593,0c-.673,0-1.493-.228-1.98.075-.554.344-.153,1.232-.226,1.878a1.924,1.924,0,0,1-1.947,1.841,1.89,1.89,0,0,1-1.841-1.816c-.053-.622.179-1.493-.147-1.813-.464-.456-1.344-.15-2.044-.157-2.138-.021-4.276.021-6.413-.024-.7-.015-1.039.117-.92.892a4.545,4.545,0,0,1-.008,1.185,1.892,1.892,0,0,1-3.766.046c-.124-.684.322-1.688-.219-2-.6-.343-1.535-.1-2.324-.109-.357,0-.713.009-1.069,0a1.927,1.927,0,0,1-2.1-2.16C-.008,105.007,0,101.918,0,98.83q0-10.1,0-20.192c0-2.005.595-2.588,2.627-2.591,1.386,0,2.773-.04,4.156.016.7.028.841-.217.833-.865-.034-2.731-.021-5.464-.012-8.2.005-1.693.673-2.353,2.382-2.357q4.276-.011,8.552,0c1.7.005,2.361.672,2.366,2.374.008,2.732.024,5.464-.014,8.195-.01.674.18.87.851.847,1.463-.05,2.93-.022,4.394-.014,1.7.01,2.369.672,2.37,2.369q.009,9.443,0,18.885v1.3c.953-5.477,2.065-10.918,2.074-16.512.008-4.868.19-9.737.345-14.6.026-.8-.2-1.049-.967-.955a11.247,11.247,0,0,1-1.305.009,1.9,1.9,0,0,1-2.011-1.506q-2.856-10.392-5.678-20.792a2.345,2.345,0,0,1,.136-1.392q2.522-7.52,5.018-15.049a10.228,10.228,0,0,1,2.582-4.063c1.377-1.367,2.73-2.757,4.125-4.105a.864.864,0,0,0,.22-1.214,7.267,7.267,0,0,1-.742-3.44c.012-2.93.026-5.86-.009-8.789a2.423,2.423,0,0,1,1.19-2.28c1.4-.891,2.767-1.835,4.155-2.746a6.045,6.045,0,0,1,6.618-.34,6.09,6.09,0,0,1,3.25,5.67c.013,2.851,0,5.7.006,8.552a7.016,7.016,0,0,1-.723,3.325.932.932,0,0,0,.252,1.311c1.118,1.064,2.195,2.172,3.282,3.268A9.6,9.6,0,0,1,53.221,30c-.009,3.365.01,6.731-.012,10.1a1.955,1.955,0,0,0,.6,1.564q4.61,4.543,9.151,9.156a1.3,1.3,0,0,0,1.457.48c.462-.2.192-.775.194-1.171.019-4.221-.367-3.85,3.818-5.216,2.326-.759,4.627-1.6,6.967-2.306a1.423,1.423,0,0,0,1.1-1.3c.441-2.329.96-4.643,1.375-6.976a2.65,2.65,0,0,1,1.466-2.007c.963-.526,1.887-1.126,2.974-1.783a9.574,9.574,0,0,1-3.288-1.14c-2.483-1.627-3.84-4.788-2.61-7.441A24.647,24.647,0,0,0,78.165,14.7,12.8,12.8,0,0,1,91.137,3.828,13.313,13.313,0,0,1,104.3,14.782a2.9,2.9,0,0,1,.059.471A16.363,16.363,0,0,0,106,21.8c1.5,3.588-.7,7.311-4.9,8.553,1.2.618,2.247,1.237,3.356,1.7a4.462,4.462,0,0,1,2.264,2.268,28.671,28.671,0,0,1,3.5,12.319,8.621,8.621,0,0,1-1.021,4.7c1.005,0,1.86-.017,2.713,0a1.937,1.937,0,0,1,2.117,2.147c.007.237,0,.475,0,.712q0,28.506,0,57.012c0,2.339-.505,2.842-2.852,2.842H50.252c-1.942,0-2.321-.267-2.9-2.088-1.621-5.073-3.236-10.147-4.943-15.5" transform="translate(0 0)"/>
    <path id="Trazado_161129" data-name="Trazado 161129" d="M197.956,203.554c8.947,0,17.894.015,26.84-.021.985,0,1.346.161,1.343,1.269q-.064,21.556,0,43.111c0,1.1-.341,1.277-1.336,1.275q-25.356-.044-50.712.007c-1.175,0-1.391-.364-1.455-1.457-.4-6.786-.893-13.566-1.35-20.348q-.382-5.679-.746-11.359c-.244-3.747-.461-7.5-.747-11.239-.075-.983.2-1.265,1.2-1.26,8.987.039,17.973.023,26.959.023" transform="translate(-115.876 -138.91)" fill="#90591c"/>
    <path id="Trazado_161130" data-name="Trazado 161130" d="M32.849,264.58c0,4.118-.017,8.235.016,12.352.006.739-.14,1.007-.955,1q-9.5-.055-19,0c-.772,0-.983-.2-.981-.976q.044-12.352,0-24.7c0-.805.249-.965,1-.962,2.8.009,2.835-.017,2.8,2.8-.01.83.2,1.056,1.039,1.045,2.77-.034,2.805,0,2.763-2.722-.013-.848.141-1.192,1.08-1.125,1.3.093,2.612.049,3.917.012.568-.016.811.161.727.733a1.445,1.445,0,0,0,0,.237c.043,2.947.042,2.918,3,2.863.726-.013.851-.279.813-.9-.045-.749.017-1.5-.02-2.256-.026-.519.159-.648.671-.679,3.14-.193,3.139-.208,3.139,2.955V264.58" transform="translate(-8.138 -171.459)" fill="#feca2e"/>
    <path id="Trazado_161131" data-name="Trazado 161131" d="M120.454,179.631c1.938,0,3.877.023,5.815-.013.655-.012.887.187.928.86q.585,9.645,1.23,19.287c.515,7.689,1.06,15.376,1.581,23.065.2,2.958.383,5.917.53,8.877.019.379.393,1.115-.414,1.1-.71-.015-1.635.531-2.03-.754-1.39-4.53-2.877-9.03-4.321-13.543q-4.872-15.232-9.746-30.463c-.639-1.986-.275-4-.335-6-.073-2.411-.017-2.413,2.37-2.413h4.391" transform="translate(-77.561 -122.589)" fill="#62798b"/>
    <path id="Trazado_161132" data-name="Trazado 161132" d="M107.991,88.156c0,3.719-.037,7.439.026,11.157.016.968-.289,1.16-1.187,1.148-3.718-.048-7.438-.039-11.157,0-.743.007-1.132-.151-.987-.961a.4.4,0,0,0,0-.118,16.983,16.983,0,0,1,2.608-11.382c1.01-1.594,1.714-3.38,2.59-5.062.259-.5.174-.715-.326-.99-2.7-1.49-2.695-1.506-4.062,1.224-.5.989-1.014,1.967-1.479,2.97-.212.458-.433.533-.915.367-2.239-.773-4.491-1.509-6.746-2.235-.527-.17-.638-.4-.452-.939.84-2.424,1.629-4.866,2.458-7.295a5.406,5.406,0,0,1,1.314-2.091c1.455-1.454,2.92-2.9,4.353-4.375a.97.97,0,0,1,1.319-.259,7.081,7.081,0,0,0,6.294,0,.968.968,0,0,1,1.316.274c1.094,1.143,2.233,2.243,3.345,3.369a5.693,5.693,0,0,1,1.688,4.169q-.01,5.519,0,11.039" transform="translate(-58.573 -47.2)" fill="#fc4b52"/>
    <path id="Trazado_161133" data-name="Trazado 161133" d="M168.417,174.824c1.5.749,2.916,1.436,4.311,2.162a2.05,2.05,0,0,0,2.683-.433,1.608,1.608,0,0,0,.167-.169c1.727-2.472,4.075-2.98,7.035-2.944,13.689.165,27.381.094,41.071.04,1.291,0,1.609.385,1.5,1.573a24.459,24.459,0,0,0-.007,3.321c.033.7-.237.93-.888.844a3.745,3.745,0,0,0-.474,0q-26.946,0-53.892.026c-1.117,0-1.595-.269-1.52-1.419.061-.938.012-1.883.012-3" transform="translate(-114.931 -118.371)" fill="#b0712c"/>
    <path id="Trazado_161134" data-name="Trazado 161134" d="M256.273,43.024c-.9,0-1.575.042-2.242-.008a2.687,2.687,0,0,1-2.337-3.775,6.343,6.343,0,0,1,.469-.958,8.888,8.888,0,0,0,1.227-4.963,9.074,9.074,0,0,1,9.087-9.29,9.43,9.43,0,0,1,9.836,9.154,8.926,8.926,0,0,0,1.3,5.18,2.892,2.892,0,0,1-2.851,4.675,10.952,10.952,0,0,0-1.276-.007c1.56-3.17.847-6.419.942-9.589.032-1.093-.727-1.7-1.827-1.808a.371.371,0,0,0-.118,0c-2.382.533-3.963-.694-5.335-2.407a6.292,6.292,0,0,0-.842-.836,1.829,1.829,0,0,0-2.671-.005c-1.3,1.22-2.536,2.5-3.789,3.768a1.793,1.793,0,0,0-.574,1.268c0,2.216-.034,4.435.049,6.649a6.817,6.817,0,0,0,.955,2.953" transform="translate(-171.63 -16.4)" fill="#b0712c"/>
    <path id="Trazado_161135" data-name="Trazado 161135" d="M101.06,229.858c1.784,5.6,3.559,11.213,5.364,16.811a2.51,2.51,0,0,1-.042,1.818q-3.525,8.926-7,17.87a1.965,1.965,0,0,1-2.279.726c-.339-.25-.1-.595-.059-.869.552-3.788,1.016-7.593,1.726-11.352a113.992,113.992,0,0,0,1.864-22.392,11.188,11.188,0,0,0,.1-2.058c.019-.222-.144-.592.332-.555" transform="translate(-66.148 -156.876)" fill="#556c7f"/>
    <path id="Trazado_161136" data-name="Trazado 161136" d="M84.677,149.788c-.9.237-1.208-.2-1.428-1.026Q81,140.3,78.63,131.865c-.438-1.548.478-2.728.809-4.069.091-.37.372-.163.571-.1,2.134.706,4.26,1.438,6.4,2.117.6.191.527.478.269.862a6.462,6.462,0,0,0-.8,3.868c.031,4.668-.016,9.336.035,14,.01.985-.135,1.536-1.244,1.239" transform="translate(-53.586 -87.075)" fill="#fecdb5"/>
    <path id="Trazado_161137" data-name="Trazado 161137" d="M275.359,110.87c0-4.481,0-8.755,0-13.029a.983.983,0,0,1,.4-.91,5.628,5.628,0,0,1,6.722-.29.955.955,0,0,1,.492.965q-.012,5.345,0,10.69c0,.455-.093.706-.593.826-2.3.549-4.6,1.14-7.016,1.748" transform="translate(-187.931 -65.293)" fill="#e57a00"/>
    <path id="Trazado_161138" data-name="Trazado 161138" d="M306.98,105.543c1.4.7,2.589,1.3,3.79,1.889a1.608,1.608,0,0,1,.739.728,23.549,23.549,0,0,1,3.066,11.193,3.789,3.789,0,0,1-3.9,4.014c-1.621.026-3.243-.015-4.864.017-.559.011-.818-.151-.733-.729a1.956,1.956,0,0,0,0-.237c.024-1.064-.339-2.424.183-3.107s1.926-.651,2.944-.933c.076-.021.156-.029.232-.048,2.951-.741,2.933-.736,2.092-3.662-.173-.6-.443-.765-1-.55a.807.807,0,0,1-.116.022c-.768.172-1.824.73-2.234.424-.571-.427-.183-1.529-.194-2.339-.03-2.168-.01-4.337-.01-6.682" transform="translate(-208.148 -72.033)" fill="#fea000"/>
    <path id="Trazado_161139" data-name="Trazado 161139" d="M246.827,107.97v5.967c0,3.363-.017,6.727.013,10.089.007.709-.086,1.055-.937,1.025-1.936-.07-3.877-.046-5.815-.009-.645.012-.964-.138-.87-.839a3.509,3.509,0,0,0,0-.948c-.293-2.083-.066-3.774,2.557-4.1.8-.1,1.121-.9,1.275-1.689.438-2.249,1.037-4.475,1.319-6.741.194-1.56,1.087-2.208,2.457-2.76" transform="translate(-163.2 -73.69)" fill="#fea000"/>
    <path id="Trazado_161140" data-name="Trazado 161140" d="M282.932,56.278a8.75,8.75,0,0,1-.2,2.476,3.843,3.843,0,0,1-4.059,2.6,3.8,3.8,0,0,1-3.32-3.49c-.074-1.579-.028-3.164-.02-4.746a5.892,5.892,0,0,1,1.814-2.209c.286-.043.414.2.577.352a17.244,17.244,0,0,1,1.336,1.347,2.879,2.879,0,0,0,2.811,1.157c.925-.149,1.188.239,1.069,1.1a11.1,11.1,0,0,0-.01,1.415" transform="translate(-187.901 -34.742)" fill="#fecdb5"/>
    <path id="Trazado_161141" data-name="Trazado 161141" d="M117.645,35.836a4.265,4.265,0,0,1,.71.006c.986.169,2.753-.475,2.84.354.223,2.127.84,4.556-1.212,6.325a3.686,3.686,0,0,1-4.3.417,3.419,3.419,0,0,1-1.863-2.6c-.144-1.327-.055-2.679-.09-4.019-.016-.582.378-.481.717-.482,1.066,0,2.131,0,3.2,0" transform="translate(-77.621 -24.407)" fill="#fecdb5"/>
    <path id="Trazado_161142" data-name="Trazado 161142" d="M41.6,219.411c0,1.029-.028,2.059.011,3.086.02.526-.151.675-.669.664q-2.2-.048-4.392,0c-.526.012-.67-.153-.663-.669q.04-3.146,0-6.292c-.007-.525.152-.675.669-.663q2.2.048,4.393,0c.527-.012.68.152.663.67-.037,1.067-.011,2.136-.011,3.205" transform="translate(-24.496 -147.103)" fill="#739d30"/>
    <path id="Trazado_161143" data-name="Trazado 161143" d="M167.614,145.911l6.367,6.468c.225.229.524.484.112.76-.5.338-.707,1.319-1.538.949-1.548-.689-3.041-1.5-4.566-2.238-.419-.2-.377-.548-.376-.9,0-1.541,0-3.083,0-5.037" transform="translate(-114.395 -99.584)" fill="#fecdb5"/>
    <path id="Trazado_161144" data-name="Trazado 161144" d="M117.487,15.758c-1.026,0-2.051.008-3.076-.006-.247,0-.593.111-.641-.316a.675.675,0,0,1,.254-.732c1.323-.855,2.6-1.782,3.979-2.544a2.141,2.141,0,0,1,2.6.528,3,3,0,0,1,.723,2.745c-.049.47-.479.312-.76.317-1.025.018-2.051.007-3.076.007" transform="translate(-77.639 -8.131)" fill="#b0702c"/>
    <path id="Trazado_161145" data-name="Trazado 161145" d="M217.022,154.492h-.355c-1.408,0-1.953-.811-1.487-2.185a.575.575,0,0,1,.394-.389c.26-.09.523-.172.784-.259,2.665-.884,2.637-.885,2.635,1.933,0,.718-.159,1.021-.907.909a7.244,7.244,0,0,0-1.064-.009" transform="translate(-146.75 -103.152)" fill="#fecdb5"/>
    <path id="Trazado_161146" data-name="Trazado 161146" d="M284.914,151.736c.3,3.264.019,3.53-3.187,3.176-.394-.043-.514-.136-.556-.544-.166-1.628-.11-1.739,1.46-2.132.65-.163,1.3-.326,1.951-.483a1.79,1.79,0,0,1,.331-.018" transform="translate(-191.856 -103.56)" fill="#fdcdb5"/>
    <path id="Trazado_161147" data-name="Trazado 161147" d="M108.922,228.774c-.581.8.07,1.8-.429,2.613-.01-.886-.032-1.773-.022-2.659,0-.165-.164-.534.253-.448.205.043.207.3.2.494" transform="translate(-74.01 -155.792)" fill="#222c35"/>
    <path id="Trazado_161148" data-name="Trazado 161148" d="M288.779,321.1c-2.215,0-4.431-.021-6.646.012-.661.01-.87-.19-.89-.868-.088-2.946-.111-2.945,2.836-2.945,3.8,0,7.6.019,11.393-.016.764-.007,1.007.2,1.012.99.017,2.827.047,2.826-2.72,2.826h-4.984" transform="translate(-191.931 -216.548)"/>
    <path id="Trazado_161149" data-name="Trazado 161149" d="M298.876,297.163c-1.621,0-3.244-.019-4.864.01-.595.01-.812-.157-.841-.795-.14-3.017-.162-3.016,2.883-3.016,2.531,0,5.063.021,7.593-.013.7-.01.951.166.963.917.048,2.9.077,2.9-2.767,2.9h-2.966" transform="translate(-200.057 -200.211)"/>
    <path id="Trazado_161150" data-name="Trazado 161150" d="M261.208,319.331c0,1.806,0,1.806-2.174,1.805-1.628,0-1.628,0-1.627-2.233,0-1.569,0-1.569,2.293-1.568,1.508,0,1.508,0,1.508,2" transform="translate(-175.68 -216.581)"/>
  </g>
</svg>
