<svg id="Grupo_116440" data-name="Grupo 116440" xmlns="http://www.w3.org/2000/svg" xmlns:xlink="http://www.w3.org/1999/xlink" width="114.038" height="114.036" viewBox="0 0 114.038 114.036">
  <defs>
    <clipPath id="clip-path">
      <rect id="Rectángulo_40771" data-name="Rectángulo 40771" width="114.038" height="114.036" fill="none"/>
    </clipPath>
  </defs>
  <g id="Grupo_116407" data-name="Grupo 116407" clip-path="url(#clip-path)">
    <path id="Trazado_161187" data-name="Trazado 161187" d="M114.037,5.118v103.69c-.582,1.571-.913,1.8-2.865,1.8q-21.747.017-43.494.006c-.482,0-.964.009-1.446.007-.724,0-1.046.336-1.132,1.064-.23,1.933-.742,2.351-2.759,2.351q-29.923,0-59.847,0c-2.1,0-2.494-.4-2.494-2.562Q0,80.6,0,49.737,0,26.043,0,2.35C0,.658.1.506,1.446,0H63.3A1.975,1.975,0,0,1,65.11,2.253c-.006.748.4,1.059,1.122,1.055.445,0,.89.007,1.335.007h42.157c.593,0,1.187-.006,1.78.007,1.6.037,1.984.312,2.534,1.795" transform="translate(0)" fill="#2d2d2d"/>
    <path id="Trazado_161188" data-name="Trazado 161188" d="M70.025,65.879q0,25.975.02,51.951c0,.927-.15,1.234-1.179,1.232q-27.31-.058-54.621,0c-.981,0-1.207-.231-1.207-1.208q.042-52.006,0-104.012c0-.894.169-1.174,1.127-1.172q27.367.048,54.733,0c.93,0,1.147.229,1.145,1.151Q70,39.848,70.025,65.879" transform="translate(-9.161 -8.899)" fill="#ffe4e5"/>
    <path id="Trazado_161189" data-name="Trazado 161189" d="M217.337,74.727q0-23.971-.03-47.941c0-1.166.335-1.379,1.42-1.377q21.468.055,42.936,0c1,0,1.291.239,1.29,1.273q-.043,48.108,0,96.216c0,1.1-.312,1.323-1.358,1.32q-21.468-.053-42.936,0c-1.059,0-1.354-.239-1.352-1.331q.058-24.082.026-48.164" transform="translate(-152.682 -17.853)" fill="#fc4b52"/>
    <path id="Trazado_161190" data-name="Trazado 161190" d="M77.9,227.1a22.767,22.767,0,1,1-22.763-22.8A22.871,22.871,0,0,1,77.9,227.1" transform="translate(-22.743 -143.544)" fill="#2d2d2d"/>
    <path id="Trazado_161191" data-name="Trazado 161191" d="M53.646,48.8c-2.081,1.163-4.033,2.2-5.926,3.334a5.948,5.948,0,0,1-3.479.888c-1.294-.065-2.594-.027-3.892-.011a2.316,2.316,0,0,1-2.3-1.417c-1.767-3.583-3.567-7.149-5.35-10.724a1.957,1.957,0,0,1,2.564-2.817c2.769,1.041,5.547,2.056,8.31,3.112a1.633,1.633,0,0,0,1.462-.053c1.25-.642,2.509-1.273,3.8-1.813.873-.363.694-.646.152-1.18-2.008-1.976-3.972-4-5.963-5.99a2.211,2.211,0,0,1-.866-2.25c.279-1.021,1.091-1.3,2-1.506q3.139-.71,6.265-1.476a3.411,3.411,0,0,1,2.754.424c2.781,1.7,5.609,3.313,8.388,5.012a1.559,1.559,0,0,0,1.717.059c2.219-1.1,4.479-2.123,6.694-3.232a4.415,4.415,0,0,1,4.538.128c.89.53,1.808,1.013,2.723,1.5a3.836,3.836,0,0,1-.108,7.033c-3.081,1.529-6.146,3.091-9.238,4.6a2.083,2.083,0,0,0-1.257,1.513c-.6,2.4-1.309,4.78-1.936,7.177a2.777,2.777,0,0,1-1.54,1.909c-2.255,1.113-4.494,2.261-6.754,3.363-1.909.931-3.231.037-3.112-2.086.1-1.768.225-3.535.351-5.494" transform="translate(-22.743 -18.811)" fill="#2d2d2d"/>
    <path id="Trazado_161192" data-name="Trazado 161192" d="M48.355,135.2q-8.066,0-16.131,0c-4.253,0-6.762-2.724-6.459-6.952.033-.466.145-.686.634-.649.332.025.667,0,1,0,.666.01,1.463-.2,1.963.1.517.305.134,1.161.217,1.77a1.982,1.982,0,0,0,1.845,1.9,8.8,8.8,0,0,0,1.11.031q16.3,0,32.6,0c2.971,0,5.041,1.363,5.884,3.819a5.667,5.667,0,0,1-5.534,7.551c-3.485.049-6.972.009-10.457.012-2.054,0-2.671.573-2.611,2.648.026.925-.224,1.291-1.154,1.149a6.717,6.717,0,0,0-1-.008c-1.764,0-1.764,0-1.671-1.807A5.674,5.674,0,0,1,54.6,139c3.449-.02,6.9-.007,10.347,0a3.587,3.587,0,0,0,1.422-.19,1.856,1.856,0,0,0-.324-3.544,6.229,6.229,0,0,0-1.219-.057q-8.233,0-16.465,0" transform="translate(-18.085 -89.612)" fill="#2d2d2d"/>
    <path id="Trazado_161193" data-name="Trazado 161193" d="M29.656,104.057c0,1.921,0,1.921-1.911,1.921-1.884,0-1.884,0-1.884-1.837,0-1.971,0-1.971,1.973-1.971,1.822,0,1.822,0,1.822,1.887" transform="translate(-18.17 -71.785)" fill="#2e2e2e"/>
    <path id="Trazado_161194" data-name="Trazado 161194" d="M268.166,60.017q0,9.567,0,19.134c0,2.18-.576,2.754-2.773,2.755q-16.242,0-32.484,0c-2.172,0-2.753-.589-2.754-2.779q0-19.078,0-38.157c0-2.1.634-2.733,2.72-2.734q16.3,0,32.6,0c2.066,0,2.693.647,2.694,2.757q0,9.511,0,19.023" transform="translate(-161.708 -26.864)" fill="#2d2d2d"/>
    <path id="Trazado_161195" data-name="Trazado 161195" d="M253.673,300.007c5.3,0,10.593.019,15.888-.019.875-.006,1.228.155,1.211,1.132-.048,2.677,0,2.677-2.646,2.677-10.074,0-20.148-.02-30.221.028-1.109.005-1.349-.322-1.318-1.364.073-2.453.02-2.455,2.42-2.455h14.666" transform="translate(-166.226 -210.774)" fill="#2d2d2d"/>
    <path id="Trazado_161196" data-name="Trazado 161196" d="M254.452,271.831c-5.3,0-10.6-.021-15.9.02-.909.007-1.207-.225-1.192-1.168.043-2.653,0-2.654,2.685-2.654,10.08,0,20.16.013,30.239-.021.956,0,1.28.214,1.256,1.222-.062,2.6-.011,2.6-2.638,2.6H254.452" transform="translate(-166.772 -188.305)" fill="#2d2d2d"/>
    <path id="Trazado_161197" data-name="Trazado 161197" d="M253.781,236.256c5.3,0,10.606.016,15.908-.017.809-.005,1.084.193,1.081,1.046-.011,2.771.025,2.771-2.79,2.771-10.049,0-20.1-.014-30.148.022-.964,0-1.271-.217-1.247-1.22.062-2.6.012-2.6,2.622-2.6h14.574" transform="translate(-166.226 -165.984)" fill="#2d2d2d"/>
    <path id="Trazado_161198" data-name="Trazado 161198" d="M267.151,204.244c3.409,0,6.819.021,10.228-.016.777-.008,1.108.125,1.1,1.016-.018,2.79.023,2.791-2.759,2.791-6.3,0-12.6-.015-18.9.018-.869,0-1.236-.145-1.217-1.131.051-2.677,0-2.678,2.652-2.678h8.894" transform="translate(-179.59 -143.492)" fill="#2d2d2d"/>
    <path id="Trazado_161199" data-name="Trazado 161199" d="M262.2,333.921c0-1.855,0-1.855,1.886-1.855,1.906,0,1.906,0,1.906,1.946,0,1.855,0,1.855-1.885,1.855-1.907,0-1.907,0-1.907-1.946" transform="translate(-184.221 -233.312)" fill="#2d2d2d"/>
    <path id="Trazado_161200" data-name="Trazado 161200" d="M291.478,334.04c0,1.826,0,1.826-1.8,1.826-1.987,0-1.987,0-1.987-1.974,0-1.826,0-1.826,1.8-1.826,1.99,0,1.99,0,1.99,1.974" transform="translate(-202.132 -233.312)" fill="#2d2d2d"/>
    <path id="Trazado_161201" data-name="Trazado 161201" d="M315.16,332.065c1.809,0,1.809,0,1.809,1.821,0,1.98,0,1.98-1.984,1.98-1.81,0-1.81,0-1.81-1.82,0-1.981,0-1.981,1.984-1.981" transform="translate(-220.04 -233.312)" fill="#2d2d2d"/>
    <path id="Trazado_161202" data-name="Trazado 161202" d="M81.1,288.166c.963,0,1.927.029,2.889-.01.646-.026.951.156.931.862-.038,1.369-.026,2.741,0,4.111.009.529-.12.8-.721.847a40.544,40.544,0,0,0-5.068.586c-.542.114-.777-.081-.906-.638A43.7,43.7,0,0,1,77.428,289c-.072-.631.131-.87.779-.842.961.041,1.926.011,2.889.01" transform="translate(-54.392 -202.459)" fill="#dff7f9"/>
    <path id="Trazado_161203" data-name="Trazado 161203" d="M81.1,260.247c-1,0-1.995-.021-2.991.008-.561.017-.792-.144-.753-.754a42.9,42.9,0,0,1,.712-5.148c.088-.47.311-.594.771-.511a33.87,33.87,0,0,0,5.274.6c.586.013.758.293.752.832-.018,1.4-.023,2.807,0,4.209.01.573-.2.787-.776.768-1-.032-1.994-.009-2.991-.009" transform="translate(-54.35 -178.335)" fill="#dff7f9"/>
    <path id="Trazado_161204" data-name="Trazado 161204" d="M119.169,288.17c.927,0,1.854.023,2.779-.009.594-.02.889.122.824.8a40.523,40.523,0,0,1-.8,5.04c-.118.524-.38.659-.858.561a40.487,40.487,0,0,0-4.961-.577c-.605-.047-.837-.249-.819-.872.037-1.37.032-2.743,0-4.114-.013-.612.184-.872.827-.846,1,.04,2,.01,3,.01" transform="translate(-81.037 -202.462)" fill="#dff7f9"/>
    <path id="Trazado_161205" data-name="Trazado 161205" d="M119.066,260.241c-1,0-2-.018-2.994.006-.527.013-.717-.2-.71-.716.019-1.441.016-2.884,0-4.325-.005-.5.169-.746.7-.762a34.352,34.352,0,0,0,5.28-.606c.446-.083.679.006.768.5a45.49,45.49,0,0,1,.706,5.043c.047.72-.205.9-.864.87-.959-.041-1.922-.01-2.883-.011" transform="translate(-81.054 -178.33)" fill="#dff7f9"/>
    <path id="Trazado_161206" data-name="Trazado 161206" d="M48.41,255.045H47.3c-1.734,0-1.767-.006-1.473-1.672a18.991,18.991,0,0,1,2.434-6.494c.288-.481.542-.581,1.055-.341.927.435,2.324.557,2.713,1.259s-.233,1.956-.363,2.973c-.14,1.1-.277,2.2-.311,3.3-.024.774-.309,1.044-1.064.98-.623-.053-1.255-.011-1.883-.011" transform="translate(-32.101 -173.132)" fill="#dff7f9"/>
    <path id="Trazado_161207" data-name="Trazado 161207" d="M153.955,255.324c-.717-.079-1.831.373-2.5-.171-.651-.53-.237-1.68-.395-2.547-.237-1.306-.37-2.632-.644-3.929-.133-.63.037-.878.618-1.014a9.481,9.481,0,0,0,1.255-.433c1.663-.649,1.673-.658,2.506.879a18.9,18.9,0,0,1,2.077,6.614c.058.44-.06.613-.5.6-.738-.014-1.478,0-2.415,0" transform="translate(-105.655 -173.415)" fill="#dff7f9"/>
    <path id="Trazado_161208" data-name="Trazado 161208" d="M154,288.148h.443c2.531,0,2.554.006,1.885,2.484a20.134,20.134,0,0,1-2.351,5.469c-.359.573-.687.679-1.24.383a5.864,5.864,0,0,0-.715-.3c-2-.747-2.02-.751-1.546-2.783a25.611,25.611,0,0,0,.569-4.272c.046-.752.3-1.064,1.072-1,.623.055,1.255.011,1.883.011" transform="translate(-105.546 -202.441)" fill="#dff7f9"/>
    <path id="Trazado_161209" data-name="Trazado 161209" d="M48.66,288.149c2.851,0,2.861,0,3.057,2.825a25.439,25.439,0,0,0,.676,3.707c.133.6.062,1-.63,1.119a4.763,4.763,0,0,0-.738.238c-2.137.733-2.15.739-3.169-1.255a19.411,19.411,0,0,1-1.9-5.656c-.116-.691.009-1.06.817-.989.625.056,1.258.011,1.888.011" transform="translate(-32.263 -202.442)" fill="#dff7f9"/>
    <path id="Trazado_161210" data-name="Trazado 161210" d="M89.943,222.649q0,1.052,0,2.1c0,1.539,0,1.564-1.581,1.43-1.1-.093-2.2-.283-3.3-.4-.435-.046-.6-.159-.393-.611a13.194,13.194,0,0,1,4.3-5.785c.237-.161.5-.438.785-.313.323.142.176.525.181.8.016.923.006,1.846.006,2.769" transform="translate(-59.429 -153.903)" fill="#dff7f9"/>
    <path id="Trazado_161211" data-name="Trazado 161211" d="M116.531,226.319c-1.069.231-1.25-.3-1.219-1.229.059-1.771.031-3.545.01-5.317-.007-.64.161-.829.747-.45,2.244,1.454,3.467,3.67,4.518,6.017.215.48-.145.458-.435.5l-3.62.482" transform="translate(-81.017 -153.962)" fill="#dff7f9"/>
    <path id="Trazado_161212" data-name="Trazado 161212" d="M90.481,323.877c0,.889,0,1.779,0,2.669,0,.472-.14.761-.652.446a12.152,12.152,0,0,1-4.422-5.57c-.182-.388.124-.454.377-.482,1.362-.147,2.726-.269,4.089-.415.546-.058.61.269.609.683,0,.89,0,1.779,0,2.669" transform="translate(-59.97 -225.199)" fill="#dff7f9"/>
    <path id="Trazado_161213" data-name="Trazado 161213" d="M115.377,327.353c0-2.234.005-4.226,0-6.218,0-.5.226-.624.694-.572,1.248.141,2.5.234,3.75.379.266.031.827-.052.57.512a11.679,11.679,0,0,1-5.01,5.9" transform="translate(-81.062 -225.223)" fill="#dff7f9"/>
    <path id="Trazado_161214" data-name="Trazado 161214" d="M140.643,226.081a13.25,13.25,0,0,1,3.811,2.753,5.274,5.274,0,0,1-1.655.726c-.327.145-.552,0-.7-.321-.432-.956-.878-1.9-1.458-3.157" transform="translate(-98.817 -158.846)" fill="#dff7f9"/>
    <path id="Trazado_161215" data-name="Trazado 161215" d="M68.316,227.153a16.139,16.139,0,0,1-1.393,2.921c-.576.782-1.394-.006-1.923-.3-.572-.319.171-.616.391-.828a6.42,6.42,0,0,1,2.926-1.792" transform="translate(-45.52 -159.6)" fill="#dff7f9"/>
    <path id="Trazado_161216" data-name="Trazado 161216" d="M65.491,326.411c1.948-.71,1.945-.708,2.739.912.269.549.56,1.087.967,1.872a19.606,19.606,0,0,1-3.705-2.785" transform="translate(-46.015 -229.022)" fill="#dff7f9"/>
    <path id="Trazado_161217" data-name="Trazado 161217" d="M141.033,328.464c.215-.424.438-.845.644-1.274.786-1.632.784-1.633,2.672-.84a12.909,12.909,0,0,1-3.093,2.35Z" transform="translate(-99.091 -228.932)" fill="#dff7f9"/>
    <path id="Trazado_161218" data-name="Trazado 161218" d="M89.585,47.906,83.93,50.73c-1.656.827-3.3,1.677-4.971,2.471A3.018,3.018,0,0,0,77.2,55.327c-.6,2.366-1.311,4.705-1.911,7.072a1.845,1.845,0,0,1-1.179,1.453,29.96,29.96,0,0,1-2.927,1.328c.126-1.871.215-3.637.375-5.4a2.235,2.235,0,0,0-.852-2.356,2.14,2.14,0,0,0-2.4.183q-4.256,2.4-8.525,4.782c-1.465.821-3.047.3-4.575.387-.285.016-.373-.319-.488-.548q-1.291-2.581-2.584-5.162c.327-.3.578-.005.813.079,1.359.484,2.714.982,4.054,1.518a3.22,3.22,0,0,0,2.769-.138C68.141,54.5,76.533,50.517,84.9,46.482a1.96,1.96,0,0,1,2.232.045c.724.5,1.539.873,2.453,1.378" transform="translate(-36.63 -32.43)" fill="#feca2e"/>
    <path id="Trazado_161219" data-name="Trazado 161219" d="M84.343,40.582c.964-.23,1.932-.444,2.89-.7a1.016,1.016,0,0,1,.835.164l6.577,3.893c-1.632.788-3.134,1.515-4.638,2.238-.3.146-.481-.076-.666-.255l-5.186-5.015.189-.327" transform="translate(-59.127 -28.001)" fill="#feca2e"/>
    <path id="Trazado_161220" data-name="Trazado 161220" d="M273.182,74.367c-.382-.147-.469-.539-.653-.831-1.661-2.629-3.3-5.273-4.956-7.9-1.066-1.689-2.712-1.7-3.768-.018q-3.515,5.6-7,11.208c-.193.308-.4.6-.681,1.016-1.9-2.843-3.736-5.6-5.577-8.356a2.588,2.588,0,0,0-1.15-1.162,2.031,2.031,0,0,0-2.514.826c-1.265,1.865-2.5,3.747-3.744,5.608-.411-.086-.245-.368-.245-.54-.01-7.414,0-14.827-.024-22.241,0-.755.172-1.013.975-1.01q14.234.041,28.468.016c.521,0,1.006-.109,1,.74-.029,7.487-.02,14.975-.026,22.463,0,.055-.062.11-.106.184" transform="translate(-170.634 -35.808)" fill="#e9e9e9"/>
    <path id="Trazado_161221" data-name="Trazado 161221" d="M258.045,163.3c-4.709,0-9.418-.021-14.126.02-.841.007-1.059-.227-1.049-1.058.031-2.76,0-2.76,2.776-2.76,8.824,0,17.649.018,26.473-.026,1-.005,1.236.266,1.212,1.233-.066,2.59-.018,2.591-2.6,2.591h-12.68" transform="translate(-170.642 -112.05)" fill="#e9e9e9"/>
    <path id="Trazado_161222" data-name="Trazado 161222" d="M299.29,124.357l5.915-9.49c.28-.007.353.172.445.319q2.6,4.144,5.182,8.294c.217.35.782.879-.271.878-3.667,0-7.335,0-11.271,0" transform="translate(-210.284 -80.706)" fill="#a8ca73"/>
    <path id="Trazado_161223" data-name="Trazado 161223" d="M256.735,132.984h-7.969c1.271-1.905,2.472-3.7,3.671-5.506.254-.382.456-.257.661.05,1.181,1.776,2.366,3.549,3.637,5.456" transform="translate(-174.785 -89.4)" fill="#a8ca72"/>
    <path id="Trazado_161224" data-name="Trazado 161224" d="M274.256,75.22a5.683,5.683,0,1,1,5.683-5.621,5.692,5.692,0,0,1-5.683,5.621" transform="translate(-188.696 -44.865)" fill="#2d2d2d"/>
    <path id="Trazado_161225" data-name="Trazado 161225" d="M283.367,76.765a1.852,1.852,0,1,1-1.9,1.747,1.835,1.835,0,0,1,1.9-1.747" transform="translate(-197.759 -53.936)" fill="#f3cc57"/>
  </g>
</svg>
