<svg id="Grupo_117462" data-name="Grupo 117462" xmlns="http://www.w3.org/2000/svg" xmlns:xlink="http://www.w3.org/1999/xlink" width="63.66" height="61.548" viewBox="0 0 63.66 61.548">
  <defs>
    <clipPath id="clip-path">
      <rect id="Rectángulo_41133" data-name="Rectángulo 41133" width="63.66" height="61.548" fill="none"/>
    </clipPath>
  </defs>
  <g id="Grupo_117461" data-name="Grupo 117461" clip-path="url(#clip-path)">
    <path id="Trazado_162067" data-name="Trazado 162067" d="M63.656,28.65q0,12.5,0,24.994a1.546,1.546,0,0,1-.248,1.134c-.176.2-.042.375.008.552a4.744,4.744,0,0,1-1.962,5.5,4.9,4.9,0,0,1-5.986-.693c-1.553-1.477-3.049-3.013-4.551-4.542a1.318,1.318,0,0,0-1.036-.428q-24.133.016-48.266.009C.266,55.176,0,54.908,0,53.548V3.758C0,2.395.264,2.129,1.615,2.129c.707,0,1.415-.023,2.121.009.392.017.591-.067.511-.5a1.727,1.727,0,0,1,0-.331C4.255.395,4.622.017,5.521.008c.663-.006,1.326,0,1.989,0C13.367.007,19.223.021,25.08,0a9.664,9.664,0,0,1,7.263,2.952c.4.41.718.378,1.111-.02A9.59,9.59,0,0,1,40.594,0q8.685.017,17.37,0c1.121,0,1.481.331,1.433,1.464-.024.566.142.709.686.67.726-.051,1.458-.014,2.187-.012,1.035,0,1.385.353,1.386,1.394q0,12.564,0,25.127" transform="translate(0 0)"/>
    <path id="Trazado_162068" data-name="Trazado 162068" d="M33.9,15.942c.382-.363.787-.722,1.163-1.109a1.069,1.069,0,0,0,.017-1.729q-1.46-1.492-2.952-2.954a1.083,1.083,0,0,0-1.776.033,6.885,6.885,0,0,1-1.219,1.083c0-.473.009-.947,0-1.42a1.072,1.072,0,0,0-1.19-1.188q-1.988-.017-3.978,0a1.069,1.069,0,0,0-1.194,1.183c-.011.462,0,.925,0,1.55-.462-.461-.833-.841-1.215-1.211a1.107,1.107,0,0,0-1.827.016q-1.437,1.422-2.86,2.859a1.1,1.1,0,0,0,.018,1.824c.364.369.749.718,1.258,1.2-.681,0-1.158-.01-1.635,0a1.056,1.056,0,0,0-1.162,1.146q-.023,2.022,0,4.044a1.071,1.071,0,0,0,1.206,1.171,5.974,5.974,0,0,1,1.486.147c-.411.378-.84.739-1.229,1.138a1.047,1.047,0,0,0,0,1.678q1.483,1.516,3,3a1.058,1.058,0,0,0,1.681,0q.315-.294.61-.608a2.031,2.031,0,0,1,.669-.546c0,.448,0,.9,0,1.345.011.874.384,1.267,1.239,1.273q1.956.014,3.911,0c.814-.007,1.2-.408,1.213-1.234.008-.442.007-.884.013-1.326,0-.012.033-.023.15-.1.367.394.745.812,1.139,1.216.143.147.191.252.067.449a13.721,13.721,0,0,0-1.4,2.84c-.094.27-.276.289-.512.284-.508-.012-1.017-.017-1.525,0a1.053,1.053,0,0,0-1.109,1.066,1.072,1.072,0,0,0,1.128,1.052c.416.024,1-.184,1.2.087.182.241-.1.792-.075,1.2.035.7-.251.9-.925.847-.746-.062-1.5-.023-2.253-.012a1.065,1.065,0,1,0-.026,2.116c.839.013,1.682.047,2.518-.012.525-.037.658.18.659.623a4.274,4.274,0,0,0,.032.463c.119,1.051.12,1.051-.972,1.051-.751,0-1.5-.011-2.254,0a1.061,1.061,0,1,0-.006,2.114c1.193.014,2.387.01,3.58,0,.264,0,.456.021.554.322a10.383,10.383,0,0,0,.9,1.981c.362.627.754,1.237,1.142,1.869-.158.16-.365.072-.544.072-5.591.006-11.181,0-16.772.018-.532,0-.636-.15-.636-.652q.02-20.583,0-41.168c0-.517.126-.646.644-.644,6.121.019,12.242.005,18.363.016A7.416,7.416,0,0,1,38.4,7.562a1.311,1.311,0,0,1,.29.842q-.018,6.695,0,13.391c0,.352-.064.546-.433.676a11.514,11.514,0,0,0-2.542,1.259A.46.46,0,0,1,35,23.64c-.338-.376-.725-.708-1.231-1.193.616,0,1.063,0,1.511,0,.877-.01,1.272-.383,1.278-1.235q.014-1.955,0-3.911a1.085,1.085,0,0,0-1.227-1.218c-.442-.009-.884-.007-1.326-.012-.013,0-.025-.03-.1-.128" transform="translate(-6.857 -2.283)" fill="#e8edf1"/>
    <path id="Trazado_162069" data-name="Trazado 162069" d="M86.567,27.753c.67,0,1.305.012,1.94,0a1.061,1.061,0,1,0,.014-2.114c-1.171-.014-2.343-.009-3.514,0a.944.944,0,0,1-.717-.24,15.117,15.117,0,0,0-2.4-1.768c.115-.223.313-.11.459-.111,1.989-.009,3.978,0,5.967-.007.876,0,1.376-.408,1.354-1.091-.02-.66-.5-1.028-1.35-1.029q-7.293,0-14.587,0a13.3,13.3,0,0,0-2.635.24c-.362.073-.538.064-.535-.418.023-4.287.014-8.575.01-12.863a1.052,1.052,0,0,1,.2-.669A7.37,7.37,0,0,1,76.97,4.42c5.459-.023,10.918,0,16.377-.018.461,0,.58.1.58.573q-.021,20.654,0,41.307c0,.459-.1.59-.573.581-1.635-.033-3.271-.04-4.906,0-.662.016-.881-.5-1.252-.839-.148-.133.051-.283.12-.4,3.473-6.074,3.068-11.986-.747-17.868" transform="translate(-36.624 -2.285)" fill="#e8edf1"/>
    <path id="Trazado_162070" data-name="Trazado 162070" d="M4.394,33.191q0-11.834-.015-23.668c0-.591.146-.737.725-.719,1.411.043,1.412.012,1.412,1.41V53.9c0,1.316.278,1.6,1.583,1.6q20.883,0,41.767-.025a2.147,2.147,0,0,1,1.638.905c.055.055.118.19.093.223a4.76,4.76,0,0,0-.581.95c-.078.172-.408.066-.623.066q-22.64,0-45.281.015c-.56,0-.735-.1-.734-.709.025-7.911.016-15.823.016-23.734" transform="translate(-2.272 -4.569)" fill="#ea423f"/>
    <path id="Trazado_162071" data-name="Trazado 162071" d="M48.532,57.929A13.791,13.791,0,1,1,62.243,71.718,13.8,13.8,0,0,1,48.532,57.929" transform="translate(-25.19 -22.909)" fill="#3396e7"/>
    <path id="Trazado_162072" data-name="Trazado 162072" d="M37.47,20.83c-.078.1-.137.186-.21.26-.231.238-.457.482-.7.7a1.208,1.208,0,0,0-.3,1.606c.06.118.115.239.165.361.537,1.318.537,1.34,1.98,1.315.484-.009.681.1.621.611-.055.477.13,1.081-.1,1.412s-.865.062-1.318.114a1.475,1.475,0,0,0-.2.025c-.988.248-1.628,2.417-.944,3.173.321.355.953.644.9,1.06-.048.387-.632.688-.926,1.068-.418.54-.728.542-1.207.019a2.2,2.2,0,0,0-3.288-.076,1.6,1.6,0,0,0-.341,1.489c.049.567-.147.746-.692.672-.455-.062-1.029.182-1.344-.1-.3-.262-.058-.834-.1-1.268a1.8,1.8,0,0,0-.015-.2c-.2-.972-2.341-1.715-3.1-1.074-.05.043-.092.1-.143.138-.354.288-.719.992-1,.847a7.221,7.221,0,0,1-1.541-1.425c-.1-.1-.038-.2.049-.287a1.562,1.562,0,0,1,.187-.187,2,2,0,0,0,.6-2.968c-.322-.6-.66-.965-1.355-.917-.132.009-.268-.017-.4,0-.56.092-.756-.088-.733-.7.053-1.355.015-1.356,1.325-1.428a1.653,1.653,0,0,0,.264-.021c.993-.219,1.683-2.4,1-3.155-.322-.358-.934-.643-.927-1.058.007-.455.654-.717.956-1.117.4-.524.692-.529,1.159-.019a2.162,2.162,0,0,0,3.287.118,1.473,1.473,0,0,0,.381-1.28c-.005-.893,0-.893.846-.893,1.226,0,1.235,0,1.27,1.263a1.114,1.114,0,0,0,.823,1.141,1.039,1.039,0,0,1,.245.1,1.833,1.833,0,0,0,2.781-.6c.285-.4.528-.333.819.012s.619.63.93.944c.091.092.176.191.289.314" transform="translate(-11.429 -9.166)" fill="#3396e7"/>
    <path id="Trazado_162073" data-name="Trazado 162073" d="M125.49,57.083c-.582-.6-1.149-1.217-1.754-1.795-.274-.262-.217-.557-.217-.856q0-16.136,0-32.271c0-4.241.008-8.482-.011-12.723,0-.48.1-.639.609-.63,1.523.025,1.523,0,1.523,1.494V57l-.149.079" transform="translate(-64.105 -4.571)" fill="#ea423f"/>
    <path id="Trazado_162074" data-name="Trazado 162074" d="M117.092,110.1a2.643,2.643,0,0,1-4.424,1.914c-1.881-1.767-3.672-3.628-5.508-5.441-.229-.227-.137-.358.042-.536,1.081-1.072,2.161-2.145,3.227-3.231.225-.229.365-.22.585,0,1.754,1.772,3.523,3.528,5.276,5.3a2.917,2.917,0,0,1,.8,1.988" transform="translate(-55.549 -53.275)" fill="#3396e7"/>
    <path id="Trazado_162075" data-name="Trazado 162075" d="M35.814,99.186h-.647q-10.6,0-21.2.012c-.566,0-.793-.087-.767-.728.057-1.4.017-1.406,1.4-1.406q8.979,0,17.958-.008a1.418,1.418,0,0,1,1.063.386c.676.631,1.451,1.14,2.2,1.744" transform="translate(-6.848 -50.376)" fill="#d9dbdd"/>
    <path id="Trazado_162076" data-name="Trazado 162076" d="M100.547,94.594c.189-.008.264.115.354.2.935.932,1.86,1.875,2.807,2.8.253.246.247.407-.008.635-.457.408-.851,1.111-1.348,1.187-.481.073-.861-.707-1.286-1.111-.623-.59-1.208-1.22-1.83-1.811-.256-.243-.246-.4.015-.629.379-.334.72-.711,1.078-1.069.076-.076.157-.147.217-.2" transform="translate(-51.411 -49.098)" fill="#2977b7"/>
    <path id="Trazado_162077" data-name="Trazado 162077" d="M117.352,98.693l-1.333-1.624c.3,0,.766.009,1.229,0,.263-.007.265.15.263.337,0,.392,0,.784,0,1.177l-.158.113" transform="translate(-60.219 -50.381)" fill="#d8dadc"/>
    <path id="Trazado_162078" data-name="Trazado 162078" d="M111.461,97.134h1.1c-.637.594-.637.594-1.1,0" transform="translate(-57.853 -50.417)" fill="#d5d7d9"/>
    <path id="Trazado_162079" data-name="Trazado 162079" d="M95.058,101.084h-.895c.41-.5.417-.5.895,0" transform="translate(-48.875 -52.272)" fill="#d0d2d4"/>
    <path id="Trazado_162080" data-name="Trazado 162080" d="M24.01,67.089c0,1.346.006,2.692,0,4.038-.005.86-.395,1.248-1.256,1.253q-1.92.012-3.839,0c-.868,0-1.263-.389-1.265-1.243q-.01-4.072,0-8.143a1.075,1.075,0,0,1,1.221-1.218q1.953-.014,3.906,0c.851.006,1.229.4,1.234,1.275.007,1.346,0,2.692,0,4.038" transform="translate(-9.157 -32.06)"/>
    <path id="Trazado_162081" data-name="Trazado 162081" d="M96.946,22.068c.971,0,1.942-.005,2.912,0,.87.007,1.263.386,1.269,1.24q.014,1.952,0,3.9A1.079,1.079,0,0,1,99.9,28.431q-3.011.013-6.023,0a1.078,1.078,0,0,1-1.234-1.207q-.016-1.985,0-3.971a1.064,1.064,0,0,1,1.19-1.182c1.037-.012,2.074,0,3.111,0" transform="translate(-48.082 -11.453)"/>
    <path id="Trazado_162082" data-name="Trazado 162082" d="M96.894,15.367c-.992,0-1.984.005-2.976,0-.783-.006-1.252-.4-1.262-1.045s.461-1.07,1.232-1.073q3.009-.01,6.018,0c.77,0,1.241.429,1.23,1.076s-.482,1.037-1.266,1.042c-.992.007-1.984,0-2.976,0" transform="translate(-48.092 -6.873)"/>
    <path id="Trazado_162083" data-name="Trazado 162083" d="M78.146,24.186c-.661,0-1.322.012-1.983,0A1.063,1.063,0,0,1,75.008,23.1a1.051,1.051,0,0,1,1.137-1.032q2.048-.022,4.1,0a1.057,1.057,0,1,1,.02,2.111c-.7.02-1.409,0-2.114,0" transform="translate(-38.932 -11.45)"/>
    <path id="Trazado_162084" data-name="Trazado 162084" d="M78.2,33.011c-.683,0-1.366.012-2.048,0a1.06,1.06,0,1,1,.014-2.113q2.015-.02,4.031,0a1.064,1.064,0,1,1-.014,2.116c-.661.012-1.322,0-1.983,0" transform="translate(-38.932 -16.03)"/>
    <path id="Trazado_162085" data-name="Trazado 162085" d="M81.539,15.356c-.352,0-.705.016-1.056,0a1.053,1.053,0,0,1-1.063-1.038,1.033,1.033,0,0,1,1.027-1.069c.725-.029,1.452-.028,2.177,0a1.034,1.034,0,0,1,1.031,1.065,1.054,1.054,0,0,1-1.061,1.041c-.351.02-.7,0-1.056,0" transform="translate(-41.222 -6.864)" fill="#010101"/>
    <path id="Trazado_162086" data-name="Trazado 162086" d="M64.562,71.88a11.668,11.668,0,1,1,11.72-11.632A11.673,11.673,0,0,1,64.562,71.88" transform="translate(-27.481 -25.196)"/>
    <path id="Trazado_162087" data-name="Trazado 162087" d="M39.369,30.695a4.242,4.242,0,1,1-4.291-4.21,4.258,4.258,0,0,1,4.291,4.21" transform="translate(-16.03 -13.747)"/>
    <path id="Trazado_162088" data-name="Trazado 162088" d="M22.051,69.335c0-.926.012-1.853-.007-2.778-.006-.316.092-.4.407-.412,1.722-.075,1.721-.085,1.721,1.605,0,1.433-.013,2.867.008,4.3.005.373-.1.474-.475.479-1.655.025-1.655.038-1.655-1.606V69.335" transform="translate(-11.442 -34.319)" fill="#c2c5c6"/>
    <path id="Trazado_162089" data-name="Trazado 162089" d="M99.165,26.484h.463c1.77,0,1.763,0,1.6,1.789-.023.253-.09.34-.345.337q-1.784-.014-3.569,0c-.255,0-.322-.084-.345-.337-.163-1.789-.169-1.789,1.6-1.789Z" transform="translate(-50.296 -13.746)" fill="#c2c5c6"/>
    <path id="Trazado_162090" data-name="Trazado 162090" d="M57.357,62.484a9.547,9.547,0,1,1,9.56,9.568,9.557,9.557,0,0,1-9.56-9.568" transform="translate(-29.771 -27.486)" fill="#e8edf1"/>
    <path id="Trazado_162091" data-name="Trazado 162091" d="M39.536,33A2.12,2.12,0,1,1,37.408,30.9,2.129,2.129,0,0,1,39.536,33" transform="translate(-18.321 -16.039)" fill="#e8edf1"/>
  </g>
</svg>
