<svg xmlns="http://www.w3.org/2000/svg" xmlns:xlink="http://www.w3.org/1999/xlink" width="190" height="104" viewBox="0 0 190 104">
  <defs>
    <clipPath id="clip-path">
      <rect id="Rect치ngulo_41175" data-name="Rect치ngulo 41175" width="88.489" height="84.225" fill="none"/>
    </clipPath>
  </defs>
  <g id="Grupo_117506" data-name="Grupo 117506" transform="translate(-285.049 -411)">
    <rect id="Rect치ngulo_41122" data-name="Rect치ngulo 41122" width="190" height="104" transform="translate(285.049 411)" fill="none"/>
    <g id="Grupo_117447" data-name="Grupo 117447" transform="translate(-3337.23 1038.209)" opacity="0.3">
      <path id="Trazado_158283" data-name="Trazado 158283" d="M3677.784-530.075h0a16.354,16.354,0,0,0,23.129,0l67.216-67.214a16.357,16.357,0,0,0,0-23.129,16.355,16.355,0,0,0-23.129,0L3677.784-553.2A16.353,16.353,0,0,0,3677.784-530.075Z" transform="translate(14.296)" fill="#fc4b52"/>
      <path id="Trazado_158284" data-name="Trazado 158284" d="M3652.069-530.075h0a16.354,16.354,0,0,0,23.129,0l67.216-67.214a16.358,16.358,0,0,0,0-23.129,16.355,16.355,0,0,0-23.129,0L3652.069-553.2A16.354,16.354,0,0,0,3652.069-530.075Z" transform="translate(0)" fill="#feca2e"/>
    </g>
    <g id="Grupo_117507" data-name="Grupo 117507" transform="translate(335.804 420.888)">
      <g id="Grupo_117507-2" data-name="Grupo 117507" clip-path="url(#clip-path)">
        <path id="Trazado_162772" data-name="Trazado 162772" d="M310.521,203.281a6.718,6.718,0,0,1-3.55,4.91,6.855,6.855,0,0,1-3.168.677c-9.5,0-19,.016-28.5-.006a6.39,6.39,0,0,1-6.75-6.781q-.017-18.092,0-36.184a6.633,6.633,0,0,1,1.733-4.641q3.711-4.094,7.341-8.261a6.262,6.262,0,0,1,4.942-2.217q10.623-.025,21.245,0a6.375,6.375,0,0,1,6.588,5.29.871.871,0,0,0,.12.214Z" transform="translate(-222.032 -124.65)"/>
        <path id="Trazado_162773" data-name="Trazado 162773" d="M41.838,29.016q0,10.97,0,21.939c0,4.316-2.622,6.95-6.92,6.952q-13.993,0-27.988,0c-4.291,0-6.915-2.645-6.915-6.96Q.012,33.154,0,15.361a7.189,7.189,0,0,1,1.955-5.167c2.423-2.621,4.778-5.3,7.122-8A6.082,6.082,0,0,1,13.859.017q10.711-.026,21.422,0a6.348,6.348,0,0,1,6.552,6.627c.018,7.457.005,14.914.005,22.371" transform="translate(-0.001 -0.001)"/>
        <path id="Trazado_162774" data-name="Trazado 162774" d="M278.571,27.379c2.295,0,4.472-.006,6.65,0a7.147,7.147,0,0,1,3.346.661,6.132,6.132,0,0,1,3.533,5.6c.063,2.5.029,5.008.011,7.511a1.716,1.716,0,0,1-1.694,1.892,1.74,1.74,0,0,1-1.751-1.931c-.021-2.389,0-4.778-.009-7.166a2.816,2.816,0,0,0-2.948-3.1c-2.327-.053-4.656-.013-7.067-.013a4.113,4.113,0,0,0,.65,1.205,1.737,1.737,0,1,1-2.932,1.831c-.866-1.249-1.569-2.6-2.544-3.785a1.457,1.457,0,0,1-.01-1.923c.987-1.208,1.705-2.587,2.59-3.858a1.738,1.738,0,0,1,1.915-.849,1.651,1.651,0,0,1,1.3,1.343,2.278,2.278,0,0,1-.555,1.754c-.15.233-.284.476-.489.823" transform="translate(-226.086 -19.354)"/>
        <path id="Trazado_162775" data-name="Trazado 162775" d="M143.215,361.662c-.312-.494-.551-.845-.761-1.212a1.729,1.729,0,1,1,2.9-1.868c.568.828,1.082,1.694,1.637,2.532.268.405.572.787.865,1.175a1.544,1.544,0,0,1,.12,1.994c-.994,1.272-1.767,2.683-2.679,4a1.719,1.719,0,0,1-3.183-.839,2.417,2.417,0,0,1,.531-1.425c.162-.26.326-.52.568-.905-2.384,0-4.64,0-6.9,0a6.731,6.731,0,0,1-3.169-.678,6.054,6.054,0,0,1-3.484-5.45c-.085-2.558-.039-5.121-.02-7.681a1.728,1.728,0,1,1,3.441.034c.024,2.359,0,4.718.009,7.077a2.889,2.889,0,0,0,3.24,3.242c2.241.005,4.482,0,6.884,0" transform="translate(-107.163 -288.912)"/>
        <path id="Trazado_162776" data-name="Trazado 162776" d="M323.5,196.29q0,11.056,0,22.113c0,2.346-1.087,3.453-3.414,3.454q-14.124.007-28.247,0c-2.277,0-3.4-1.124-3.4-3.4q0-17.794-.019-35.587c0-.7.211-.851.864-.835,1.755.043,3.512.02,5.269.014a3.655,3.655,0,0,0,4-3.95c.022-2.188.025-4.377-.008-6.564-.009-.632.1-.886.828-.882,6.91.031,13.821.016,20.732.02,2.24,0,3.386,1.161,3.386,3.416q0,11.1,0,22.2" transform="translate(-238.463 -141.096)" fill="#fed766"/>
        <path id="Trazado_162777" data-name="Trazado 162777" d="M305.335,187c0,1.688-.011,3.116.006,4.544.006.466-.2.581-.628.574-1.234-.021-2.469-.007-3.921-.007l4.544-5.11" transform="translate(-248.692 -154.613)" fill="#f7ae5e"/>
        <path id="Trazado_162778" data-name="Trazado 162778" d="M54.851,45.472q0,11.015,0,22.03c0,2.347-1.079,3.428-3.427,3.428q-14.04,0-28.079,0c-2.294,0-3.4-1.1-3.4-3.367q0-17.711-.019-35.421c0-.731.186-.909.9-.886,1.726.056,3.455.032,5.183.015,2.6-.027,3.979-1.424,3.987-4.024.007-2.188.026-4.378-.014-6.565-.011-.621.183-.752.772-.751,6.969.02,13.939.009,20.908.016a2.928,2.928,0,0,1,3.193,3.235q.008,11.145,0,22.289" transform="translate(-16.47 -16.48)" fill="#a1dcf3"/>
        <path id="Trazado_162779" data-name="Trazado 162779" d="M36.737,36.4c0,1.657,0,3.061,0,4.465,0,.317-.028.573-.439.572-1.278,0-2.556,0-4.039,0L36.737,36.4" transform="translate(-26.674 -30.093)" fill="#00b5e9"/>
        <path id="Trazado_162780" data-name="Trazado 162780" d="M305.719,281.143c-1.372.574-2.019.359-2.784-.928a12.923,12.923,0,0,1,8.293-19.485,10.794,10.794,0,0,1,2.306-.28,1.84,1.84,0,0,1,2.15,2.07c.024,1.035,0,2.071,0,3.107,0,1.784.022,3.568-.013,5.351-.011.558.136.726.709.72,2.762-.03,5.524-.017,8.286-.013,1.683,0,2.362.737,2.235,2.4A12.984,12.984,0,0,1,316.5,286.143a1.825,1.825,0,0,1-2.513-1.492c-.353-.7.076-1.151.534-1.561a3.99,3.99,0,0,1,1.733-.722,9.01,9.01,0,0,0,6.481-6.007c.323-.907.245-.986-.7-.988-2.3,0-4.6-.054-6.9.016-1.758.054-3.2-.693-3.1-3.06s.028-4.716.017-7.074c0-.834-.123-.924-.915-.672a9.226,9.226,0,0,0-6.407,8.433,9.879,9.879,0,0,0,1.386,5.34,3.62,3.62,0,0,1,.431.938,1.527,1.527,0,0,1-.823,1.849" transform="translate(-248.857 -215.337)"/>
        <path id="Trazado_162781" data-name="Trazado 162781" d="M322.114,298.779c.851-1.05.862-1.512.067-2.868a9.507,9.507,0,0,1,5.794-14.074c.6-.157.666.008.662.537-.02,2.589-.013,5.178-.008,7.767,0,1.823.81,2.633,2.612,2.635,2.788,0,5.577,0,8.451,0a9.36,9.36,0,0,1-5.347,6.9,11.046,11.046,0,0,1-2.292.727,1.826,1.826,0,0,0-1.675,1.88,9.536,9.536,0,0,1-2.925-.368c-.167-.144-.163-.349-.2-.543a1.509,1.509,0,0,0-2.6-1.039c-.132.1-.241.249-.441.183l-2.1-1.741" transform="translate(-265.251 -232.974)" fill="#ed569d"/>
        <path id="Trazado_162782" data-name="Trazado 162782" d="M405.9,245.069c-1.641,0-3.282.012-4.923,0a2.465,2.465,0,0,1-2.7-2.683q-.028-4.966,0-9.931c.007-1.46.694-2.1,2.132-2.07a12.929,12.929,0,0,1,12.556,12.628,1.776,1.776,0,0,1-1.972,2.054c-1.7.027-3.4.007-5.1.007" transform="translate(-329.284 -190.476)"/>
        <path id="Trazado_162783" data-name="Trazado 162783" d="M339.619,385.673a1.845,1.845,0,0,1,2.245-.759c.777.324,1.066.951.994,2.158a1.823,1.823,0,0,1-1.944,1.1,1.689,1.689,0,0,1-1.419-1.321,2.358,2.358,0,0,1,.125-1.179" transform="translate(-280.655 -318.126)" fill="#010100"/>
        <path id="Trazado_162784" data-name="Trazado 162784" d="M422.061,259.114c-1.094,0-2.188-.013-3.281.007-.4.007-.559-.117-.556-.537q.023-3.281,0-6.562c0-.44.127-.55.556-.429a9.486,9.486,0,0,1,6.971,6.955c.144.509-.056.583-.5.574-1.065-.021-2.13-.007-3.195-.007" transform="translate(-345.784 -207.977)" fill="#00b6eb"/>
        <path id="Trazado_162785" data-name="Trazado 162785" d="M107.251,127.12a4.146,4.146,0,1,1,4.175-4.133,4.156,4.156,0,0,1-4.175,4.133" transform="translate(-85.271 -98.247)" fill="#efcfb3"/>
        <path id="Trazado_162786" data-name="Trazado 162786" d="M94.872,117.314h-.038a6.744,6.744,0,1,1,.134-13.487,6.757,6.757,0,0,1,6.653,6.762,6.757,6.757,0,0,1-6.75,6.725m-.009-5.2h.008a1.547,1.547,0,0,0,1.1-.455,1.526,1.526,0,0,0,.459-1.085,1.544,1.544,0,0,0-2.634-1.1,1.51,1.51,0,0,0-.46,1.071,1.559,1.559,0,0,0,.453,1.114,1.52,1.52,0,0,0,1.078.459" transform="translate(-72.869 -85.843)"/>
        <path id="Trazado_162787" data-name="Trazado 162787" d="M85.065,181.072c-.175,2.2-.331,4.327-.523,6.452-.042.464.151,1.1-.2,1.347-.326.225-.915.078-1.388.08-1.123.005-2.246-.006-3.369.007-.3,0-.4-.063-.408-.39a8.3,8.3,0,0,1,5.89-7.5" transform="translate(-65.46 -149.709)" fill="#fe816e"/>
        <path id="Trazado_162788" data-name="Trazado 162788" d="M71.385,175.484c-.24,0-.451-.017-.62-.03-.073-.006-.173-.014-.209-.014-.452,0-.908,0-1.364,0-.652,0-1.326,0-1.981.006a2.869,2.869,0,0,1-3.036-2.931,10.831,10.831,0,0,1,7.872-10.077l3.49-.851-.285,3.581q-.069.872-.136,1.731c-.126,1.613-.245,3.137-.385,4.7,0,.04,0,.082.007.124a3.421,3.421,0,0,1-1.326,3.18,3.486,3.486,0,0,1-2.026.584" transform="translate(-53.058 -133.6)"/>
        <path id="Trazado_162789" data-name="Trazado 162789" d="M140.98,181.1a8.193,8.193,0,0,1,5.758,6.457c.217,1.419.217,1.419-1.181,1.419h-3.5c-.233,0-.47.053-.5-.323-.183-2.495-.382-4.988-.582-7.553" transform="translate(-116.561 -149.729)" fill="#fe816e"/>
        <path id="Trazado_162790" data-name="Trazado 162790" d="M128.268,175.622a2.874,2.874,0,0,1-2.977-2.733c-.137-1.874-.281-3.711-.434-5.657l-.423-5.427,3.46.812a10.843,10.843,0,0,1,7.732,8.594,3.3,3.3,0,0,1-3.749,4.41h-3.609" transform="translate(-102.881 -133.779)"/>
        <path id="Trazado_162791" data-name="Trazado 162791" d="M122.7,186.948c-.959,0-.961,0-.886-.946q.26-3.282.525-6.564c.012-.15.045-.3.05-.449.007-.228.078-.349.343-.341s.262.165.276.34q.158,1.865.315,3.731.135,1.641.262,3.282c.074.947.073.947-.885.947" transform="translate(-100.695 -147.704)" fill="#e5e8ec"/>
        <path id="Trazado_162792" data-name="Trazado 162792" d="M110.318,177.145a3.082,3.082,0,0,1-3.476-3.749q.26-3.284.525-6.567c.009-.116.024-.231.04-.346l.005-.039a2.905,2.905,0,0,1,5.8-.09l.089,1.043q.115,1.353.228,2.706.136,1.646.263,3.292a3.082,3.082,0,0,1-3.475,3.748" transform="translate(-88.308 -135.303)"/>
        <path id="Trazado_162793" data-name="Trazado 162793" d="M107.251,127.12a4.146,4.146,0,1,1,4.175-4.133,4.156,4.156,0,0,1-4.175,4.133" transform="translate(-85.271 -98.247)" fill="#efcfb3"/>
        <path id="Trazado_162794" data-name="Trazado 162794" d="M85.065,181.072c-.175,2.2-.331,4.327-.523,6.452-.042.464.151,1.1-.2,1.347-.326.225-.915.078-1.388.08-1.123.005-2.246-.006-3.369.007-.3,0-.4-.063-.408-.39a8.3,8.3,0,0,1,5.89-7.5" transform="translate(-65.46 -149.709)" fill="#fe816e"/>
        <path id="Trazado_162795" data-name="Trazado 162795" d="M140.98,181.1a8.193,8.193,0,0,1,5.758,6.457c.217,1.419.217,1.419-1.181,1.419h-3.5c-.233,0-.47.053-.5-.323-.183-2.495-.382-4.988-.582-7.553" transform="translate(-116.561 -149.729)" fill="#fe816e"/>
        <path id="Trazado_162796" data-name="Trazado 162796" d="M122.7,186.948c-.959,0-.961,0-.886-.946q.26-3.282.525-6.564c.012-.15.045-.3.05-.449.007-.228.078-.349.343-.341s.262.165.276.34q.158,1.865.315,3.731.135,1.641.262,3.282c.074.947.073.947-.885.947" transform="translate(-100.695 -147.704)" fill="#e5e8ec"/>
      </g>
    </g>
  </g>
</svg>
