<svg xmlns="http://www.w3.org/2000/svg" xmlns:xlink="http://www.w3.org/1999/xlink" width="190" height="104" viewBox="0 0 190 104">
  <defs>
    <clipPath id="clip-path">
      <rect id="Rect치ngulo_40844" data-name="Rect치ngulo 40844" width="85" height="84.532" fill="none"/>
    </clipPath>
  </defs>
  <g id="Grupo_117448" data-name="Grupo 117448" transform="translate(-285.049 -411)">
    <rect id="Rect치ngulo_41122" data-name="Rect치ngulo 41122" width="190" height="104" transform="translate(285.049 411)" fill="none"/>
    <g id="Grupo_117447" data-name="Grupo 117447" transform="translate(-3337.23 1038.209)" opacity="0.3">
      <path id="Trazado_158283" data-name="Trazado 158283" d="M3677.784-530.075h0a16.354,16.354,0,0,0,23.129,0l67.216-67.214a16.357,16.357,0,0,0,0-23.129,16.355,16.355,0,0,0-23.129,0L3677.784-553.2A16.353,16.353,0,0,0,3677.784-530.075Z" transform="translate(14.296)" fill="#fc4b52"/>
      <path id="Trazado_158284" data-name="Trazado 158284" d="M3652.069-530.075h0a16.354,16.354,0,0,0,23.129,0l67.216-67.214a16.358,16.358,0,0,0,0-23.129,16.355,16.355,0,0,0-23.129,0L3652.069-553.2A16.354,16.354,0,0,0,3652.069-530.075Z" transform="translate(0)" fill="#feca2e"/>
    </g>
    <g id="Grupo_116864" data-name="Grupo 116864" transform="translate(338.049 421)">
      <g id="Grupo_116863" data-name="Grupo 116863" clip-path="url(#clip-path)">
        <path id="Trazado_162008" data-name="Trazado 162008" d="M13.18,135.271c-.01,1.158-.062,2.317-.013,3.473.029.666-.119.875-.836.869-4.11-.037-8.221-.012-12.331-.008V116.494a7.265,7.265,0,0,0,1.807.068c3.337.011,6.674.005,10.011.005,1.291,0,1.291,0,1.366,1.251a1.764,1.764,0,0,1,.222,1.115q.006,7.614,0,15.226a1.677,1.677,0,0,1-.224,1.112" transform="translate(0 -57.677)"/>
        <path id="Trazado_162009" data-name="Trazado 162009" d="M78.709,29.874q-6.388,6.182-12.785,12.356a.843.843,0,0,0-.221.948c.485,1.957.939,3.922,1.441,5.874a1.035,1.035,0,0,1-.327,1.166c-.692.638-1.361,1.3-1.994,2-.355.39-.561.407-.95.011-2.271-2.312-4.584-4.582-6.854-6.895-.405-.414-.617-.421-1.009.007-.8.877-1.682,1.686-2.511,2.541-.24.247-.368.267-.643.014-1.514-1.392-1.514-1.372-.1-2.815.651-.663,1.823-1.263,1.8-2.011-.024-.675-1.144-1.314-1.788-1.961-1.8-1.806-3.59-3.618-5.411-5.4-.366-.357-.372-.542,0-.884.735-.673,1.438-1.382,2.117-2.111a.9.9,0,0,1,1.025-.256c2.009.506,4.029.968,6.039,1.467a.638.638,0,0,0,.735-.141q6.276-6.52,12.568-13.024c.406-.844,1.293-1.279,1.759-2.072,1.209-1.373,2.569-2.6,3.834-3.916.183-.191.541-.343.449-.639s-.465-.245-.726-.3c-5.431-1.079-10.845-2.244-16.275-3.327-.814-.163-1.617-.38-2.436-.519a16.664,16.664,0,0,0-2.669-.463c.024.436.308.491.506.605q6.773,3.893,13.546,7.785c1.011.579,1.068,1.033.225,1.828-.693,1.012-.692,1.012-1.8.374-5.463-3.134-10.921-6.279-16.4-9.389-.655-.372-.657-.58-.12-1.067.922-.837,1.8-1.724,2.642-2.644a1.2,1.2,0,0,1,1.312-.379c.941.222,1.894.395,2.834.617A1.092,1.092,0,0,0,57.686,6.9C58.953,5.587,60.279,4.327,61.54,3c.417-.437.64-.382,1.027.022,1.207,1.26,2.429,2.508,3.7,3.7.491.458.424.716-.035,1.08a5.948,5.948,0,0,0-.762.763c-.107.122-.418.224-.206.441.174.179.4.087.579-.1.364-.38.743-.745,1.113-1.119.931-.944,1.86-1.89,2.765-2.811l4.742,4.749-.945,1c1.633.345,3.188.661,4.736,1.008.431.1.6-.2.816-.43C80.95,9.379,82.809,7.438,84.7,5.529A19.771,19.771,0,0,1,94.344.148a4.07,4.07,0,0,1,5.114,5.116,19.677,19.677,0,0,1-5.378,9.645c-1.87,1.851-3.752,3.691-5.664,5.5a1.3,1.3,0,0,0-.436,1.431c.335,1.368.588,2.756.874,4.137.053,0,.123.01.156-.019.967-.831.966-.832,1.883.086,1.077,1.077,2.135,2.175,3.24,3.223.419.4.514.619.029,1.065-1.1,1.012-2.129,2.1-3.186,3.159-.117.117-.231.238-.35.355a.338.338,0,0,0-.008.517c.191.188.272-.07.369-.161.364-.341.729-.683,1.058-1.056.251-.285.4-.232.648.017,1.32,1.344,2.646,2.681,4,3.992.353.342.3.527-.021.843-1.291,1.255-2.533,2.56-3.839,3.8a1.307,1.307,0,0,0-.444,1.447c.256.989.394,2.007.63,3a.737.737,0,0,1-.245.8c-1.029,1.008-2.057,2.018-3.052,3.059-.356.372-.485.255-.7-.12q-4.961-8.666-9.953-17.315c-.231-.4-.144-.572.226-.744a4.125,4.125,0,0,0,.539-.358c.756-.89,1.24-.865,1.81.114q3.843,6.6,7.62,13.245a1.73,1.73,0,0,0,.714.821C88.584,38.4,87.233,31.062,85.5,23.579c-.831.934-1.7,1.6-2.477,2.354-1.134,1.1-2.236,2.228-3.354,3.342a1.607,1.607,0,0,1-.964.6" transform="translate(-23.308 0)" fill="#010102"/>
        <path id="Trazado_162010" data-name="Trazado 162010" d="M89.9,113.162a1.539,1.539,0,0,1,1.267.015c1.7.655,3.411,1.275,5.124,1.895a1.331,1.331,0,0,1,.84.715c.806,1.695,1.625,3.385,2.5,5.046.268.509.095.633-.331.814q-19.637,8.39-39.266,16.8A1.532,1.532,0,0,1,59,138.5q-11.683-2.8-23.372-5.576a5.143,5.143,0,0,0-1.148-.124q-2.238-.027-4.475-.061c-.093-.4,0-.815-.1-1.228-.262-1.075.027-1.426,1.119-1.459a3.862,3.862,0,0,1,.577.014,26.18,26.18,0,0,1,8.686,1.132c5.753,1.436,11.539,2.731,17.29,4.176a4.986,4.986,0,0,0,3.366-.286q16.891-7.22,33.768-14.471c.076-.033.154-.062.231-.095,1.178-.5,1.13-.5.631-1.69a3.186,3.186,0,0,0-2.105-1.9c-3.563-1.218-2.239-1.288-5.7.162-3.858,1.618-7.7,3.284-11.537,4.94a4.407,4.407,0,0,1-1.774.37q-10.266,0-20.532-.005c-1.184,0-1.317-.151-1.328-1.357,0-.167,0-.333,0-.5.037-.935.187-1.1,1.151-1.106,2.3-.018,4.6,0,6.9-.008,1.029,0,1.078-.058,1.09-1.077.007-.582,0-1.164.006-1.745a.871.871,0,0,1,.937-1c1.881-.132,2.022-.01,2.032,1.9.011,2.106-.241,1.913,1.911,1.919q2.867.009,5.736,0c.934,0,1.021-.078,1.013-.983-.028-3.09.359-2.235-1.752-4.323-2.727-2.7-1.43-2.168-5.307-2.185-7.4-.033-14.795,0-22.192-.01a5.481,5.481,0,0,0-4.314,1.147c-.661.526-1.472.851-2.152,1.369a1.572,1.572,0,0,0-.87,1.629q.038,2.311,0,4.624c-.017,1.015-.21,1.228-1.223,1.2-.607-.014-1.371.29-1.716-.573-.078-1.6-.014-3.193-.036-4.789-.012-.852-.1-.936-.951-.959-.716-.02-1.432.067-2.146,0s-1.015-.421-.852-1.1A11.24,11.24,0,0,0,30,113.09a2.58,2.58,0,0,1,1.765-.143,7.392,7.392,0,0,0,5.838-1.689c2.092-1.765,4.492-2.166,7.208-2.118,8.352.146,16.708.058,25.062.042a1.541,1.541,0,0,1,1.229.5c1.209,1.245,2.458,2.451,3.692,3.672a2.473,2.473,0,0,1,1.553,2.5c-.055.688-.019,1.385-.007,2.077.013.747.069.8.768.508,2.254-.929,4.482-1.92,6.727-2.871,1.734-.735,3.463-1.484,5.195-2.225a1.324,1.324,0,0,1,.879-.179" transform="translate(-14.761 -54.034)"/>
        <path id="Trazado_162011" data-name="Trazado 162011" d="M109.728,52.718l6.8-6.58c.4.227.246.683.343,1.052,1.168,4.481,1.944,9.047,2.908,13.571.518,2.43.883,4.891,1.48,7.306.147.594.132.6-.364,1.1-.164-.264-.329-.513-.478-.772q-3.865-6.723-7.727-13.447c-.656-1.143-.655-1.144-1.836-.54a7.135,7.135,0,0,0-1.124-1.685" transform="translate(-54.327 -22.843)" fill="#85b638"/>
        <path id="Trazado_162012" data-name="Trazado 162012" d="M28.159,116.967c.006.58.043,1.161.009,1.738-.028.485.162.612.618.6.968-.032,1.939,0,2.908-.026.393-.01.53.118.523.521-.028,1.8-.029,3.6-.039,5.4-.5-.178-.372-.629-.383-.981-.033-1.132,0-2.265-.017-3.4-.008-.53.138-1.17-.752-1.159-.739.009-.876.15-.878,1.141-.007,4.005,0,8.01-.008,12.015a1.821,1.821,0,0,1-.257,1.346c-1.689.086-1.688.086-1.683,1.8,0,.219-.018.438-.028.656-.25-1.131-.25-1.131-1.49-1.122-.193,0-.386.006-.579.009q0-8.727,0-17.454a4.694,4.694,0,0,1,.653.01c.863.132,1.465-.05,1.4-1.1" transform="translate(-12.924 -57.911)" fill="#feba84"/>
        <path id="Trazado_162013" data-name="Trazado 162013" d="M134.008,114.758q-6.6,2.842-13.207,5.692c-.528.229-.532-.01-.525-.408.015-.829-.05-1.663.02-2.486a2.05,2.05,0,0,0-.832-2.012,4.658,4.658,0,0,1-.572-.594l1.969-.854c.582.727,1.2.641,1.989.26,1.362-.659,2.783-1.2,4.167-1.815a1.789,1.789,0,0,1,1.5-.03c.895.358,1.806.676,2.713,1,.947.342.941.354,1.435-.487.068-.116.133-.248.31-.192l1.028,1.923" transform="translate(-58.865 -55.63)" fill="#feba84"/>
        <path id="Trazado_162014" data-name="Trazado 162014" d="M134.671,110.4c-.567,1.334-.566,1.329-1.966.818-1.086-.4-2.186-1.109-3.264-1.079s-2.139.8-3.206,1.256a25.5,25.5,0,0,0-2.35,1.026c-.669.367-1,.238-1.165-.48a1.079,1.079,0,0,0-.168-.281c-.407-1.221-.408-1.223.794-1.737,1.8-.77,3.614-1.517,5.4-2.322a1.562,1.562,0,0,1,1.329-.022c1.285.5,2.567,1.02,3.884,1.425.812.25,1.157.579.711,1.4" transform="translate(-60.555 -53.196)"/>
        <path id="Trazado_162015" data-name="Trazado 162015" d="M74.2,28.828c.551-1.145.551-1.144-.556-1.78q-6.817-3.917-13.629-7.842c-.2-.118-.632-.144-.508-.5s.47-.415.838-.327c.724.174,1.452.329,2.178.492a22.279,22.279,0,0,0,3.534,2.153c3.574,2.058,7.136,4.138,10.73,6.163.37.209.839.333,1.006.809a16.51,16.51,0,0,1-1.809,1.845L74.2,28.828" transform="translate(-29.45 -9.083)" fill="#85b638"/>
        <path id="Trazado_162016" data-name="Trazado 162016" d="M16.513,121.669a.528.528,0,0,1,.054.155q-.009,8.826-.023,17.652c-1.316.15-2.637.026-3.955.07-.348.012-.5-.174-.559-.478a1.239,1.239,0,0,1-.037-.245c0-2.808-.111-5.616.056-8.421.242-.61.851-.531,1.325-.673a3.176,3.176,0,0,0,1.424-5.244,4.807,4.807,0,0,0-2.28-1.086c-.6-.3-.551-.836-.473-1.366a.455.455,0,0,1,.5-.441c1.321.042,2.646-.091,3.966.075" transform="translate(-5.919 -60.196)" fill="#e0f6be"/>
        <path id="Trazado_162017" data-name="Trazado 162017" d="M13.029,121.649c-1.128.009-2.256,0-3.384.037-.307.01-.8-.239-.876.308-.063.476-.223,1.061.474,1.288-.207.3-.542.224-.829.279a3.16,3.16,0,0,0-.376,6.127c.26.086.643,0,.714.421,0,2.872.007,5.744-.024,8.616-.006.6.208.756.769.741,1.187-.033,2.375-.01,3.562-.009-.124.3-.384.148-.574.149-2.3.007-4.592-.021-6.887.006-.553.007-.684-.158-.682-.692.019-5.56.012-11.12.011-16.68,0-.362-.075-.7.511-.693,2.434.021,4.868,0,7.3-.005a.9.9,0,0,1,.288.107" transform="translate(-2.434 -60.176)" fill="#e0f6be"/>
        <path id="Trazado_162018" data-name="Trazado 162018" d="M76.072,42.059c1.273-1.289,2.53-2.6,3.828-3.859.388-.377.425-.605,0-.964-.438-.372-.815-.815-1.219-1.227-.185-.112-.169-.265-.083-.426a2.1,2.1,0,0,1,.425-.507c3.012-2.892,5.84-5.964,8.751-8.954,2.236-2.3,4.543-4.528,6.714-6.885,2.379-2.582,4.979-4.947,7.3-7.583.248-.282.492-.615.934-.63.3.068.522.278.921.161a1.132,1.132,0,0,1,1.507,1.237c-.092.9.485,1.3,1.007,1.769.441.393.632-.046.8-.352a3.344,3.344,0,0,0-1.229-4.286,3.116,3.116,0,0,1-.91-.563c-.038-.6.452-.864.807-1.158a19.987,19.987,0,0,1,3.75-2.52,1.2,1.2,0,0,1,.933-.2,1.485,1.485,0,0,1,.973,1.917,17.067,17.067,0,0,1-4.676,8.536Q92.412,29.388,78.181,43.173c-.647.629-1.487.436-2.262.523-.358-.584-.09-1.109.153-1.637" transform="translate(-37.502 -2.512)" fill="#fff7e0"/>
        <path id="Trazado_162019" data-name="Trazado 162019" d="M99.337,11.007Q92.72,17.83,86.1,24.653q-5.124,5.269-10.265,10.521c-.2.2-.539.337-.454.725a22.153,22.153,0,0,0-2.519,2.391c-1.228,1.185-2.418,2.41-3.788,3.782.15-1.34.26-2.452.415-3.558.026-.189.233-.365.384-.521Q83.383,24.065,96.894,10.14a17.912,17.912,0,0,1,9.079-5.2A1.174,1.174,0,0,1,107,5a16.993,16.993,0,0,0-5.472,3.788c-.29.25-.627.074-.939.089a3.437,3.437,0,0,0-1.414.382c-.645.329-.653.438-.182,1.01.171.208.522.356.339.736" transform="translate(-34.199 -2.403)" fill="#cba124"/>
        <path id="Trazado_162020" data-name="Trazado 162020" d="M80.7,28.513q-7.448-4.273-14.894-8.551c-.205-.118-.6-.156-.376-.575l14.213,2.893q2.641.538,5.279,1.084c.184.038.364.1.652.187L80.7,28.513" transform="translate(-32.363 -9.599)" fill="#85b638"/>
        <path id="Trazado_162021" data-name="Trazado 162021" d="M75.976,90.217q.195.709.389,1.418c.041.152.146.325-.062.431-.166.085-.245-.078-.334-.167-1.577-1.57-3.151-3.143-4.836-4.826l1.5-.16a16.471,16.471,0,0,1,3.346,3.3" transform="translate(-35.218 -43.031)" fill="#85b638"/>
        <path id="Trazado_162022" data-name="Trazado 162022" d="M59.1,73.34a3.011,3.011,0,0,1-.17,1.294L53.9,69.616a5.486,5.486,0,0,1,1.866.393A15.534,15.534,0,0,1,59.1,73.34" transform="translate(-26.689 -34.467)" fill="#85b638"/>
        <path id="Trazado_162023" data-name="Trazado 162023" d="M60.926,73.726A42.011,42.011,0,0,1,57.6,70.394l3.22.722c.305.068.475.191.4.564-.128.677-.2,1.363-.3,2.045" transform="translate(-28.518 -34.852)" fill="#85b638"/>
        <path id="Trazado_162024" data-name="Trazado 162024" d="M77.443,89.936a36.268,36.268,0,0,1-3.346-3.3c.812-.083,1.8-.486,2.388-.162.616.34.468,1.485.715,2.262a10.838,10.838,0,0,1,.243,1.2" transform="translate(-36.686 -42.75)" fill="#85b638"/>
        <path id="Trazado_162025" data-name="Trazado 162025" d="M73.009,13.871a11.784,11.784,0,0,0,1.277-1.163c.457-.551.818-.546,1.19.029.16.248.726.407.43.737-.347.388-.582,1.068-1.33.915l-1.44-.29Z" transform="translate(-36.147 -6.09)" fill="#fa7754"/>
        <path id="Trazado_162026" data-name="Trazado 162026" d="M135.147,75.337c-.665-1.688-.607-2.038.241-2.846.277-.264.422-.286.712,0,.863.844.871.819.054,1.663-.339.35-.633.743-1.007,1.186" transform="translate(-66.688 -35.788)" fill="#fb7755"/>
        <path id="Trazado_162027" data-name="Trazado 162027" d="M89.945,18.16c.007-.284.194-.388.33-.507.259-.227.481-.741.78-.619a2.172,2.172,0,0,1,1,.944c.2.379-.148.589-.534.524-.532-.088-1.056-.227-1.575-.342" transform="translate(-44.532 -8.425)" fill="#f47452"/>
        <path id="Trazado_162028" data-name="Trazado 162028" d="M131.484,59.049c-.127-.576-.233-1.085-.353-1.59a.507.507,0,0,1,.261-.554c.227-.169.341.053.477.168,1,.842.959,1.075-.385,1.977" transform="translate(-64.916 -28.144)" fill="#f67553"/>
        <path id="Trazado_162029" data-name="Trazado 162029" d="M74.767,78.326l-.153,1.637a4.557,4.557,0,0,1-1.506.182l1.659-1.819" transform="translate(-36.196 -38.78)" fill="#f3ae51"/>
        <path id="Trazado_162030" data-name="Trazado 162030" d="M33.572,132.774c0-4.6.015-9.2-.019-13.8-.006-.749.174-1.018.959-.975,1.4.076,1.214-.132,1.224,1.272.009,1.247,0,2.494.006,3.741,0,.268-.086.558.125.8.052.495.437.311.7.316,1.819.034,1.82.029,1.82-1.753,0-1.266.072-2.538-.023-3.8a1.6,1.6,0,0,1,1.2-1.906,2.311,2.311,0,0,1,1.2-.21,3.673,3.673,0,0,0,2.477-.726,12.871,12.871,0,0,1,2.639-1.526q5.61-.015,11.22-.028c4.545-.005,9.089.006,13.634-.011a1.438,1.438,0,0,1,1.156.475c1.055,1.1,2.14,2.17,3.234,3.23a1.252,1.252,0,0,1,.42,1.019c-.027.914-.029,1.829,0,2.743.014.436-.124.564-.56.561q-4.073-.027-8.146,0c-.405,0-.52-.132-.509-.523.025-.942-.014-1.885.018-2.826.015-.439-.125-.548-.558-.559-1.947-.05-1.942-.066-1.949,1.91,0,.632.208,1.472-.113,1.843-.38.44-1.246.133-1.9.14-2.133.021-4.267.028-6.4-.006-.59-.009-.819.1-.807.759.033,1.748,0,1.749,1.781,1.749q9.934,0,19.869.006a3.715,3.715,0,0,0,1.521-.306c4.641-2,9.3-3.975,13.935-5.98a1.68,1.68,0,0,1,1.417-.038,27.953,27.953,0,0,0,2.8,1.032,2.1,2.1,0,0,1,1.5,1.378c.234.616.875,1.292.74,1.774-.144.515-1.1.605-1.7.865q-17.289,7.412-34.582,14.813a2.129,2.129,0,0,1-1.433.114Q49.09,135.6,37.71,132.921a28.826,28.826,0,0,0-4.138-.147" transform="translate(-16.612 -56.525)" fill="#fed9a9"/>
        <path id="Trazado_162031" data-name="Trazado 162031" d="M51.769,114.164a18.846,18.846,0,0,1-3.643,2.324c-.8.407-1.779.089-2.676.139,1.209-.771,2.388-1.594,3.636-2.3.826-.463,1.784-.136,2.684-.167" transform="translate(-22.503 -56.482)" fill="#fdba84"/>
        <path id="Trazado_162032" data-name="Trazado 162032" d="M9.431,131.814a3.573,3.573,0,0,1-2.978-2.406,3.4,3.4,0,1,1,6.634-.862c-.073,1.868-1.452,3.1-3.656,3.268" transform="translate(-3.114 -61.881)"/>
        <path id="Trazado_162033" data-name="Trazado 162033" d="M127.972,14.764c-.165-.183-.321-.373-.494-.547-.806-.811-.788-.919.277-1.423a3.577,3.577,0,0,1,2.413-.248c2.44.894,3.411,3.335,2.143,5.372-.293.471-.568.735-1.012.132a5.376,5.376,0,0,0-.757-.766.763.763,0,0,1-.254-.979,1.012,1.012,0,0,0-1.33-1.28c-.506.222-.692-.057-.985-.262" transform="translate(-62.834 -6.16)"/>
        <path id="Trazado_162034" data-name="Trazado 162034" d="M12.178,129.943a.855.855,0,0,1,.865.892.824.824,0,0,1-.867.9.837.837,0,0,1-.921-.926.861.861,0,0,1,.923-.862" transform="translate(-5.572 -64.335)" fill="#f9f9f9"/>
      </g>
    </g>
  </g>
</svg>
