<svg id="Grupo_137557" data-name="Grupo 137557" xmlns="http://www.w3.org/2000/svg" xmlns:xlink="http://www.w3.org/1999/xlink" width="58.771" height="54.536" viewBox="0 0 58.771 54.536">
  <defs>
    <clipPath id="clip-path">
      <rect id="Rectángulo_41165" data-name="Rectángulo 41165" width="58.771" height="54.536" fill="none"/>
    </clipPath>
  </defs>
  <g id="Grupo_117483" data-name="Grupo 117483" clip-path="url(#clip-path)">
    <path id="Trazado_162455" data-name="Trazado 162455" d="M85.7,0H89c.768.105,1.547.065,2.316.16A25.746,25.746,0,0,1,97.7,1.9c.152.06.4.1.3.386a2.271,2.271,0,0,1-.98.2,22.737,22.737,0,0,0-6.483,1.782,1.193,1.193,0,0,0-.86,1.267c.034,3.649.014,7.3.02,10.947,0,.271-.082.58.219.772a5.007,5.007,0,0,0,1.272.006q8.4.01,16.806,0c.177,0,.355,0,.532,0,.65-.014.694-.051.7-.7.007-1.383,0-2.766,0-4.148a2.24,2.24,0,0,1,.074-.789c.319-.381.465,0,.592.172a17.376,17.376,0,0,1,1.3,2.067,26.373,26.373,0,0,1,3.217,9.665,38.608,38.608,0,0,1,.127,5.613,23.892,23.892,0,0,1-1.368,7.059,26.2,26.2,0,0,1-3.264,6.476c-.121.177-.188.546-.568.349a4.143,4.143,0,0,1-.1-1.353,9.865,9.865,0,0,0-.092-2.037,10.343,10.343,0,0,0-2.4-1.124,20.763,20.763,0,0,0-9.086-1.231,21.5,21.5,0,0,0-7.3,1.956,1.028,1.028,0,0,0-.674,1.064c.019,3.7.009,7.408.011,11.112a1.146,1.146,0,0,0,.108.67.664.664,0,0,0,.506.1c2.208-.055,4.416-.011,6.624-.022a1.389,1.389,0,0,1,.724.111c.145.327-.138.374-.321.452-.488.206-.991.379-1.493.551a26.045,26.045,0,0,1-9.989,1.209c-.651-.036-1.307-.031-1.959-.071-.222-.013-.521.065-.547-.312a2.392,2.392,0,0,0,.137-1.043q0-4.751,0-9.5c0-.23,0-.46.023-.689-.055-.653-.023-1.308-.024-1.961q-.006-4.72,0-9.441a4.575,4.575,0,0,1,.026-.688c-.033-.76-.036-1.52,0-2.28a3.831,3.831,0,0,1-.027-.476q0-7.319,0-14.637a3.232,3.232,0,0,1,.026-.476c-.031-.755-.037-1.509,0-2.264-.051-2.013-.011-4.026-.022-6.039-.006-1.13,0-2.261,0-3.391a1.172,1.172,0,0,0-.232-.845c-.021-.373.273-.243.443-.252.665-.035,1.333-.031,2-.114" transform="translate(-60.058)" fill="#b2c5c7"/>
    <path id="Trazado_162456" data-name="Trazado 162456" d="M23.6,31.3q0,6.047-.007,12.094c-.26.305-.619.22-.944.221q-7.362.01-14.725,0c-.921,0-1.842.048-2.761-.036a.921.921,0,0,1-.647-.5A27.681,27.681,0,0,1,.191,32.124c-.114-.694-.035-1.4-.19-2.095v-.958a1.1,1.1,0,0,0,0-.745v-.745c.114-.2.026-.426.054-.638-.027-.212.06-.434-.054-.639v-.745c.154-.744.087-1.508.217-2.258A27.078,27.078,0,0,1,6.325,10.157a27.307,27.307,0,0,1,9.813-7.381A26.114,26.114,0,0,1,22.218.895c.319-.057.647-.216.979-.032.246-.01.426,0,.424.351C23.6,4.542,23.6,7.869,23.6,11.2a2.354,2.354,0,0,1-1.748.1c-.325-.068-.3-.4-.3-.667-.008-1.4,0-2.8,0-4.2,0-.75-.071-.821-.815-.822q-3.081,0-6.162,0c-.245,0-.5-.04-.686.187a1.725,1.725,0,0,0-.077.735q0,15.756,0,31.512c0,.159.008.319.008.478,0,.3.14.458.45.459,2.3.009,4.6.03,6.907-.012a.411.411,0,0,0,.2-.066c.215-.192.176-.449.176-.693,0-2.049,0-4.1,0-6.148a1.249,1.249,0,0,1,.116-.772,2.4,2.4,0,0,1,1.93.016" transform="translate(-0.001 -0.56)" fill="#a7e446"/>
    <path id="Trazado_162457" data-name="Trazado 162457" d="M0,99.65a.614.614,0,0,1,0,.745Z" transform="translate(0 -71.883)" fill="#79ceeb"/>
    <path id="Trazado_162458" data-name="Trazado 162458" d="M0,92.4c.2.186.071.424.1.636q-.05.079-.1,0Z" transform="translate(0 -66.651)" fill="#6dcae9"/>
    <path id="Trazado_162459" data-name="Trazado 162459" d="M0,94.68l.1,0c-.026.215.083.452-.1.641Z" transform="translate(0 -68.297)" fill="#54c0e5"/>
    <path id="Trazado_162460" data-name="Trazado 162460" d="M36.228,165.068a27.06,27.06,0,0,1-10.335-3.742,27.82,27.82,0,0,1-6.143-5.171,11.954,11.954,0,0,1-1.824-2.384c.637-.007,1.275-.018,1.911-.019q8.342-.007,16.683-.01c.009,1.676.021,3.352.025,5.029q.007,2.886,0,5.772c0,.232.085.53-.317.526" transform="translate(-12.931 -110.903)" fill="#f5cdaf"/>
    <path id="Trazado_162461" data-name="Trazado 162461" d="M105.725,148.1c0-4.092,0-8.184-.012-12.276a.7.7,0,0,1,.456-.729,21.45,21.45,0,0,1,7.663-2.122,20.832,20.832,0,0,1,11.676,2.359.177.177,0,0,1-.086.225,13.153,13.153,0,0,1-2.641,1.423c-.885.056-1.77.025-2.655.026q-5.337.007-10.674,0a2.143,2.143,0,0,0-.838.075c-.231.185-.181.445-.181.688q0,4.347,0,8.694c0,.823-.049.907-.832,1.2a3.718,3.718,0,0,1-1.875.438" transform="translate(-76.257 -95.858)" fill="#869495"/>
    <path id="Trazado_162462" data-name="Trazado 162462" d="M105.816,85.583c-.171-.159-.1-.366-.1-.553,0-3.917,0-7.833-.012-11.75a.767.767,0,0,1,.494-.815,21.522,21.522,0,0,1,7.619-2.1A20.889,20.889,0,0,1,125.5,72.722a.177.177,0,0,1-.085.225,13.171,13.171,0,0,1-2.64,1.423c-.885.056-1.77.025-2.655.026q-5.336.006-10.672,0a2.228,2.228,0,0,0-.838.072c-.235.183-.183.444-.183.687q0,4.324,0,8.648c0,.892-.042.935-.883,1.273a10.021,10.021,0,0,1-1.724.5" transform="translate(-76.248 -50.698)" fill="#869495"/>
    <path id="Trazado_162463" data-name="Trazado 162463" d="M114.247,7.963a28.336,28.336,0,0,1,6.261,3.742.116.116,0,0,1-.044.171,1.624,1.624,0,0,1-.783.084q-5.18.005-10.36,0c-.838,0-.88.041-.88.858q0,4.33,0,8.66c0,.822-.076.908-.823,1.219a10.447,10.447,0,0,1-1.678.483c-.276-.027-.209-.242-.209-.4q0-6.024-.008-12.048a.553.553,0,0,1,.347-.58,21.17,21.17,0,0,1,7.02-2.072l1.157-.116" transform="translate(-76.264 -5.744)" fill="#869495"/>
    <path id="Trazado_162464" data-name="Trazado 162464" d="M106.113,91.9a13.286,13.286,0,0,1,2.011-.8.59.59,0,0,0,.448-.655q-.018-4.652,0-9.3c0-.2-.1-.43.116-.593a1.167,1.167,0,0,1,.174.862q.008,4.172,0,8.344c0,.2.005.39.008.585a.374.374,0,0,0,.422.424c.159,0,.318.008.478.008h12.383c.177,0,.354,0,.531-.013a.341.341,0,0,0,.361-.368c.011-.195.013-.39.013-.584q0-4.2,0-8.4a1.164,1.164,0,0,1,.176-.862c.855-.495,1.743-.934,2.557-1.5.182.153.109.363.11.548q.006,5.876.008,11.752c0,.362-.02.582-.5.581q-9.651-.028-19.3-.02" transform="translate(-76.546 -57.015)" fill="#e8e8e8"/>
    <path id="Trazado_162465" data-name="Trazado 162465" d="M106.5,33.1a11.88,11.88,0,0,1,1.912-.766.6.6,0,0,0,.439-.665c-.012-3.1,0-6.2-.018-9.306,0-.507.132-.656.647-.653,3.864.019,7.728.008,11.592.006,0,.255-.211.248-.374.279a3.748,3.748,0,0,1-.69.025h-9.836c-.177,0-.355.009-.531,0-.366-.012-.5.171-.5.521q0,1.435,0,2.871c0,1.949,0,3.9,0,5.848,0,.661.035.7.688.7q6.407.006,12.813,0c.65,0,.69-.042.693-.7.007-2.162-.006-4.324.011-6.486,0-.286-.132-.66.286-.816a35.278,35.278,0,0,1,2.394,2.867.629.629,0,0,1,.166.321c0,1.806-.013,3.611,0,5.417,0,.4-.082.555-.525.554q-9.585-.025-19.17-.017" transform="translate(-76.825 -15.658)" fill="#e8e8e8"/>
    <path id="Trazado_162466" data-name="Trazado 162466" d="M79.381,45.683q0,7.805,0,15.61a2.266,2.266,0,0,1-1.937.029,1.079,1.079,0,0,1-.111-.668q0-7.134,0-14.268c0-.784.108-.9.881-.9.395,0,.821-.114,1.168.2" transform="translate(-55.782 -32.798)" fill="#a7e446"/>
    <path id="Trazado_162467" data-name="Trazado 162467" d="M167.121,143.148c.857-.487,1.739-.93,2.552-1.493.181.152.108.361.109.546.008,1.023,0,2.047.006,3.071a29.982,29.982,0,0,1-2.556,3.083.133.133,0,0,1-.177-.059,1.283,1.283,0,0,1-.113-.673q-.007-1.86,0-3.72a1.016,1.016,0,0,1,.18-.755" transform="translate(-120.422 -102.184)" fill="#ddddde"/>
    <path id="Trazado_162468" data-name="Trazado 162468" d="M105.755,158.28a15.683,15.683,0,0,0,2.343-.809c.3-.1.206-.378.206-.594,0-3.092,0-6.184.007-9.276,0-.2-.085-.428.106-.6a1.244,1.244,0,0,1,.184.912c0,2.794,0,5.588,0,8.382,0,.83,0,.833.817.835,2,0,4-.008,5.994.009.269,0,.62-.111.757.285-.766.264-1.434.755-2.226.959q-3.793,0-7.587-.006c-.2,0-.428.079-.606-.1" transform="translate(-76.287 -106.041)" fill="#e8e8e8"/>
    <path id="Trazado_162469" data-name="Trazado 162469" d="M58.917,25.511c-.478,0-.956.023-1.432-.006-.38-.023-.478.123-.475.486.015,1.874.005,3.749.007,5.624q.006,4.748.016,9.5a3.171,3.171,0,0,1-.005,2.265q-.006,3.647-.014,7.293c0,.187.064.389-.071.561a.711.711,0,0,1-.211-.579c-.011-.248-.006-.5-.006-.745q0-15.5,0-31.009c0-1.082,0-1.083-1.061-1.083-1.95,0-3.9,0-5.851,0-.3,0-.611.051-.852-.2.138-.171.329-.093.494-.093,2.333-.006,4.666.006,7-.013.431,0,.581.106.573.558-.026,1.572,0,3.146-.017,4.718,0,.364.1.506.475.483.475-.028.954-.005,1.431,0q0,1.124,0,2.248" transform="translate(-35.318 -12.625)" fill="#646b79"/>
    <path id="Trazado_162470" data-name="Trazado 162470" d="M77.91,104.5q0-1.132.005-2.265l1.884.009q0,1.124,0,2.249l-1.888.007" transform="translate(-56.201 -73.747)" fill="#646b79"/>
    <path id="Trazado_162471" data-name="Trazado 162471" d="M48.9,17.846c2.515,0,5.03,0,7.545-.021.441,0,.425.232.424.536q-.007,4.065,0,8.13,0,12.141,0,24.283c0,.23.009.46.014.69-.936.095-1.875.032-2.812.039-1.577.012-3.155,0-4.732.009-.33,0-.461-.066-.46-.435q.016-16.563.011-33.127a.847.847,0,0,1,.013-.106" transform="translate(-35.257 -12.858)" fill="#fc4b52"/>
    <path id="Trazado_162472" data-name="Trazado 162472" d="M129.952,23.729c-.181.176-.1.4-.1.605-.006,2.338-.013,4.677.005,7.015,0,.427-.1.58-.555.579q-6.749-.025-13.5,0c-.42,0-.543-.118-.541-.54q.025-4.623,0-9.247c0-.464.164-.552.584-.551q5.474.021,10.948,0c.2,0,.429.087.6-.108a.364.364,0,0,0,0-.094,3.919,3.919,0,0,1,.97.856.842.842,0,0,1-.648.173c-.531.011-1.063,0-1.594.006-.613.01-.653.046-.656.677-.007,1.505,0,3.01,0,4.515,0,.921-.008,1.842,0,2.762.007.554.054.6.617.607.637.011,1.275.007,1.912,0,.777-.006.817-.04.819-.8.006-2.2,0-4.392.005-6.587a1.19,1.19,0,0,1,.151-.816,3.774,3.774,0,0,1,.988.948" transform="translate(-83.142 -15.431)" fill="#fefefb"/>
    <path id="Trazado_162473" data-name="Trazado 162473" d="M123.031,157.423c-.159-.169-.367-.1-.553-.1-2.213,0-4.426-.013-6.639.006-.427,0-.581-.1-.578-.556.02-3.257.013-6.515.014-9.772l14.568,0q0,2.6.008,5.207a3.7,3.7,0,0,1-.573.617c-.242.242-.363.118-.413-.154a3.2,3.2,0,0,1-.02-.58c0-1.162,0-2.324,0-3.487,0-.224.047-.467-.189-.62a21.21,21.21,0,0,0-2.807-.043c-.269,0-.368.163-.379.41-.008.177-.01.353-.01.53q0,3.13,0,6.26a1.464,1.464,0,0,1-.173.87,5.5,5.5,0,0,1-1.864,1.15,2.033,2.033,0,0,0-.391.26" transform="translate(-83.144 -106.04)" fill="#fefefb"/>
    <path id="Trazado_162474" data-name="Trazado 162474" d="M154.876,25c0,2.6-.013,5.2,0,7.8,0,.43-.1.591-.557.573-.883-.035-1.769-.025-2.653,0-.356.009-.491-.075-.489-.464q.025-3.981,0-7.962c0-.391.137-.468.49-.463.866.015,1.733-.009,2.6-.018l.608.534" transform="translate(-109.055 -17.647)" fill="#c93c41"/>
    <path id="Trazado_162475" data-name="Trazado 162475" d="M151.2,157.916c0-2.613,0-5.226-.014-7.839,0-.354.109-.444.449-.438,1.059.02,2.118.007,3.178.007a22.215,22.215,0,0,1,.042,2.417c.016,1-.007,2,.016,3a24.547,24.547,0,0,1-3.671,2.857" transform="translate(-109.058 -107.943)" fill="#4485c4"/>
    <path id="Trazado_162476" data-name="Trazado 162476" d="M164.258,155.078q-.014-2.363-.029-4.726c0-.229-.02-.458-.03-.687.179.177.1.4.1.606.007,1.5,0,3,0,4.547.386-.164.536-.527.849-.685h.1a3.465,3.465,0,0,1-1,.946" transform="translate(-118.447 -107.961)" fill="#f2f3f3"/>
    <path id="Trazado_162477" data-name="Trazado 162477" d="M129.846,84.425c0,3.313,0,6.626.018,9.939,0,.38-.129.478-.491.478q-6.8-.015-13.606,0c-.305,0-.5-.03-.494-.42.016-3.331.016-6.661.021-9.992l14.553,0" transform="translate(-83.152 -60.901)" fill="#fefefb"/>
    <path id="Trazado_162478" data-name="Trazado 162478" d="M56.325,51.608a2.645,2.645,0,1,1-.036-5.29A2.646,2.646,0,0,1,59,49.039a2.589,2.589,0,0,1-2.679,2.569" transform="translate(-38.693 -33.412)" fill="#fefefe"/>
    <path id="Trazado_162479" data-name="Trazado 162479" d="M55.7,26.309c0-.726.019-1.453-.008-2.179-.014-.381.188-.374.46-.38s.43.04.414.371c-.025.495.006.992-.011,1.488-.01.271.067.379.355.37q.9-.028,1.807,0c.294.009.411-.072.4-.383-.024-.495.013-.993-.013-1.488-.018-.349.17-.363.427-.354.235.008.451-.033.447.335q-.023,2.205,0,4.411c0,.359-.186.349-.432.342-.229-.006-.466.05-.444-.328.027-.441-.017-.887.013-1.328.024-.354-.133-.41-.436-.4-.566.018-1.134.021-1.7,0-.317-.012-.446.076-.424.412.027.424-.013.851.013,1.275.02.322-.117.395-.4.372-.243-.019-.491.055-.473-.357.032-.725.009-1.452.009-2.179" transform="translate(-40.172 -17.133)" fill="#fefefe"/>
    <path id="Trazado_162480" data-name="Trazado 162480" d="M56.769,94.8c0-.69.011-1.381-.005-2.071-.007-.3.05-.448.4-.44.938.022,1.877.021,2.815,0,.337-.007.361.157.366.421s-.076.377-.36.369c-.637-.017-1.275.014-1.911-.013-.354-.015-.447.1-.444.45.007.915-.01.915.928.915.39,0,.78.016,1.168,0,.3-.015.354.121.352.381s-.035.4-.342.387c-.566-.02-1.133.007-1.7-.011-.281-.008-.4.05-.407.371-.019,1.013-.035,1.013.986,1.013.5,0,.992.018,1.487-.006.328-.016.32.167.322.4s-.013.4-.329.4c-.991-.016-1.983-.014-2.974,0-.29,0-.359-.116-.354-.379.012-.726,0-1.452,0-2.178" transform="translate(-40.947 -66.572)" fill="#fefefe"/>
    <path id="Trazado_162481" data-name="Trazado 162481" d="M57.729,72.285c0-.584-.011-1.169,0-1.753.008-.273-.076-.388-.36-.367-.264.02-.532-.013-.8.008-.312.025-.439-.067-.433-.408.005-.317.126-.384.411-.381,1.062.013,2.125.017,3.188,0,.33-.006.371.144.372.416s-.067.409-.356.369a.283.283,0,0,0-.053,0c-1.114.037-1.114.037-1.114,1.144,0,.939-.017,1.878.008,2.816.01.378-.184.378-.458.38s-.432-.026-.419-.364c.024-.619.007-1.239.007-1.859" transform="translate(-40.5 -50.05)" fill="#fefefe"/>
    <path id="Trazado_162482" data-name="Trazado 162482" d="M57.626,117.068c0-.726.022-1.453-.009-2.178-.016-.374.165-.38.445-.386.3-.006.443.043.435.4-.024,1.062.02,2.126-.02,3.187-.02.531.094.773.678.7.436-.053.885.006,1.327-.016.307-.016.351.133.339.384-.011.233.038.456-.334.446q-1.248-.033-2.5,0c-.33.009-.375-.137-.37-.412.013-.708,0-1.417,0-2.125" transform="translate(-41.562 -82.599)" fill="#fefdfd"/>
    <path id="Trazado_162483" data-name="Trazado 162483" d="M134.788,28.95c0-1.312.012-2.623-.008-3.935-.005-.365.1-.5.475-.488.921.023,1.843.02,2.765,0,.345-.007.46.1.459.454q-.018,3.988,0,7.976c0,.349-.109.463-.457.456q-1.409-.029-2.818,0c-.325.006-.426-.1-.423-.423.016-1.347.007-2.694.007-4.041" transform="translate(-97.225 -17.693)" fill="#c93c41"/>
    <path id="Trazado_162484" data-name="Trazado 162484" d="M118.376,28.975c0-1.329.012-2.658-.008-3.987-.006-.358.115-.459.455-.453q1.409.025,2.817,0c.326-.006.428.108.427.431q-.015,4.013,0,8.027c0,.327-.11.432-.431.426-.939-.016-1.878-.017-2.817,0-.347.006-.456-.106-.451-.458.019-1.329.008-2.658.008-3.987" transform="translate(-85.385 -17.698)" fill="#c93c41"/>
    <path id="Trazado_162485" data-name="Trazado 162485" d="M122.065,154.06c0,1.329-.01,2.658.007,3.987,0,.349-.1.457-.452.449-.939-.023-1.878-.018-2.817,0-.312.006-.432-.072-.431-.41q.019-4.013,0-8.027c0-.331.1-.424.422-.417.956.019,1.914.021,2.87,0,.346-.008.41.128.407.435-.013,1.329-.006,2.658-.006,3.987" transform="translate(-85.389 -107.943)" fill="#c93c41"/>
    <path id="Trazado_162486" data-name="Trazado 162486" d="M134.788,154.057c0-1.311.011-2.623-.007-3.934,0-.348.057-.5.455-.492.938.03,1.878.021,2.817,0,.32-.006.427.086.426.416q-.018,4.013,0,8.027c0,.336-.116.417-.431.411-.939-.018-1.879-.021-2.817,0-.347.008-.456-.094-.451-.446.019-1.329.008-2.658.008-3.987" transform="translate(-97.225 -107.937)" fill="#c93c41"/>
    <path id="Trazado_162487" data-name="Trazado 162487" d="M151.188,91.569c0-1.327.014-2.655-.009-3.981-.006-.381.119-.479.483-.47.92.023,1.84.021,2.76,0,.353-.008.454.116.453.458q-.016,3.982,0,7.963c0,.331-.077.478-.442.47q-1.406-.032-2.813,0c-.359.008-.444-.12-.439-.459.018-1.327.007-2.654.007-3.981" transform="translate(-109.054 -62.843)" fill="#4485c4"/>
    <path id="Trazado_162488" data-name="Trazado 162488" d="M118.368,91.564c0-1.309.019-2.619-.011-3.928-.01-.435.133-.537.54-.524.9.028,1.8.022,2.707,0,.347-.008.458.106.456.454q-.018,3.981,0,7.962c0,.329-.07.481-.437.473-.937-.021-1.876-.018-2.813,0-.347.006-.454-.109-.449-.458.019-1.327.008-2.654.008-3.981" transform="translate(-85.377 -62.839)" fill="#c93c41"/>
    <path id="Trazado_162489" data-name="Trazado 162489" d="M134.787,91.561c0-1.33.012-2.66-.008-3.989-.005-.354.1-.458.45-.451.939.02,1.879.018,2.819,0,.325-.006.43.105.429.429q-.015,4.016,0,8.031c0,.327-.109.433-.43.427-.94-.016-1.879-.018-2.819,0-.35.007-.453-.113-.448-.46.019-1.329.008-2.659.008-3.989" transform="translate(-97.224 -62.845)" fill="#4485c4"/>
    <path id="Trazado_162490" data-name="Trazado 162490" d="M58.789,49.234a1.845,1.845,0,0,1,0,3.688,1.829,1.829,0,0,1-1.794-1.907,1.786,1.786,0,0,1,1.8-1.78" transform="translate(-41.112 -35.515)" fill="#fe553e"/>
    <path id="Trazado_162491" data-name="Trazado 162491" d="M141.171,53.46a13.366,13.366,0,0,1,1.63.46,4.244,4.244,0,0,1,1.005.534,1.082,1.082,0,0,1-1.047,1.654c-1.9.011-3.8-.033-5.7.012a6.538,6.538,0,0,0-5.873,3.521,1.64,1.64,0,0,1-1,.832,2.212,2.212,0,0,0-1.62,2.109c-.024.833-.025,1.667.009,2.5-.637,1.487-.318,3.057-.4,4.592-.011.225.053.465-.112.664-.139.046-.139-.072-.161-.148a1.518,1.518,0,0,1,.067-.748,1.106,1.106,0,0,1-1.3.438,1.877,1.877,0,0,1-.768-1.594q-.006-4.125,0-8.249a2.3,2.3,0,0,1,2.065-2.328.358.358,0,0,0,.335-.237,6.678,6.678,0,0,1,5.219-3.951c.032-.005.059-.042.089-.064Z" transform="translate(-90.823 -38.564)" fill="#4d4e59"/>
    <path id="Trazado_162492" data-name="Trazado 162492" d="M152.908,94.473c-.148.135-.084.313-.089.472a8.219,8.219,0,0,1-4.211,7.085,5.2,5.2,0,0,1-.962.475.827.827,0,0,1-.414.266,8.628,8.628,0,0,1-5.222.133.437.437,0,0,1-.314-.2c.048-.159.2-.14.314-.175a1.255,1.255,0,0,0,.966-.992,1.213,1.213,0,0,0-.6-1.346,8.3,8.3,0,0,1-3.4-4.163,7.767,7.767,0,0,1-.539-2.821c.006-1.078,0-2.157,0-3.236a3.071,3.071,0,0,0-.093-.8.9.9,0,0,0-1.079-.69c-.122.021-.248.09-.363-.022a1.552,1.552,0,0,1,.743-.845,4.082,4.082,0,0,1,3.331-.689,9.805,9.805,0,0,1,2.281.813,19.3,19.3,0,0,0,3.18,1.369,8.967,8.967,0,0,0,5.163.021c.1-.028.2-.059.3-.079a.775.775,0,0,1,1,.762c.03.628.012,1.259.008,1.888-.006.924.024,1.848-.013,2.771" transform="translate(-98.763 -62.628)" fill="#fedeb9"/>
    <path id="Trazado_162493" data-name="Trazado 162493" d="M151.513,72.984c-.128-.111-.082-.262-.082-.4,0-1.374,0-2.748,0-4.122,0-.678-.371-.969-1.023-.765a9.581,9.581,0,0,1-7.279-.71,14.945,14.945,0,0,0-3.475-1.43,3.973,3.973,0,0,0-4.126,1.422,1.117,1.117,0,0,1-.47.618,2.288,2.288,0,0,1-.054-.947,8.451,8.451,0,0,1,.079-2.029,2.239,2.239,0,0,1,1.662-1.7,1.3,1.3,0,0,0,.859-.7,6.61,6.61,0,0,1,4.388-3.441,6.448,6.448,0,0,1,1.627-.214c1.874.012,3.747,0,5.621,0,.913,0,1.31-.5,1.094-1.378-.015-.061-.049-.121.019-.172a6.63,6.63,0,0,1,3.224,4.814,7.735,7.735,0,0,1,.077,1.3c0,2.413-.041,4.827.014,7.238a2.351,2.351,0,0,1-2.154,2.6" transform="translate(-97.369 -41.14)" fill="#42434d"/>
    <path id="Trazado_162494" data-name="Trazado 162494" d="M177.909,171.939H169.5a.849.849,0,0,1-.176-.5c-.36-2.65-.747-5.3-1.122-7.944a1.06,1.06,0,0,1-.012-.381.291.291,0,0,1,.055-.111c.191-.072.286.077.379.187.546.645,1.121,1.266,1.661,1.916.173.209.344.446.66.379.338-.072.447-.353.508-.655.081-.4.181-.8.259-1.2.03-.152.058-.306.22-.383a4.353,4.353,0,0,1,2.266.484,6.257,6.257,0,0,1,3.76,4.922,18.916,18.916,0,0,1,.045,3.076.32.32,0,0,1-.09.208" transform="translate(-121.312 -117.573)" fill="#d5f3fb"/>
    <path id="Trazado_162495" data-name="Trazado 162495" d="M132.647,171.932l-8.409,0a.638.638,0,0,1-.106-.475c0-.679-.013-1.359,0-2.038a6.2,6.2,0,0,1,2.27-4.735,6.432,6.432,0,0,1,3.255-1.461,1.018,1.018,0,0,1,.568.023c.157.1.171.275.211.436.108.435.173.881.309,1.309.149.467.446.573.886.332.595-.663,1.16-1.351,1.728-2.037a1.149,1.149,0,0,1,.27-.268c.1-.062.191-.075.238.066a6.33,6.33,0,0,1-.135,1.333c-.306,2.322-.624,4.643-.926,6.966a.993.993,0,0,1-.16.545" transform="translate(-89.54 -117.565)" fill="#d5f3fb"/>
    <path id="Trazado_162496" data-name="Trazado 162496" d="M133.851,93.017a2.612,2.612,0,0,1,.47-.618c.249-.009.455-.2.741-.106.656.218.839.446.876,1.348.046,1.114.008,2.232.012,3.348a8.228,8.228,0,0,0,1.978,5.386,8.626,8.626,0,0,0,1.93,1.675,1.275,1.275,0,0,1,.607,1.554,1.349,1.349,0,0,1-1.356.985.369.369,0,0,1-.533-.154,6.6,6.6,0,0,1-2.107-1.234,8.539,8.539,0,0,1-3.055-5.463c-.064-.441-.063-.891-.092-1.336a.045.045,0,0,1,.005-.067,12.619,12.619,0,0,0,.065-1.786,15.425,15.425,0,0,1,.086-2.451,8.194,8.194,0,0,1,.374-1.08" transform="translate(-96.164 -66.558)" fill="#feead1"/>
    <path id="Trazado_162497" data-name="Trazado 162497" d="M124.879,158.945a6.085,6.085,0,0,0-3.635,1.353,6.314,6.314,0,0,0-2.357,4.126,8.37,8.37,0,0,0-.021,1.307c0,.616,0,1.232,0,1.848-.5,0-1,.006-1.5,0a.6.6,0,0,1-.654-.645c-.007-1.349-.072-2.7.018-4.046a5.762,5.762,0,0,1,1.406-3.341,6.492,6.492,0,0,1,3.487-2.173,2.883,2.883,0,0,1,.946-.125c.249-.105.522.032.771-.077a4.642,4.642,0,0,0,1.079-.232c.144-.015.167.1.19.194.127.506.237,1.017.342,1.528a.286.286,0,0,1-.069.284" transform="translate(-84.168 -113.209)" fill="#e7f7fb"/>
    <path id="Trazado_162498" data-name="Trazado 162498" d="M187.424,167.571c0-.8-.013-1.591,0-2.387a6.285,6.285,0,0,0-4.656-6.053,3.892,3.892,0,0,0-1.359-.192c-.018-.018-.046-.038-.046-.059a5.934,5.934,0,0,1,.406-1.918c.014-.039.064-.031.1-.028a12.242,12.242,0,0,0,2.527.382,6.367,6.367,0,0,1,5.106,5.31,39.5,39.5,0,0,1,.069,4.3.663.663,0,0,1-.686.643c-.487.01-.975,0-1.463,0" transform="translate(-130.827 -113.205)" fill="#bceefb"/>
    <path id="Trazado_162499" data-name="Trazado 162499" d="M160.914,163.045q.617,4.353,1.234,8.706c.011.076.009.153.014.23l-4.08-.008c-.142-.22-.048-.455-.018-.674.237-1.755.469-3.51.709-5.265.071-.521.159-1.04.2-1.565a1.064,1.064,0,0,1,.109-.445c.109-.168.273-.1.418-.087a.748.748,0,0,0,.7-.3c.2-.236.357-.538.711-.593" transform="translate(-113.979 -117.614)" fill="#a7e446"/>
    <path id="Trazado_162500" data-name="Trazado 162500" d="M155.126,152.321c-.205.206-.422.4-.613.62a.792.792,0,0,1-1.126.278c-.4-.241-.617-.667-.964-.962-.567-.665-1.166-1.3-1.74-1.96a4.5,4.5,0,0,0-.485-.527c-.1-.11-.222-.21-.217-.381a5.108,5.108,0,0,0,.54-1.156c.167-.111.324-.02.475.033a8.345,8.345,0,0,0,5.678,0c.151-.053.308-.144.475-.034a4.961,4.961,0,0,0,.543,1.157c.04.1-.021.175-.082.239-.836.881-1.612,1.816-2.449,2.7Z" transform="translate(-108.191 -106.89)" fill="#fed5a5"/>
    <path id="Trazado_162501" data-name="Trazado 162501" d="M168.574,155.452a2.71,2.71,0,0,1,.688-.887c.6-.7,1.227-1.366,1.843-2.047a4.414,4.414,0,0,0,1.54,1.233,12.833,12.833,0,0,0-.461,2c-.126.545-.265,1.087-.372,1.635a.758.758,0,0,1-.56.661c-.34.087-.542-.162-.733-.391-.629-.753-1.259-1.5-1.944-2.208" transform="translate(-121.602 -110.02)" fill="#e7f7fb"/>
    <path id="Trazado_162502" data-name="Trazado 162502" d="M158.548,144.575a12.8,12.8,0,0,1-2.11.552,8.5,8.5,0,0,1-3.75-.309c-.254-.087-.512-.162-.768-.242a9.765,9.765,0,0,0,.081-1.463,1.455,1.455,0,0,0,.534.154,6.248,6.248,0,0,0,2.151.456,8.648,8.648,0,0,0,3.786-.612,9.088,9.088,0,0,0,.076,1.464" transform="translate(-109.589 -103.234)" fill="#f6c287"/>
    <path id="Trazado_162503" data-name="Trazado 162503" d="M155.873,162.778a3.906,3.906,0,0,1,.921.972c-.185,1.39-.367,2.779-.556,4.168-.175,1.288-.357,2.574-.537,3.861l-1,.008c.111-.913.216-1.828.335-2.74.191-1.471.393-2.94.587-4.411.078-.595.147-1.191.22-1.787a.047.047,0,0,1,.026-.072" transform="translate(-111.598 -117.421)" fill="#85b638"/>
    <path id="Trazado_162504" data-name="Trazado 162504" d="M145.988,152.515l.758.852a.585.585,0,0,1-.071.178,3.371,3.371,0,0,0-.457,2.9c.068.287.118.579.192.864a.711.711,0,0,1-.037.522c-.5.346-.939.193-1.078-.382s-.259-1.133-.387-1.7a12.711,12.711,0,0,0-.463-2.005,5.056,5.056,0,0,0,1.543-1.234" transform="translate(-104.197 -110.018)" fill="#f0f9fb"/>
    <path id="Trazado_162505" data-name="Trazado 162505" d="M129.982,111.151c0,.023,0,.045-.005.067a2.126,2.126,0,0,1-1.305-.525,1.307,1.307,0,0,0,1.31-.659Z" transform="translate(-92.819 -79.374)" fill="#494951"/>
    <path id="Trazado_162506" data-name="Trazado 162506" d="M138.577,157.754c-.244.157-.515.042-.771.077.244-.157.515-.043.771-.077" transform="translate(-99.408 -113.791)" fill="#edf4f1"/>
    <path id="Trazado_162507" data-name="Trazado 162507" d="M150.341,160.042c-.04-.616-.279-1.194-.35-1.8a2.934,2.934,0,0,1,.723-2.668q.774.861,1.55,1.722a.538.538,0,0,1,.176.285.287.287,0,0,1-.026.072,9.578,9.578,0,0,0-1.036,1.169c-.364.39-.693.812-1.037,1.22" transform="translate(-108.165 -112.225)" fill="#e7f7fb"/>
  </g>
</svg>
