<svg id="Grupo_116859" data-name="Grupo 116859" xmlns="http://www.w3.org/2000/svg" xmlns:xlink="http://www.w3.org/1999/xlink" width="84.217" height="77.048" viewBox="0 0 84.217 77.048">
  <defs>
    <clipPath id="clip-path">
      <rect id="Rectángulo_40836" data-name="Rectángulo 40836" width="84.217" height="77.048" fill="none"/>
    </clipPath>
  </defs>
  <g id="Grupo_116859-2" data-name="Grupo 116859" clip-path="url(#clip-path)">
    <path id="Trazado_161938" data-name="Trazado 161938" d="M65.606,49.329c.816-3,1.622-5.825,2.344-8.67.559-2.2,1.763-3.739,4.075-4.15a15.617,15.617,0,0,1,2.624-.074c1.666-.008,3.333-.013,5,0a4.482,4.482,0,0,1,.887,8.9,26.13,26.13,0,0,1-2.749.525c-.689.072-.912.414-1.058,1.017-.733,3.026-1.5,6.044-2.256,9.065a9.011,9.011,0,0,1-15.986,3.509c-.054-.066-.118-.125-.282-.3a18.216,18.216,0,0,1-1.93,4.17A4.461,4.461,0,0,0,56.2,65.65c.031.383.488.184.742.185q7.322.019,14.645.009c2.952,0,5.9,0,8.857,0A3.516,3.516,0,0,1,84.231,69.6c.008,1.838,0,3.676,0,5.514,0,1.495-.435,1.935-1.916,1.935q-11.532,0-23.064,0H2.165c-1.781,0-2.13-.353-2.13-2.157s-.011-3.618,0-5.426a3.493,3.493,0,0,1,3.657-3.619c1.315-.01,2.63,0,3.954,0,.133-.3-.071-.507-.157-.724q-2.178-5.47-4.375-10.934c-.612-1.53-.047-2.343,1.621-2.347,1.052,0,2.106-.027,3.157.011.48.017.6-.15.57-.592-.034-.552.026-1.111-.018-1.661-.039-.484.154-.6.594-.564.719.067,1.672-.306,2.094.148.356.382.16,1.326.113,2.015-.038.574.177.661.69.655,2.368-.027,4.736-.034,7.1,0,.573.009.666-.179.655-.69a14.017,14.017,0,0,1,.208-3.745,8.594,8.594,0,0,1,3.647-5.263c.422-.281.488-.463.279-.944A14.221,14.221,0,0,1,25.193,26.78c.146-.217.3-.429.449-.646a1.512,1.512,0,0,0,.135-1.872,3.759,3.759,0,0,1,.486-4.476,1.811,1.811,0,0,0,.444-1.251,24.911,24.911,0,0,1,.661-7.63,15.428,15.428,0,0,1,30.049,2.552,71.1,71.1,0,0,1,.134,8.568,8.111,8.111,0,0,0,1.491,4.738,14.248,14.248,0,0,1,1.324,14.669c-.131.3-.422.559.071.863a11.264,11.264,0,0,1,4.251,5.2c.252.554.544,1.09.918,1.832" transform="translate(-0.023 0)"/>
    <path id="Trazado_161939" data-name="Trazado 161939" d="M281.935,15.38q0-6.735,0-13.47c0-1.375.461-1.839,1.829-1.84q7.318,0,14.636,0c1.3,0,1.776.484,1.776,1.807q0,13.6,0,27.2c0,1.318-.478,1.793-1.784,1.8-.847,0-1.695-.018-2.541.006a3.777,3.777,0,0,1-2.775-.743,2.311,2.311,0,0,0-2.986.214,2.207,2.207,0,0,1-1.519.531c-1.606-.022-3.213,0-4.82-.008-1.359,0-1.815-.469-1.816-1.855q0-6.823,0-13.645" transform="translate(-215.969 -0.052)"/>
    <path id="Trazado_161940" data-name="Trazado 161940" d="M19.656,88.154a10.011,10.011,0,0,1-3.536,7.268c-1.712,1.5-3.482,2.932-5.24,4.377a1.414,1.414,0,0,1-2.118-.028c-1.733-1.43-3.5-2.82-5.171-4.322A9.808,9.808,0,0,1,.3,85.436a9.367,9.367,0,0,1,7.3-7.325c6.1-1.545,12.051,3.225,12.054,10.042" transform="translate(0 -59.612)"/>
    <path id="Trazado_161941" data-name="Trazado 161941" d="M36.034,186.967c0-1.331,0-1.331,1.385-1.331,1.421,0,1.421,0,1.421,1.382,0,1.419,0,1.419-1.385,1.419-1.421,0-1.421,0-1.421-1.47" transform="translate(-27.603 -142.201)"/>
    <path id="Trazado_161942" data-name="Trazado 161942" d="M151.14,27.823c0,1.293.031,2.286-.006,3.276a10.494,10.494,0,0,0,2.031,6.546,11.453,11.453,0,0,1,1.128,11.623c-.262.622-.506.929-1.33.772-2.28-.434-4.6-.139-6.909-.193-1.5-.035-1.835-.445-1.957-1.923a3.611,3.611,0,0,1,1.63-3.611,10.171,10.171,0,0,0,3.992-8.21c.064-2.332.022-4.667.014-7,0-1.147-.5-1.636-1.653-1.673a14.156,14.156,0,0,1-8.772-3.265c-1.285-1.057-2.557-2.13-3.844-3.185-1.125-.923-2.065-.693-2.583.662a11.721,11.721,0,0,1-4.181,5.482c-.82.588-1.751.219-2.63.286-.178.014-.181-.186-.188-.331-.18-3.568.232-6.976,2.477-9.957a12.625,12.625,0,0,1,22.647,5.761c.251,1.745.055,3.5.134,4.941" transform="translate(-96.4 -9.208)" fill="#f2ae3e"/>
    <path id="Trazado_161943" data-name="Trazado 161943" d="M12.062,297.572c-.009-1.078-.01-2.157-.03-3.235-.012-.655.281-.981.946-.96.2.007.409,0,.614,0H89.063c1.543,0,1.559.014,1.555,1.572,0,.874-.017,1.749-.026,2.623a1.4,1.4,0,0,1-1.068.288c-.789.015-1.577.006-2.366.006q-36.664,0-73.329-.007c-.6,0-1.237.158-1.769-.287" transform="translate(-9.216 -224.733)" fill="#8e563b"/>
    <path id="Trazado_161944" data-name="Trazado 161944" d="M103.833,185.572c.76,0,1.521.027,2.279-.009.566-.026.767.078.613.719-.347,1.443-.587,2.911-.9,4.363a1.651,1.651,0,0,0,.632,1.772c2.658,2.192,5.3,4.4,7.95,6.6a1.486,1.486,0,0,0,2.322.02c2.629-2.181,5.251-4.371,7.888-6.542a1.793,1.793,0,0,0,.682-2c-.347-1.443-.6-2.91-.89-4.365-.061-.3-.135-.586.35-.565a33.385,33.385,0,0,1,4.9.149,7.5,7.5,0,0,1,5.487,4.2.643.643,0,0,1-.133.9c-1.32,1.281-2.617,2.586-3.91,3.894-.236.239-.407.319-.737.12a1.3,1.3,0,0,0-1.685.207,1.333,1.333,0,0,0-.261,1.614,6.121,6.121,0,0,1-.628,6.457,5.745,5.745,0,0,0-.975,4.046c.053.621-.091.892-.792.841a24.807,24.807,0,0,0-2.8-.006c-.51.021-.65-.156-.634-.645a7.2,7.2,0,0,0-.076-1.917,3.827,3.827,0,0,0-3.782-3.044c-3.332-.02-6.665-.029-10,.012a.914.914,0,0,1-1.058-.813c-.58-2.045-1.207-4.076-1.821-6.111-.381-1.261-.7-1.5-1.989-1.5-2.368,0-4.735-.021-7.1.013-.62.009-.905-.1-.84-.8a22.1,22.1,0,0,1,.163-2.961,5.969,5.969,0,0,1,5.644-4.653c.7-.018,1.4,0,2.1,0Z" transform="translate(-73.471 -142.137)" fill="#a7e446"/>
    <path id="Trazado_161945" data-name="Trazado 161945" d="M53.8,244.674H50.99c-6.284,0-12.568-.011-18.852.017a.945.945,0,0,1-1.053-.733c-1.359-3.463-2.76-6.91-4.2-10.489h.82c7.307,0,14.614.01,21.921-.017a.913.913,0,0,1,1.06.809c1,3.434,2.045,6.853,3.117,10.412" transform="translate(-20.596 -178.83)" fill="#cacaca"/>
    <path id="Trazado_161946" data-name="Trazado 161946" d="M148.729,63.794c1,.821,1.906,1.6,2.841,2.339a16.628,16.628,0,0,0,8.585,3.613c.3.035.658,0,.639.5a54.337,54.337,0,0,1-.166,6.721,8.4,8.4,0,0,1-16.654-1.035c-.07-2.068-.018-4.139-.026-6.209a.7.7,0,0,1,.263-.685,14.561,14.561,0,0,0,4.519-5.247" transform="translate(-110.259 -48.868)" fill="#fcc8a5"/>
    <path id="Trazado_161947" data-name="Trazado 161947" d="M256.655,179.309c.514,1.02.947,1.845,1.346,2.686a1.494,1.494,0,0,0,1.532,1.067c.776-.073,1.122-.6,1.317-1.315,1.085-4.018,2.2-8.029,3.293-12.043.446-1.631.963-2.031,2.662-2.031,2.017,0,4.034,0,6.051,0,1.176,0,1.9.574,1.986,1.536.08.911-.506,1.586-1.617,1.825-1.283.276-2.564.578-3.859.781a1.787,1.787,0,0,0-1.609,1.564c-.825,3.424-1.707,6.834-2.556,10.252a6.038,6.038,0,0,1-5.056,4.932,5.974,5.974,0,0,1-6.267-2.754c-.494-.707-1.452-1.4-1.333-2.139.109-.681,1.086-1.221,1.674-1.828.79-.816,1.575-1.638,2.436-2.535" transform="translate(-193.447 -128.44)" fill="#fcc8a5"/>
    <path id="Trazado_161948" data-name="Trazado 161948" d="M12.085,311.311h78.53c.008.087.021.174.023.261.026,1.145.026,1.146-1.1,1.146H13.421c-1.405,0-1.405,0-1.336-1.407" transform="translate(-9.24 -238.472)" fill="#744630"/>
    <path id="Trazado_161949" data-name="Trazado 161949" d="M113.8,127.726a29.567,29.567,0,0,0-4.06.134c-.522.1-.554-.363-.675-.641a11.548,11.548,0,0,1,.965-11.546c.333-.512.7-1.009.983-1.545a.757.757,0,0,1,.835-.429c1.62.063,1.622.046,1.864,1.618a10.91,10.91,0,0,0,4.9,7.717,1.1,1.1,0,0,1,.591,1.121c-.05.7.007,1.4-.019,2.1a1.386,1.386,0,0,1-1.491,1.47c-1.225.025-2.451.006-3.9.006" transform="translate(-82.699 -87.094)" fill="#f2ae3e"/>
    <path id="Trazado_161950" data-name="Trazado 161950" d="M161.725,160.212a11.184,11.184,0,0,0,5.166.086c.361-.083.471-.015.453.344-.018.377,0,.756,0,1.135a4.045,4.045,0,0,0,1.719,3.536c.416.3.417.524.2.915-.492.886-.745,2.1-1.487,2.595-.667.448-1.856.129-2.815.136-1.02.008-2.043-.036-3.061.017a.908.908,0,0,1-1.043-.673,3.706,3.706,0,0,0-.349-.7c-.672-1.084-1.235-2.054.261-3.063a3.023,3.023,0,0,0,.958-2.534c.01-.579,0-1.158,0-1.793" transform="translate(-122.424 -122.726)" fill="#f6c3a1"/>
    <path id="Trazado_161951" data-name="Trazado 161951" d="M150.9,269.443c3.368,0,6.662-.01,9.955.008a1.018,1.018,0,0,1,1.057,1.055c.172,1.736.175,1.735-1.6,1.735-2.627,0-5.255-.013-7.882.011-.515,0-.789-.106-.9-.655-.147-.705-.4-1.388-.629-2.154" transform="translate(-115.593 -206.397)" fill="#fcc8a5"/>
    <path id="Trazado_161952" data-name="Trazado 161952" d="M175.642,209.834l-1.908,3.792-1.907-3.792Z" transform="translate(-131.623 -160.738)" fill="#fc4b52"/>
    <path id="Trazado_161953" data-name="Trazado 161953" d="M122.856,91.15c-.2.559.492,1.557-.9,1.45-1.267-.1-1.92-.485-1.931-1.407-.011-.943.662-1.35,1.987-1.435,1.366-.088.6.91.844,1.391" transform="translate(-91.942 -68.753)" fill="#f5c2a1"/>
    <path id="Trazado_161954" data-name="Trazado 161954" d="M198.891,202.553l1.925-3.85c.785,1.838.448,2.559-1.925,3.85" transform="translate(-152.355 -152.211)" fill="#e5e5e5"/>
    <path id="Trazado_161955" data-name="Trazado 161955" d="M151.11,198.044,153,201.806l-.18.2a10.224,10.224,0,0,1-1.989-1.754c-.392-.577.149-1.347.281-2.2" transform="translate(-115.431 -151.706)" fill="#e5e5e5"/>
    <path id="Trazado_161956" data-name="Trazado 161956" d="M293.885,21.008c0-2.769.017-5.538-.014-8.307-.007-.58.163-.72.728-.716q5.607.037,11.214,0c.586,0,.716.172.714.73q-.03,8.394,0,16.788c0,.579-.162.72-.727.716q-5.607-.037-11.214,0c-.586,0-.72-.171-.715-.729.027-2.827.013-5.655.013-8.482" transform="translate(-225.112 -9.18)" fill="#feca2e"/>
    <path id="Trazado_161957" data-name="Trazado 161957" d="M299.943,101.5c1.869,0,3.738.019,5.607-.012.529-.009.717.12.69.675-.047.96-.049,1.925,0,2.884.029.567-.182.677-.7.668a4.806,4.806,0,0,1-2.494-.546,4.586,4.586,0,0,0-4.69-.079,5.474,5.474,0,0,1-2.912.617c-1.849-.016-1.86,0-1.844-1.857.007-.751-.317-1.721.128-2.194s1.434-.135,2.183-.148c1.343-.025,2.687-.007,4.03-.007" transform="translate(-224.824 -77.678)" fill="#98791b"/>
    <path id="Trazado_161958" data-name="Trazado 161958" d="M12.05,97.266a7.144,7.144,0,0,1,4.412-6.852,6.975,6.975,0,0,1,7.774,1.766,7.166,7.166,0,0,1,1.065,8.062,7.609,7.609,0,0,1-1.935,2.456c-1.272,1.072-2.557,2.127-3.826,3.2-.3.254-.513.377-.882.056-1.387-1.206-2.84-2.337-4.205-3.565a7.111,7.111,0,0,1-2.4-5.125" transform="translate(-9.231 -68.874)" fill="#feca2e"/>
    <path id="Trazado_161959" data-name="Trazado 161959" d="M307.657,40.223c.185.231.321.376.429.539a1.394,1.394,0,0,1-2.05,1.869,26.515,26.515,0,0,1-1.928-1.91,1.441,1.441,0,0,0-1.3-.537,9.829,9.829,0,0,1-1.49,0,1.374,1.374,0,0,1-1.372-1.407,1.356,1.356,0,0,1,1.4-1.375c1.637-.028,3.274-.02,4.911,0,.408,0,.669-.019.822-.507a1.246,1.246,0,0,1,1.526-.869,1.328,1.328,0,0,1,1.153,1.343c.016.262.006.525.006.788,0,1.628-.351,1.993-2.113,2.07" transform="translate(-229.77 -27.572)"/>
    <path id="Trazado_161960" data-name="Trazado 161960" d="M32.465,106.032a4.208,4.208,0,1,1-4.166-4.2,4.219,4.219,0,0,1,4.166,4.2" transform="translate(-18.422 -78.007)"/>
    <path id="Trazado_161961" data-name="Trazado 161961" d="M38.849,115.186a1.4,1.4,0,1,1-1.409-1.365,1.409,1.409,0,0,1,1.409,1.365" transform="translate(-27.616 -87.19)" fill="#9fd3c3"/>
  </g>
</svg>
