<svg id="Grupo_116860" data-name="Grupo 116860" xmlns="http://www.w3.org/2000/svg" xmlns:xlink="http://www.w3.org/1999/xlink" width="78.507" height="78.509" viewBox="0 0 78.507 78.509">
  <defs>
    <clipPath id="clip-path">
      <rect id="Rectángulo_40837" data-name="Rectángulo 40837" width="78.507" height="78.509" fill="none"/>
    </clipPath>
  </defs>
  <g id="Grupo_116860-2" data-name="Grupo 116860" clip-path="url(#clip-path)">
    <path id="Trazado_161962" data-name="Trazado 161962" d="M6.156,93.915c-.238.892-.7,1.291-1.4,1.2s-1.072-.607-1.072-1.513c0-4.164-.013-8.329.012-12.493,0-.554-.1-.777-.7-.715a13.562,13.562,0,0,1-1.761.009,1.143,1.143,0,0,1-1.23-1.245c-.014-1.149-.007-2.3,0-3.448,0-1.016.423-1.438,1.429-1.439,2.58,0,5.16-.016,7.74.018.555.007.663-.158.658-.678a11.879,11.879,0,0,1,.118-2.9,4.919,4.919,0,0,1,4.69-3.8c.69-.01,1.38-.017,2.069.011.361.014.46-.091.48-.463a3.037,3.037,0,0,0-1.284-3.071,9.016,9.016,0,0,1-3.635-7.578c0-.435-.008-.869,0-1.3.013-.567.112-1.115-.694-1.313-.384-.095-.523-.561-.541-1.011a10.454,10.454,0,0,1,18.026-7.764,9.772,9.772,0,0,1,2.788,6.39,34.7,34.7,0,0,1-.1,6.579,9.4,9.4,0,0,1-4.242,6.623.917.917,0,0,0-.528.969c.082.624-.268,1.461.139,1.827.343.309,1.162.106,1.77.1,3.458-.017,5.457,1.978,5.461,5.453,0,.609-.209,1.421.1,1.774.362.417,1.2.122,1.824.129,1.756.021,1.732.007,1.763-1.764a21.506,21.506,0,0,1,.128-4.2,4.862,4.862,0,0,1,4.723-3.843c1.066-.011,2.133,0,3.282,0-.469-.553-.91-1.027-1.3-1.542a9.488,9.488,0,0,1-1.935-5.771c-.012-2.018-.007-4.036,0-6.055a8.62,8.62,0,0,1,8.76-8.711c1.916,0,3.832,0,5.748,0,1.009,0,1.429.421,1.437,1.432,0,.128.01.256,0,.383-.107,1.192-.069,2.127,1.388,2.707a3.832,3.832,0,0,1,2.243,3.517,61.325,61.325,0,0,1-.024,7.734,9.57,9.57,0,0,1-3.243,6.3c1.092,0,2.046,0,3,0a4.926,4.926,0,0,1,5.223,5.153c0,1.763.023,3.526-.014,5.288-.011.524.162.617.64.613,2.938-.022,5.876.007,8.813-.028a1.692,1.692,0,0,1,1.6.779v4.6a1.6,1.6,0,0,1-1.592.79c-.674-.038-1.606-.311-1.965.116-.343.408-.119,1.305-.12,1.988-.005,3.286,0,6.572,0,9.858,0,.9-.384,1.419-1.08,1.5s-1.156-.315-1.391-1.2a1.919,1.919,0,0,1-.224-1.255c-.005-3.217.005-6.433-.013-9.65,0-.364.2-1-.358-1s-.356.632-.358,1c-.018,3.216-.008,6.433-.013,9.65a1.919,1.919,0,0,1-.224,1.255c-.113.714-.479,1.2-1.245,1.2s-1.134-.483-1.244-1.2a1.912,1.912,0,0,1-.225-1.255c-.005-3.217,0-6.434-.013-9.651,0-.363.2-1-.358-1s-.356.633-.358,1c-.018,3.217-.008,6.434-.013,9.651a1.916,1.916,0,0,1-.225,1.255c-.111.715-.479,1.2-1.244,1.2s-1.132-.484-1.245-1.2a2.051,2.051,0,0,1-.223-1.333q-.007-11.115,0-22.229a10.376,10.376,0,0,0-.024-1.072A2.243,2.243,0,0,0,62.6,67.175c-.076-.006-.153-.011-.23-.011-6.413-.008-12.826-.019-19.239.008a2.224,2.224,0,0,0-2.39,2.417c-.039,1.992-.011,3.986-.011,5.979q0,8.508,0,17.016a2.057,2.057,0,0,1-.224,1.333c-.114.714-.48,1.2-1.245,1.2s-1.133-.484-1.243-1.2a1.9,1.9,0,0,1-.228-1.254c-.005-3.626,0-7.25,0-10.876,0-1.094-.033-1.129-1.1-1.13q-12.752,0-25.5,0c-1.071,0-1.1.035-1.1,1.13q-.005,5.438,0,10.875a1.907,1.907,0,0,1-.229,1.255c-.111.715-.48,1.2-1.245,1.2s-1.132-.486-1.244-1.2a1.912,1.912,0,0,1-.224-1.255q-.008-5.4,0-10.8a3.351,3.351,0,0,0-.055-.838.314.314,0,0,0-.624,0,3.379,3.379,0,0,0-.055.838q0,5.4,0,10.8a1.915,1.915,0,0,1-.224,1.255" transform="translate(0 -16.623)"/>
    <path id="Trazado_161963" data-name="Trazado 161963" d="M58.208,0a24.581,24.581,0,0,1,3.981,1.175A13.484,13.484,0,1,1,46.547,22.363a12.854,12.854,0,0,1-2.509-13.51A13.023,13.023,0,0,1,54.681.151c.118-.021.261.015.307-.151Z" transform="translate(-17.419)"/>
    <path id="Trazado_161964" data-name="Trazado 161964" d="M67.934,111.37q-.008-12.3-.008-24.6a2.391,2.391,0,0,1,2.405-2.387q9.85-.021,19.7,0A2.43,2.43,0,0,1,92.445,87q.01,8.623,0,17.246c0,2.376-.011,4.752-.017,7.128h-24.5" transform="translate(-27.433 -34.076)" fill="#656d78"/>
    <path id="Trazado_161965" data-name="Trazado 161965" d="M16.478,120.507c-.006-4.287,0-8.574-.03-12.861,0-.579.229-.656.721-.654,4.006.015,8.013.009,12.02.009,4.925,0,9.851.005,14.776-.009.492,0,.724.075.721.654-.029,4.287-.024,8.574-.03,12.861H16.478" transform="translate(-6.643 -43.214)" fill="#98791b"/>
    <path id="Trazado_161966" data-name="Trazado 161966" d="M10.308,120.5c-.006-4.308,0-8.616-.029-12.924,0-.491.179-.594.624-.594s.626.1.623.594C11.5,111.888,11.5,116.2,11.5,120.5h-1.19" transform="translate(-4.152 -43.212)" fill="#98791b"/>
    <path id="Trazado_161967" data-name="Trazado 161967" d="M113.192,121.335c-.006-3.9,0-7.8-.027-11.7,0-.487.176-.6.623-.6s.625.11.623.6c-.023,3.9-.021,7.8-.027,11.695h-1.192" transform="translate(-45.707 -44.042)" fill="#98791b"/>
    <path id="Trazado_161968" data-name="Trazado 161968" d="M119.366,121.335c-.006-3.9,0-7.8-.029-11.7,0-.491.179-.593.624-.593s.626.1.623.593c-.024,3.9-.022,7.8-.028,11.7h-1.19" transform="translate(-48.2 -44.043)" fill="#98791b"/>
    <path id="Trazado_161969" data-name="Trazado 161969" d="M76.136,55.709a24.932,24.932,0,0,1,.12-3.383,6.113,6.113,0,0,1,5.941-5c1.428-.018,2.858.027,4.286-.02.605-.02.743.2.7.744a15.616,15.616,0,0,0,0,1.76A1.155,1.155,0,0,0,88.324,51a2.5,2.5,0,0,1,2.53,2.817c0,1.608-.011,3.215.008,4.823a1.735,1.735,0,0,1-.364,1.124,8.766,8.766,0,0,1-13.989.022,1.685,1.685,0,0,1-.382-1.118c.027-.917.009-1.837.009-2.959" transform="translate(-30.747 -19.107)" fill="#972d31"/>
    <path id="Trazado_161970" data-name="Trazado 161970" d="M26.471,60.8a20.257,20.257,0,0,0,7.475-1.555c.165-.069.333-.128.5-.194,2.223-.886,2.908-.865,4.748,1.431a.671.671,0,0,1,.173.328c.182,2.868-.123,5.593-2.508,7.6a7,7,0,0,1-7.57,1.28,7.119,7.119,0,0,1-4.62-6.545c-.007-.1-.008-.2-.007-.306.014-.66-.207-1.493.113-1.931.308-.423,1.187.021,1.7-.106" transform="translate(-9.935 -23.631)" fill="#e9c5ba"/>
    <path id="Trazado_161971" data-name="Trazado 161971" d="M30.31,93.38c-3.041,0-6.081-.013-9.122.013-.505,0-.66-.132-.625-.632.044-.61,0-1.226.014-1.838a2.45,2.45,0,0,1,2.432-2.446c.613-.015,1.23.039,1.839-.013a2.214,2.214,0,0,1,2.2.856,1.063,1.063,0,0,0,1.519.207,2.767,2.767,0,0,1,3.645,0,1.159,1.159,0,0,0,1.683-.364,1.694,1.694,0,0,1,1.648-.7c.711.058,1.429,0,2.145.015a2.443,2.443,0,0,1,2.506,2.448c.017.788.28,1.819-.111,2.3-.407.5-1.48.145-2.26.151-2.5.019-5.007.007-7.512.007" transform="translate(-8.304 -35.723)" fill="#e5e8ec"/>
    <path id="Trazado_161972" data-name="Trazado 161972" d="M25.332,53.032c-.736-.061-1.471-.115-2.206-.189-.307-.031-.485-.145-.423-.541a8.006,8.006,0,0,1,12.732-5.433c.356.253.474.47.228.862a4.129,4.129,0,0,0-.47.958,4.58,4.58,0,0,1-3.419,3.16,23.545,23.545,0,0,1-6.443,1.183" transform="translate(-9.165 -18.271)" fill="#feca2e"/>
    <path id="Trazado_161973" data-name="Trazado 161973" d="M21.969,100.821c5.647,0,11.294.02,16.941-.023.79-.005.808.339.771.906-.018.275-.15.351-.389.342-.128,0-.256,0-.383,0q-17.018,0-34.035.006c-.479,0-.8.011-.793-.658s.395-.575.8-.575H21.969" transform="translate(-1.648 -40.712)" fill="#98791b"/>
    <path id="Trazado_161974" data-name="Trazado 161974" d="M117.5,102.886c1.226,0,2.453.022,3.679-.011.494-.014.593.178.591.623s-.091.63-.588.625q-3.716-.036-7.433,0c-.492,0-.593-.176-.591-.622s.089-.64.588-.627c1.251.033,2.5.011,3.755.011" transform="translate(-45.704 -41.551)" fill="#98791b"/>
    <path id="Trazado_161975" data-name="Trazado 161975" d="M90.071,76.053c-2.389,3.211-8.126,3.216-10.82-.146a12.108,12.108,0,0,0,5.5,1.376,12.452,12.452,0,0,0,5.323-1.23" transform="translate(-32.009 -30.659)" fill="#e8c4b9"/>
    <path id="Trazado_161976" data-name="Trazado 161976" d="M37.836,81.784c0,.7.006,1.356,0,2.012-.005.44-.213.536-.585.314a2.048,2.048,0,0,1-.206-.1A2.587,2.587,0,0,0,33.7,84c-.634.432-.761.314-.77-.451-.007-.559,0-1.118,0-1.753a10.143,10.143,0,0,0,4.906-.014" transform="translate(-13.299 -33.032)" fill="#f4f6f9"/>
    <path id="Trazado_161977" data-name="Trazado 161977" d="M48.147,54.5c-.2-.123-.331-.2-.462-.281-1.193-.71-1.193-.71-.353-1.941a6.578,6.578,0,0,1,.815,2.222" transform="translate(-18.878 -21.116)" fill="#feca2e"/>
    <path id="Trazado_161978" data-name="Trazado 161978" d="M56.214,10.82a3.141,3.141,0,0,0-2.759,2.97,1.209,1.209,0,0,0,1.533,1.31,1.19,1.19,0,0,0,.9-1.117c.035-.429.247-.692.674-.657s.567.354.563.767c-.011,1-.024,1.993.006,2.989.013.417-.133.524-.525.505-.612-.03-1.226-.013-1.839-.008a3.642,3.642,0,0,0-3.721,3.087c-.086.482-.234.557-.687.616a1.6,1.6,0,0,1-1.851-1.141C46.56,15.929,46.861,11.9,49.74,8.275A10.375,10.375,0,0,1,61.025,4.449a10.571,10.571,0,0,1,8.155,8.618,10.556,10.556,0,0,1-1.332,7.669,2.187,2.187,0,0,1-2.034.5c-.166-.106-.091-.272-.119-.411a3.718,3.718,0,0,0-3.915-3.243c-.709,0-1.669.235-2.063-.127-.459-.422-.1-1.394-.14-2.126-.021-.433,0-.869,0-1.3a.6.6,0,0,1,.555-.7c.382-.036.59.185.677.575.212.955.766,1.386,1.5,1.214a1.352,1.352,0,0,0,.889-1.775,3.021,3.021,0,0,0-2.164-2.357c-.144-.045-.286-.1-.428-.154-.021-.008-.034-.037-.051-.056a2.427,2.427,0,0,1,3.919,1.748c.106.972.588,1.462,1.361,1.384.757-.076,1.192-.7,1.078-1.642a4.748,4.748,0,0,0-2.958-4.059,4.639,4.639,0,0,0-5.082.767c-.413.342-.6.387-1.038.014A4.609,4.609,0,0,0,52.9,8.135a4.772,4.772,0,0,0-3.1,3.958,1.419,1.419,0,0,0,.612,1.67c.831.457,1.7-.095,1.808-1.146a2.433,2.433,0,0,1,4-1.8" transform="translate(-19.091 -1.64)" fill="#dff7f9"/>
    <path id="Trazado_161979" data-name="Trazado 161979" d="M68.123,37.11a10.876,10.876,0,0,1-13.585,0Z" transform="translate(-22.028 -14.989)" fill="#5d9beb"/>
    <path id="Trazado_161980" data-name="Trazado 161980" d="M62.5,32.086c-1.43,0-2.861.005-4.291-.007-.179,0-.439.132-.535-.122-.075-.2.069-.4.182-.562a1.19,1.19,0,0,1,1.044-.532q3.639,0,7.279,0a1.212,1.212,0,0,1,.842.306c.234.209.471.488.37.787s-.446.121-.677.123c-1.405.014-2.809.007-4.214.007" transform="translate(-23.287 -12.465)" fill="#feca2e"/>
    <path id="Trazado_161981" data-name="Trazado 161981" d="M82.692,99.173q-3.522,0-7.043,0c-1.018,0-1.581-.465-1.557-1.263.024-.767.566-1.188,1.557-1.189q7.042,0,14.085,0c.972,0,1.52.452,1.519,1.226s-.544,1.222-1.519,1.224q-3.52.007-7.042,0" transform="translate(-29.925 -39.064)"/>
    <path id="Trazado_161982" data-name="Trazado 161982" d="M82.693,111.519q-3.521,0-7.042,0c-1.019,0-1.582-.464-1.558-1.261.023-.768.565-1.189,1.556-1.19q7.042,0,14.085,0c.972,0,1.52.451,1.521,1.225s-.544,1.223-1.519,1.225c-2.347.005-4.695,0-7.042,0" transform="translate(-29.925 -44.051)"/>
    <path id="Trazado_161983" data-name="Trazado 161983" d="M82.6,123.865q-3.444,0-6.889,0c-1.054,0-1.6-.415-1.614-1.207s.548-1.245,1.577-1.245q7.043,0,14.085,0c1.1,0,1.751.745,1.432,1.619a1.29,1.29,0,0,1-1.4.836c-2.4-.011-4.8,0-7.2,0" transform="translate(-29.926 -49.037)"/>
  </g>
</svg>
