<svg id="Grupo_116861" data-name="Grupo 116861" xmlns="http://www.w3.org/2000/svg" xmlns:xlink="http://www.w3.org/1999/xlink" width="78.509" height="72.267" viewBox="0 0 78.509 72.267">
  <defs>
    <clipPath id="clip-path">
      <rect id="Rectángulo_40838" data-name="Rectángulo 40838" width="78.509" height="72.267" fill="none"/>
    </clipPath>
  </defs>
  <g id="Grupo_116861-2" data-name="Grupo 116861" transform="translate(0 0)" clip-path="url(#clip-path)">
    <path id="Trazado_161984" data-name="Trazado 161984" d="M73.442,28.748a1.218,1.218,0,0,1,.92,1.1C75.712,37.561,77.1,45.269,78.4,52.99A8.028,8.028,0,0,1,71.9,62.2c-5.792,1.076-11.6,2.061-17.4,3.086q-9.756,1.724-19.513,3.449c-6.631,1.165-13.25,2.409-19.9,3.441a8.041,8.041,0,0,1-9.1-6.838Q3.1,48.905.2,32.481c-.035-.2-.041-.406-.06-.609-.148-.246.048-.552-.135-.792V29.393c.314-.714.409-1.5.758-2.206A8.259,8.259,0,0,1,7.147,22.5c1.759-.3,3.512-.638,5.276-.909.488-.076.5-.292.435-.668a5.429,5.429,0,0,1-.187-2.341,3.023,3.023,0,0,1,2.258-2.356c.446-.118.564-.229.456-.7a9.96,9.96,0,0,1,.181-5.807A9.764,9.764,0,0,1,23.729,3.2c5.683-.949,11.377-1.863,17.024-3A9.746,9.746,0,0,1,52.421,8.538c.095.717.261,1,1.085.95a3.062,3.062,0,0,1,3.064,2.67c.1.515-.034,1.243.38,1.481.342.2.969-.1,1.468-.183,1.584-.268,3.162-.574,4.752-.8a8.135,8.135,0,0,1,9.355,6.787c.255,1.431.512,2.861.758,4.294.187,1.085.046,1.369-.878,1.844-.672.262-1.053-.122-1.357-.632a2.689,2.689,0,0,1-.27-.875.677.677,0,0,0-.756-.6,11.055,11.055,0,0,1-6.694-2.379c1.945,11.08,3.884,22.007,5.834,33.094a11.964,11.964,0,0,1,3.921-3.8,7.124,7.124,0,0,1,1.386-.645c.6-.195.757-.539.642-1.163-.625-3.364-1.2-6.737-1.789-10.107q-.67-3.809-1.344-7.618c-.041-.226-.076-.452-.1-.682-.083-.972.526-1.822,1.559-1.428" transform="translate(0 0)"/>
    <path id="Trazado_161985" data-name="Trazado 161985" d="M0,39.094a.828.828,0,0,1,.135.792A.778.778,0,0,0,0,39.861Z" transform="translate(0 -8.015)" fill="#454545"/>
    <path id="Trazado_161986" data-name="Trazado 161986" d="M89.7,34.078c-1.174.064-1.537.506-1.332,1.671Q90,45.014,91.644,54.278c.055.312.212.63-.28.793a10.831,10.831,0,0,0-6.059,5.055C83.283,48.665,81.291,37.371,79.284,26c.712.459,1.341.913,2.014,1.287a9.3,9.3,0,0,0,4.822,1.285c.809-.024,1.105.2,1.175,1,.083.947.406,1.192,1.365,1.34.147.785.329,1.565.428,2.356a.883.883,0,0,0,.609.815" transform="translate(-16.255 -5.33)" fill="#cd9685"/>
    <path id="Trazado_161987" data-name="Trazado 161987" d="M28.574,48.242c-.463-2.534-.934-5.067-1.385-7.6-.746-4.2-1.475-8.394-2.219-12.59-.176-.991-.187-.973.779-1.143q9.688-1.708,19.372-3.426c3.442-.608,6.889-1.2,10.326-1.83.459-.084.558.032.629.441q1.042,6.034,2.128,12.061c.089.49-.089.541-.486.6a7.679,7.679,0,0,0,.973,15.28,6.47,6.47,0,0,0,1.669-.182c.479-.122.628,0,.706.459.446,2.616.913,5.228,1.375,7.842.452,2.563.887,5.129,1.371,7.687.116.613-.019.865-.651.941-1.088.132-2.166.332-3.249.5a8.267,8.267,0,0,1-3.758-.45,50.49,50.49,0,0,1-11.073-3.974c-.29-.149-.718-.195-.727-.669a4.1,4.1,0,0,0,.712-2.529c-.017-1.661.007-3.322-.008-4.984a3.19,3.19,0,0,0-3.539-3.492L30.711,51.15a6.909,6.909,0,0,1-2.137-2.907" transform="translate(-5.101 -4.433)" fill="#cd9685"/>
    <path id="Trazado_161988" data-name="Trazado 161988" d="M22.435,41.8c.4,2.177.812,4.353,1.206,6.532.29,1.606.549,3.216.847,4.821a.9.9,0,0,1-.155.843,3.068,3.068,0,0,0-.64,2c0,1.839-.014,3.678,0,5.516a3.111,3.111,0,0,0,2.415,3.213c.3.089.452.177.51.522.472,2.764.969,5.524,1.472,8.284.079.435-.072.568-.492.636-1.813.291-3.629.572-5.422.96-.657.142-.711-.142-.789-.6-.368-2.161-.75-4.321-1.122-6.481-.18-1.048-.425-1.309-1.367-1.421-.045-.021-.111-.037-.128-.074a5.249,5.249,0,0,1-.475-3.083c.843-.4,1.035-.737.878-1.623Q16.765,48.2,14.348,34.563c-.227-1.281-.432-2.565-.674-3.844-.073-.388-.041-.571.419-.644,1.913-.3,3.817-.653,5.725-.986a38.536,38.536,0,0,0,.859,6.29c.462,2.172,1.131,4.289,1.758,6.416" transform="translate(-2.797 -5.964)" fill="#ecd9bf"/>
    <path id="Trazado_161989" data-name="Trazado 161989" d="M81.387,64.3c.084.288-.052.362-.3.4q-2.941.51-5.878,1.049c-.436.081-.428-.179-.478-.471q-1.207-6.86-2.425-13.719c-.164-.93-.3-1.866-.494-2.789a.661.661,0,0,1,.306-.759,7.673,7.673,0,0,0-2.356-13.4.736.736,0,0,1-.567-.678q-1.092-6.3-2.233-12.587c-.074-.41-.052-.622.472-.7q2.8-.433,5.574-1c.588-.121.567.24.625.567q.955,5.39,1.9,10.782,2.1,11.95,4.213,23.9.8,4.523,1.6,9.045c.022.126.031.254.045.366" transform="translate(-13.722 -4.023)" fill="#f8f0d9"/>
    <path id="Trazado_161990" data-name="Trazado 161990" d="M16.3,65.242a26.611,26.611,0,0,0,.6,3.158c-.871.339-1.066.65-.937,1.561.089.629.2,1.254.31,1.9-.3-.03-.452-.258-.646-.4a10.27,10.27,0,0,0-6.49-2.135c-.5.012-.712-.126-.8-.629q-1.3-7.54-2.637-15.073c-.582-3.315-1.155-6.633-1.763-9.944-.095-.514-.044-.751.5-.942A10.428,10.428,0,0,0,9.852,38.43l.418-.638c.387,2.176.75,4.193,1.105,6.21q1.772,10.059,3.539,20.118A1.214,1.214,0,0,0,16.3,65.242" transform="translate(-0.8 -7.748)" fill="#c78c78"/>
    <path id="Trazado_161991" data-name="Trazado 161991" d="M46,72.647a25.736,25.736,0,0,0,4.686,2.2,63.085,63.085,0,0,0,9.579,2.8c.434.094.866.021,1.293.091-2.177.4-4.351.812-6.53,1.2Q45.205,80.684,35.379,82.4c-1.248.217-.946.339-1.164-.81-.45-2.379-.819-4.772-1.275-7.149-.114-.595-.006-.72.591-.715,3.165.029,6.33-.014,9.494.028A3.828,3.828,0,0,0,46,72.647" transform="translate(-6.745 -14.894)" fill="#c78c78"/>
    <path id="Trazado_161992" data-name="Trazado 161992" d="M29.1,15.064a1.536,1.536,0,0,1,1.4-1.7q5.575-1,11.154-1.98c2.186-.387,4.373-.767,6.557-1.161a1.644,1.644,0,0,1,2.194,1.489,1.032,1.032,0,0,0,.024.151c.272.779.143,1.193-.788,1.475a2.977,2.977,0,0,0-1.863,3.327c.065.584.527,1.309.116,1.713-.347.342-1.106.267-1.684.37-3.918.695-7.84,1.378-11.755,2.092-.6.109-.963.079-.982-.646a5.294,5.294,0,0,0-.192-1.052,3.03,3.03,0,0,0-3.245-2.43c-.525.043-.748-.051-.77-.6a7.675,7.675,0,0,0-.165-1.055" transform="translate(-5.967 -2.085)" fill="#e7cccd"/>
    <path id="Trazado_161993" data-name="Trazado 161993" d="M25.322,13.475a6.349,6.349,0,0,0,.227,1.675c.069.384.053.555-.377.615-.831.118-1.657.274-2.48.436-.3.06-.477.006-.555-.321-.808-3.4-.047-6.409,2.973-8.576a10.07,10.07,0,0,1,4.33-1.379q8.232-1.456,16.463-2.9a7.368,7.368,0,0,1,8.709,6.269c.039.251.078.5.133.751.085.388-.069.558-.457.615-.78.116-1.561.243-2.329.413-.4.087-.574-.027-.638-.405s-.145-.75-.215-1.125A3.86,3.86,0,0,0,46.657,6.4Q37.56,8,28.465,9.616a3.816,3.816,0,0,0-3.143,3.859" transform="translate(-4.477 -0.595)" fill="#636363"/>
    <path id="Trazado_161994" data-name="Trazado 161994" d="M71.563,46.265a5.384,5.384,0,1,1-10.768.037,5.449,5.449,0,0,1,5.415-5.419,5.391,5.391,0,0,1,5.353,5.381" transform="translate(-12.464 -8.382)" fill="#a7e446"/>
    <path id="Trazado_161995" data-name="Trazado 161995" d="M42.633,69.166q-6.243.015-12.485.033a.852.852,0,0,1-.967-.933c-.016-1.864-.011-3.728,0-5.593a.865.865,0,0,1,.942-.969q6.32-.014,12.641-.006a1.163,1.163,0,0,1,.348.12c-.313.308-.715.222-1.087.223-2.293.01-4.585,0-6.877.007a2.284,2.284,0,0,0-.836.064c.4.491.86.868,1.254,1.309.227.255.573.458.48.89-.466.308-.991.159-1.492.188a8.136,8.136,0,0,0-1.3.06c-.49.108-.878.366-.859.918s.409.789.917.851c.356.043.715.018,1.072.026,1.709.039,3.42-.083,5.126.065a5.449,5.449,0,0,0,2.01,1.727c.411.282,1.018.382,1.115,1.018" transform="translate(-5.98 -12.649)" fill="#dff7f9"/>
    <path id="Trazado_161996" data-name="Trazado 161996" d="M37.191,64.3Q35.984,63.249,34.78,62.2l.233-.355h9.246c.44.108.519.468.522.829.013,1.862.018,3.724,0,5.585-.006.626-.287,1.028-1,.934-1.006-.893-2.275-1.414-3.282-2.326l.371-.231a.668.668,0,0,1,.234-.3.952.952,0,0,0,.419-1.133,1.091,1.091,0,0,0-1.1-.682c-.792-.027-1.584,0-2.376-.016-.3-.006-.622.052-.857-.218" transform="translate(-7.131 -12.68)" fill="#f4fcfd"/>
    <path id="Trazado_161997" data-name="Trazado 161997" d="M3.267,39.23c-1.247-4.187,1.057-7.7,5.357-8.205.576-.068.408.293.407.551A8.328,8.328,0,0,1,3.267,39.23" transform="translate(-0.601 -6.359)" fill="#feca2e"/>
    <path id="Trazado_161998" data-name="Trazado 161998" d="M78.236,19.031a6.048,6.048,0,0,1,8.191,5.295c.056.487-.17.465-.506.467a8.35,8.35,0,0,1-7.685-5.761" transform="translate(-16.04 -3.831)" fill="#feca2e"/>
    <path id="Trazado_161999" data-name="Trazado 161999" d="M94.313,67.581a6.1,6.1,0,0,1-5.842,5.983c-.51.03-.318-.31-.309-.49a8.263,8.263,0,0,1,4.6-7.269c1.181-.639,1.2-.611,1.415.715.057.351.095.707.141,1.061" transform="translate(-18.066 -13.408)" fill="#feca2e"/>
    <path id="Trazado_162000" data-name="Trazado 162000" d="M11.086,80.33a8.4,8.4,0,0,1,7.2,5.246c.181.413.142.547-.366.671a5.985,5.985,0,0,1-7.6-5.086c-.093-.871-.156-.863.766-.832" transform="translate(-2.106 -16.467)" fill="#feca2e"/>
    <path id="Trazado_162001" data-name="Trazado 162001" d="M55.44,17.19c.034-.606.392-.836.936-.93,2.483-.428,4.962-.874,7.443-1.315.2-.036.4-.08.6-.114.761-.128,1.091.1,1.247.848.311,1.487.31,1.482-1.169,1.743-2.707.478-5.414.954-8.118,1.452-.459.085-.72.067-.736-.5a7.973,7.973,0,0,0-.2-1.188" transform="translate(-11.366 -3.034)" fill="#feca2e"/>
    <path id="Trazado_162002" data-name="Trazado 162002" d="M29.2,23.4c.08.238-.182.3-.444.346q-4.672.818-9.345,1.632c-.139.025-.327.134-.371-.1a5.682,5.682,0,0,1-.26-1.879c.064-.432.44-.6.842-.666,2.637-.464,5.273-.935,7.912-1.387,1.061-.181,1.29.006,1.479,1.088.048.276.107.55.187.964" transform="translate(-3.846 -4.364)" fill="#feca2e"/>
    <path id="Trazado_162003" data-name="Trazado 162003" d="M23.982,41.785a13.266,13.266,0,0,1-1.22-3.427A39.308,39.308,0,0,1,21.2,29.6a.541.541,0,0,1,.17-.526c.243-.073.415-.1.475.257q1.057,6.227,2.142,12.449" transform="translate(-4.345 -5.953)" fill="#f7efd8"/>
    <path id="Trazado_162004" data-name="Trazado 162004" d="M29.527,55.107l2.137,2.907c-1.632.111-1.638.111-1.935-1.479-.088-.472-.136-.952-.2-1.429" transform="translate(-6.054 -11.298)" fill="#c68b77"/>
    <path id="Trazado_162005" data-name="Trazado 162005" d="M45.025,37.038A3.115,3.115,0,0,1,42.98,40.08q-4.748,1.81-9.551,3.482a3.193,3.193,0,0,1-4.076-1.9c-.44-1.086-.847-2.188-1.208-3.3a3.233,3.233,0,0,1,2.01-4.159q4.618-1.727,9.266-3.375a3.268,3.268,0,0,1,4.294,1.995c.4,1.021.75,2.058,1.125,3.088a3.174,3.174,0,0,1,.186,1.131" transform="translate(-5.733 -6.275)"/>
    <path id="Trazado_162006" data-name="Trazado 162006" d="M36.795,64.926c1.1.011,2.2.028,3.294.032.688,0,1.225.236,1.344.973a1.115,1.115,0,0,1-.957,1.34q-3.062,0-6.125-.012c-.962,0-1.5-.416-1.5-1.138s.555-1.15,1.5-1.161q1.223-.014,2.449-.033" transform="translate(-6.734 -13.311)"/>
    <path id="Trazado_162007" data-name="Trazado 162007" d="M43.307,37.416a1.041,1.041,0,0,1-.69,1.169q-4.627,1.687-9.258,3.364a.932.932,0,0,1-1.3-.6c-.394-1.021-.78-2.045-1.13-3.082-.227-.669.043-1.108.812-1.39q4.194-1.538,8.393-3.06c1.5-.545,1.7-.448,2.243,1.041l.926,2.56" transform="translate(-6.326 -6.871)" fill="#fc4b52"/>
  </g>
</svg>
